<svg xmlns="http://www.w3.org/2000/svg" xmlns:xlink="http://www.w3.org/1999/xlink" width="863.893" height="680.139" viewBox="0 0 863.893 680.139">
  <defs>
    <linearGradient id="linear-gradient" y1="0.5" x2="1" y2="0.5" gradientUnits="objectBoundingBox">
      <stop offset="0.389" stop-color="#c7ab93"/>
      <stop offset="1" stop-color="#c7ab93"/>
    </linearGradient>
  </defs>
  <g id="Group_28136" data-name="Group 28136" transform="translate(-993.401 -1322.862)">
    <g id="Group_22788" data-name="Group 22788" transform="translate(431.139 1504.635)" opacity="0.7">
      <path id="Path_36197" data-name="Path 36197" d="M1425.525,295.1l-.132,8.422-6.831.233c-30.009,1.756-82.594,14.29-145.725,30.438-7.26,1.888-14.49,3.779-21.881,5.768-33.523,8.854-69.33,18.9-105.738,29.478-.132.031-.233.064-.365.1-6.8,1.955-13.659,3.978-20.49,5.967-32.825,9.684-65.883,19.662-97.945,29.478q-10.049,3.085-19.9,6.132c-36.935,11.44-72.147,22.58-103.679,32.66q-10.049,3.186-19.531,6.267c-66.744,21.452-113.461,37.964-117.705,39.49l-.3.1S633.247,400.375,613.187,379.088a2.125,2.125,0,0,1-.267-.3c-19.595-20.858-30.735-37.9-45.589-83.29-4.542-13.827-6.1-30.039-3.515-39.821a49.659,49.659,0,0,1,18.866-27.321,54.742,54.742,0,0,1,16.678-8.29,47.368,47.368,0,0,1,4.71-1.161l105.7-21.152,22.215-4.444,100.633-20.125,22.577-4.511c.034,0,98.809-19.761,98.809-19.761l23.374-4.677,85.644-17.14L1382.09,282.5l21.287,10.377-.1-.662Z" transform="translate(0.631 8.733)" fill="#efb275"/>
      <path id="Path_36198" data-name="Path 36198" d="M746.727,229.231v9.948c-66.744,21.452-113.461,37.964-117.705,39.49l-.3.1.4-11.072Z" transform="translate(137.217 219.598)" fill="#e2a269"/>
      <path id="Path_36199" data-name="Path 36199" d="M858.674,192.922l-.067,11.174c-33.456,8.82-69.628,18.967-106.036,29.543v-9.948Z" transform="translate(392.912 144.634)" fill="#efceda"/>
      <path id="Path_36200" data-name="Path 36200" d="M947.11,190.407l-.132,8.422-6.831.233c-30.009,1.756-82.594,14.29-145.725,30.438l-.132-9.914s20.193-22.381,19.629-22.546c0-.165,61.075-13.031,89.756-19.23l21.287,10.377-.1-.662Z" transform="translate(479.046 113.429)" fill="#9dc5ed"/>
      <g id="Group_22786" data-name="Group 22786" transform="translate(563.189 122.868)">
        <path id="Path_36201" data-name="Path 36201" d="M579.277,168.066a45.65,45.65,0,0,0-4.707,1.161c106.7,79.11,234.084,173.208,303.482,223.707,31.532-10.08,66.744-21.219,103.682-32.66L684.982,146.911Z" transform="translate(-537.779 -73.229)" fill="#ffedf3"/>
        <path id="Path_36202" data-name="Path 36202" d="M617.847,159.022,912.276,370.695c32.062-9.816,65.12-19.794,97.945-29.478L718.476,138.894Z" transform="translate(-448.429 -89.781)" fill="#e887a5"/>
        <path id="Path_36203" data-name="Path 36203" d="M883.32,378.578c-70.026,22.516-117.607,38.464-117.607,38.464S633.254,328.91,613.193,307.624a2.121,2.121,0,0,1-.267-.3c-2.951-3.117-5.669-6.169-8.287-9.218-14.722-17.373-24.67-35.479-37.3-74.072-4.177-12.7-5.835-27.422-4.079-37.3.067-.365.132-.7.2-1.027.132-.53.233-1.03.365-1.492.365-1.391.8-2.752,1.293-4.11a49.765,49.765,0,0,1,17.573-23.211c20.888,15.485,48.51,35.975,79.18,58.654,25.663,19,53.413,39.491,81.1,59.947,58.191,42.9,104.678,77.057,138.2,101.494C881.894,377.518,882.624,378.048,883.32,378.578Z" transform="translate(-562.565 -52.618)" fill="#ffcd97"/>
        <path id="Path_36204" data-name="Path 36204" d="M802.9,122.868,697.92,143.036,993.244,333.023c68.139-17.471,124.34-29.178,152.82-29.178Z" transform="translate(-283.109 -122.868)" fill="#bddbff"/>
        <path id="Path_36205" data-name="Path 36205" d="M658.062,150.736,947.686,351.6c36.57-10.61,72.512-20.689,106.1-29.577L756.834,130.975Z" transform="translate(-365.4 -106.13)" fill="#ffedf3"/>
        <path id="Path_36206" data-name="Path 36206" d="M690.292,134.126,987.243,325.173c7.395-1.989,14.621-3.88,21.749-5.737L713.669,129.449Z" transform="translate(-298.858 -109.281)" fill="#96c1ff"/>
        <path id="Path_36207" data-name="Path 36207" d="M673.263,137.423l-22.58,4.508L942.427,344.253c6.831-1.989,13.7-4.012,20.493-5.967L673.3,137.423Z" transform="translate(-380.635 -92.818)" fill="#96c1ff"/>
        <path id="Path_36208" data-name="Path 36208" d="M610.6,149.9,907.35,363.267q9.847-3.034,19.893-6.132L632.813,145.462Z" transform="translate(-463.395 -76.22)" fill="#96c1ff"/>
        <path id="Path_36209" data-name="Path 36209" d="M889.293,377.9q-10.049,3.181-19.531,6.264c-.7-.53-1.425-1.06-2.154-1.591-33.521-24.437-80.008-58.589-138.2-101.494-27.686-20.456-55.436-40.946-81.1-59.947-30.671-22.678-58.292-43.168-79.18-58.654a54.99,54.99,0,0,1,16.215-8.158c.166-.031.3-.1.463-.132a4.807,4.807,0,0,1,.466.365c27.784,20.591,56.962,42.209,86.14,63.793C755.208,279.587,838.066,340.63,889.293,377.9Z" transform="translate(-549.008 -58.202)" fill="#96c1ff"/>
      </g>
      <path id="Path_36210" data-name="Path 36210" d="M809.03,201.388c-7.2,1.854-14.425,3.745-21.817,5.734-.067.034,0-9.945,0-9.945l21.75-5.737Z" transform="translate(464.373 141.574)" fill="#6da2e2"/>
      <path id="Path_36211" data-name="Path 36211" d="M766.372,202.966l.011,9.936-20.491,5.968-.011-9.936Z" transform="translate(379.101 165.371)" fill="#6da2e2"/>
      <path id="Path_36212" data-name="Path 36212" d="M811.866,204.913l.011,9.936-97.945,29.476-.011-9.936Z" transform="translate(313.116 169.391)" fill="#d36e92"/>
      <path id="Path_36213" data-name="Path 36213" d="M727.616,214.532l.011,9.936-20.339,6.273.031-9.95Z" transform="translate(299.421 189.249)" fill="#6da2e2"/>
      <path id="Path_36214" data-name="Path 36214" d="M776.877,216.574l-.031,9.95L673.609,259.044l-.011-9.936Z" transform="translate(229.864 193.466)" fill="#efceda"/>
      <path id="Path_36215" data-name="Path 36215" d="M686.76,227.187v9.945q-10.049,3.186-19.531,6.267v-9.948Z" transform="translate(216.715 215.378)" fill="#6da2e2"/>
      <path id="Path_36216" data-name="Path 36216" d="M683.738,196.818s-96.707,45.868-75.708,97.813l-38.681-47.523,24.866-67.418s39.236-12.712,41.446-11.606S683.738,196.818,683.738,196.818Z" transform="translate(14.629 93.212)" opacity="0.5" fill="url(#linear-gradient)" style="mix-blend-mode: multiply;isolation: isolate"/>
      <g id="Group_22787" data-name="Group 22787" transform="translate(562.262 218.986)">
        <path id="Path_36217" data-name="Path 36217" d="M691.994,208.91c-11.318-13.362-39.362-40.336-87.835-50.3-12.222-2.513-22.988,5.752-30.367,15.813a48.7,48.7,0,0,0-7.824,16.325c-2.587,9.782-3.163,30.45-.077,44.673,12.019,55.4,35.39,68.114,54.985,88.972-.9-1.413-1.811-2.994-2.721-4.646l.787.913,3.108-5.388c-13.282-11.863-15.526-38.608-14.517-46.055,4.569-33.726,30.061-49.27,90.363-52.586l.776-6.356Z" transform="translate(-559.098 -146.138)" fill="#efb275"/>
        <path id="Path_36218" data-name="Path 36218" d="M701.848,218.359c-5.372-.267-10.444-.3-15.253-.1a135.511,135.511,0,0,0-24.1,2.786c-36.506,7.594-48.111,27.588-48.111,27.588-12.8,17.042-13.463,38.2-9.117,54.973a65.088,65.088,0,0,0,7.723,18.369c-19.6-20.855-36.6-32.2-48.638-87.568-2.853-13.1-2.553-31.7-.466-42.175.067-.365.132-.7.2-1.027.132-.53.233-1.03.365-1.492.365-1.391.8-2.752,1.293-4.11a49.765,49.765,0,0,1,17.573-23.211,54.99,54.99,0,0,1,16.215-8.158c.3.067.628.135.928.233C663.917,168.921,701.848,218.359,701.848,218.359Z" transform="translate(-562.262 -154.232)" fill="#f7bd89"/>
      </g>
    </g>
    <g id="Group_22785" data-name="Group 22785" transform="translate(729.289 1266.443)">
      <g id="Group_22756" data-name="Group 22756" transform="translate(400.711 56.418)">
        <g id="Group_22743" data-name="Group 22743" transform="translate(123.183)">
          <path id="Path_36073" data-name="Path 36073" d="M515.059,165.239c-15.431-6.965-23.1-30.533-24.883-45.692-1.808-15.352.686-31.939-5.236-46.6C480.3,61.461,471.384,55.9,459.013,56.457c-6.069.272-12.411,2.034-16.491,5.871a10.661,10.661,0,0,0-4.364,10.3c0,.159-.023.306-.023.47a.171.171,0,0,0,.164.153,9.878,9.878,0,0,0,.266,1.184A10.533,10.533,0,0,0,441,78.161c.153.153.3.312.47.453,2.153,2.012,5.021,3.327,7.645,2.765,4.59.793,9.543,1.133,11.912,3.366,5.638,5.327,3.882,17.658,4.828,24.73.935,6.965,1.552,19.12,3.111,25.971C473.022,153.248,491.23,172.039,515.059,165.239Z" transform="translate(-349.751 -56.418)" fill="#2c1d1b"/>
          <path id="Path_36074" data-name="Path 36074" d="M436.313,63.447s6.721-9.146,15.709-3.105c11.912,8.007,8.427,16.19,5.355,18.355S436.313,63.447,436.313,63.447Z" transform="translate(-357.743 -47.739)" fill="#ff85c5"/>
          <path id="Path_36075" data-name="Path 36075" d="M461.435,119.256l5.486,11.838s-2.839,7.956-5.191,12.682-6.386,4-9.917,9.945.4,9.656,11.39,10.064,13.351-5.112,16.729-12.314,8.5-16.462,8.58-22.435c.119-9.39-7.951-9.1-12.654-12.331C472.837,114.632,461.435,119.256,461.435,119.256Z" transform="translate(-291.288 222.441)" fill="#ffc9b6"/>
          <path id="Path_36076" data-name="Path 36076" d="M458.3,127.068c-1.819,4.585-4.528,10.37-13.816,11.912-11.906,1.966-14.558.028-19.817,3.53s2.12,10.172,7.911,14.3c8.5,6.052,18.327,3.179,24.578,1.785,8.359-1.865,16.99-4.687,16.559-12.949a25.971,25.971,0,0,1,2.924-13.788S461.351,119.355,458.3,127.068Z" transform="translate(-420.495 261.574)" fill="#ffc9b6"/>
          <path id="Path_36077" data-name="Path 36077" d="M445.149,127.146s-.119,3.922,4.7,6.273,14.456,2.748,17.964.2a59.268,59.268,0,0,1,8.024-4.7s3.57,9.758-8.109,15.08-18.049,9.135-29.927,5.514S418.349,138.14,424.821,130.5C428.006,126.744,445.149,127.146,445.149,127.146Z" transform="translate(-422.448 273.605)" fill="#bbcdff"/>
          <g id="Group_22742" data-name="Group 22742" transform="translate(36.658 178.971)">
            <path id="Path_36078" data-name="Path 36078" d="M511.186,205.914c-4.857-3.343-9.577-4.613-15.465-5.792,14.547-25.3,14.683-50.719,8.988-79.138-1.576-7.871-4.84-26.232-12.949-30.539-3.264-1.734-41.482-.334-45.335-1.519l-.232-.068c-3.434,12-7.571,27.558-7.95,34.155-.986,16.978,12.614,21.1,12.614,21.1a120.7,120.7,0,0,0,2.346,16.61c3.446,16.3,10.456,39.43,20.18,52.719-.748,8.954,5.14,11.305,12.5,13.074,5.718,1.371,26.833,22.736,38.739,32.046.057-.028,12.269-1.445,12.269-13.1C529.648,236.453,528.838,218.047,511.186,205.914Z" transform="translate(-385.641 -83.996)" fill="#bbcdff"/>
            <path id="Path_36079" data-name="Path 36079" d="M481.517,127.017c.38-6.6,4.516-22.152,7.95-34.155C482.486,90.737,472.909,89.145,470.4,88c-22.724,33.786-29.406,77.087-29.825,117.5-5.321,8.427-3.36,19.336-3.264,28.958.187,18.655-4.222,37.362-6.392,55.887-.306,2.59-1.286,6.29-2,10.144,3.984,2.272,16.961,5.35,18.179,4.891,6.375-18.792,18.072-39.158,21.285-58.919a64.527,64.527,0,0,0,.731-16.185c-.453-4.981-2.986-10.285-1.111-15.148,1.547-4.012,6.115-8.432,8.495-12.184,3.672-5.8,7-11.8,10.127-17.913,3.327-6.511,6.727-13.323,9.855-20.31a120.7,120.7,0,0,1-2.346-16.61S480.531,143.995,481.517,127.017Z" transform="translate(-428.917 -88)" fill="#a6c2ff"/>
          </g>
          <path id="Path_36080" data-name="Path 36080" d="M447.776,77.844c10.206-12.938,16.151-11.317,28.51-4.239,15.131,8.665,27.354,14.128,33.979,19.636,11.243,9.345,17.76,28.6,19.67,52.816.289,3.678,2.5,16.19,3.814,19.908,4.647,13.227,2.38,15.4-.924,18.491,1.813,1.785,3.593,9.526-.221,11.764-17.516,10.274-56.442,12.1-69.981-12.8-.839-1.541,1.343-6.925,2.414-8.319-2.817-1.592-4.828-5.5-4.828-9.141-5.191-2.805-9.628-7.05-10.813-14.388-10.4-2.346-21.608-8.189-18.225-20.735,1.649-6.12,6.789-20.066,8.744-27.116C443.781,89.751,444.864,81.539,447.776,77.844Z" transform="translate(-384.603 -1.495)" fill="#ff85c5"/>
          <path id="Path_36081" data-name="Path 36081" d="M438.937,97.275c2.851-.465,10.291-4.267,8.064-18.072-.623-3.865,16.757-14.252,16.751-13.708-.187,12.513,1.78,26.8,7.509,33.293-8.262,8.636-17.709,30.516-31.854,27.519C431.644,124.658,433.316,113.2,438.937,97.275Z" transform="translate(-367.87 -14.154)" fill="#ffb9a4"/>
          <path id="Path_36082" data-name="Path 36082" d="M441.35,70.327s-2.493,12.943-4.12,17.647-5.021,15.425-5.021,15.425,4.59-2.425,7.123-1.162,4.551,4.636,6.721,5.18a13.916,13.916,0,0,0,4.992,0l1.53-5.973s-4.534-1.264-4.715-8.863.725-17.913.725-17.913Z" transform="translate(-376.896 8.493)" fill="#ff61ad"/>
          <path id="Path_36083" data-name="Path 36083" d="M462.508,69.542c-.1.221-3.848,9.027-7.492,15.692C451.146,92.3,443.309,99.316,439.11,102.9c-6.154,5.242-3.876,13.567-3.876,13.567s2.233-5.361,5.151-4.522,5.888,3.468,9.328,6.449c2.533-4.086,8.614-8.211,12.8-15.306,4.063-6.9,10.484-18.82,8.115-27.133S462.508,69.542,462.508,69.542Z" transform="translate(-364.705 3.963)" fill="#ff61ad"/>
          <path id="Path_36084" data-name="Path 36084" d="M437.4,64.338c11.079-2.488,16.87-2.947,26.708,1.037a54.765,54.765,0,0,1,15.731,7.237,1.385,1.385,0,0,1,.612,1.252c-2.533,14.592-7.429,30.063-23.807,36.54-13.47,5.327-21.03-9.452-23.37-19.358C430.542,79.5,429.72,66.06,437.4,64.338Z" transform="translate(-380.997 -28.388)" fill="#ffc9b6"/>
          <path id="Path_36085" data-name="Path 36085" d="M473.773,65.285c-10.58-8.563-23.943-7.514-31.213-1.6-7.707,6.268-13.884,15.573-10.416,25.563,3.621.72,8.761-2.5,11.209-4.585,4.437,4.959,12.291,10.818,21.891,9.464,1.893,6.086,5.939,19.46,11.5,19.1C487.873,90.3,490.774,79.056,473.773,65.285Z" transform="translate(-381.812 -44.115)" fill="#3f2a28"/>
          <path id="Path_36086" data-name="Path 36086" d="M436.809,71.111s2.646-8.965,8.489-4.364-2.426,13.68-2.426,13.68Z" transform="translate(-355.428 -14.341)" fill="#ffc9b6"/>
          <path id="Path_36087" data-name="Path 36087" d="M463.432,140.064s-.754,2.085-6.262,5.752-6.982,8.376-6.982,11.317,6.387,7.067,14.967,6.477,13.578-3.825,17.7-12.07,10.076-26.6,8.342-30.669c-.975-2.272-4.5-3.287-5.31-3.9a14.7,14.7,0,0,1,.209,7.8,66,66,0,0,1-7.066,15.55c-2.941,4.919-8.1,5.735-11.634,3.967S463.432,140.064,463.432,140.064Z" transform="translate(-292.989 226.153)" fill="#bbcdff"/>
        </g>
        <g id="Group_22753" data-name="Group 22753" transform="translate(0 120.878)">
          <path id="Path_36088" data-name="Path 36088" d="M400.711,128.594v36.019c0,19.018,28.981,34.432,64.739,34.432s64.733-15.414,64.733-34.432V128.594Z" transform="translate(-400.711 159.542)" fill="#352221"/>
          <g id="Group_22744" data-name="Group 22744" transform="translate(0 309.268)">
            <path id="Path_36089" data-name="Path 36089" d="M465.45,166.755c-35.758,0-64.739-15.42-64.739-34.432v5.344c0,19.012,28.981,34.432,64.739,34.432s64.733-15.42,64.733-34.432v-5.344C530.183,151.336,501.2,166.755,465.45,166.755Z" transform="translate(-400.711 -132.323)" fill="#778dfd"/>
          </g>
          <path id="Path_36090" data-name="Path 36090" d="M495.247,111.211s-6.715,19.415-16.105,39.459-25.24,27.354-49.211,16.61,25.433-80.272,25.433-80.272Z" transform="translate(-294.967 -34.536)" fill="#352221"/>
          <path id="Path_36091" data-name="Path 36091" d="M465.45,122.8c-35.758,0-64.739,15.42-64.739,34.438s28.981,34.432,64.739,34.432,64.733-15.42,64.733-34.432S501.2,122.8,465.45,122.8Z" transform="translate(-400.711 132.488)" fill="#472f2e"/>
          <path id="Path_36092" data-name="Path 36092" d="M514.717,144.909c-6.381-13.13-28.731-22.838-55.4-22.838s-49.03,9.707-55.411,22.838h-1.881v7.633c0,16.831,25.648,30.477,57.292,30.477S516.6,169.373,516.6,152.542v-7.633Z" transform="translate(-394.579 129.1)" fill="#778dfd"/>
          <path id="Path_36093" data-name="Path 36093" d="M459.318,120.589c-31.644,0-57.292,13.64-57.292,30.471s25.648,30.477,57.292,30.477S516.6,167.891,516.6,151.06,490.956,120.589,459.318,120.589Z" transform="translate(-394.579 122.183)" fill="#8da3ff"/>
          <g id="Group_22745" data-name="Group 22745" transform="translate(26.442 184.868)">
            <path id="Path_36094" data-name="Path 36094" d="M417.419,192.6c-8.234-4.709-12.065-8.874-12.042-13.119.023-4.755,4.925-8.1,9.2-10.489,3.865-2.159,8.489-4.177,12.96-6.132,7.05-3.071,14.337-6.251,18.128-9.8,7.441-6.959,8.483-9.77,11.017-22.418,3.667-18.349,20.316-20.254,20.48-20.271l.357,3.417c-.583.062-14.309,1.717-17.471,17.528-2.629,13.159-3.955,16.695-12.036,24.254-4.222,3.95-11.447,7.106-19.1,10.444-4.4,1.921-8.942,3.9-12.654,5.979-5,2.794-7.429,5.247-7.441,7.509-.011,1.921,1.774,5.236,10.314,10.115Z" transform="translate(-405.377 -110.371)" fill="#f4ebea"/>
          </g>
          <g id="Group_22747" data-name="Group 22747" transform="translate(101.138 313.263)">
            <g id="Group_22746" data-name="Group 22746">
              <path id="Path_36095" data-name="Path 36095" d="M418.558,161.272c0-10.234,6.217-22.124,13.9-26.549a12.753,12.753,0,0,1,6.069-1.694,17,17,0,0,1,8.9,2.493c4.369,2.7,4.959,8.846,4.959,8.846l-15.607,32.063a11.823,11.823,0,0,1-10.195-.363,16.026,16.026,0,0,1-6.035-6.279,22.808,22.808,0,0,1-1.15-2.663A18.91,18.91,0,0,1,418.558,161.272Z" transform="translate(-418.558 -133.028)" fill="#281818"/>
              <path id="Path_36096" data-name="Path 36096" d="M447.462,145.847c0,10.229-6.217,22.112-13.889,26.544s-13.9-.272-13.9-10.5,6.217-22.118,13.9-26.549S447.462,135.613,447.462,145.847Z" transform="translate(-413.336 -130.019)" fill="#3f2a28"/>
              <path id="Path_36097" data-name="Path 36097" d="M444.5,144.908c0,9.033-5.491,19.528-12.263,23.444s-12.269-.244-12.269-9.277,5.491-19.528,12.269-23.438S444.5,135.875,444.5,144.908Z" transform="translate(-411.996 -127.732)" fill="#778dfd"/>
              <path id="Path_36098" data-name="Path 36098" d="M433.7,141.076c0,4.477-2.72,9.673-6.075,11.612s-6.081-.119-6.081-4.6,2.726-9.673,6.081-11.612S433.7,136.6,433.7,141.076Z" transform="translate(-404.632 -120.323)" fill="#fff"/>
            </g>
          </g>
          <rect id="Rectangle_4406" data-name="Rectangle 4406" width="125.702" height="20.814" transform="translate(76.233 248.525) rotate(-66.675)" fill="#352221"/>
          <path id="Path_36099" data-name="Path 36099" d="M487.825,140.5l-48.768,28.253-33.634-19.738,48.769-28.253Z" transform="translate(-378.721 123.005)" fill="#352221"/>
          <path id="Path_36100" data-name="Path 36100" d="M410.863,122.877c-4.352,3-5.44,11.016-5.44,16.287,5.44,0,23.421-6.415,23.421-6.415L425.79,125.5Z" transform="translate(-378.72 132.861)" fill="#352221"/>
          <path id="Path_36101" data-name="Path 36101" d="M483.342,138.179l-8.2,11.645-35.126,13.5-33.633-19.738,43.325-25.141Z" transform="translate(-374.238 112.157)" fill="#543a3a"/>
          <path id="Path_36102" data-name="Path 36102" d="M428.78,121.924s1.536,1.428,1.536,5.894v6.37l-12.24,7.169,3.366-10.569Z" transform="translate(-319.675 128.414)" fill="#472f2e"/>
          <path id="Path_36103" data-name="Path 36103" d="M460.127,121.924s-38.744,22.6-43.329,25.138-5.44,10.943-5.44,16.287l50.305-29.162Z" transform="translate(-351.022 128.414)" fill="#472f2e"/>
          <path id="Path_36104" data-name="Path 36104" d="M409.957,119.789v12.932c0,5.933,9.039,10.739,20.191,10.739s20.2-4.806,20.2-10.739V119.789Z" transform="translate(-357.561 118.45)" fill="#778dfd"/>
          <path id="Path_36105" data-name="Path 36105" d="M430.148,117.894c-11.152,0-20.191,4.806-20.191,10.739s9.039,10.744,20.191,10.744,20.2-4.811,20.2-10.744S441.3,117.894,430.148,117.894Z" transform="translate(-357.561 109.606)" fill="#8da3ff"/>
          <g id="Group_22748" data-name="Group 22748" transform="translate(67.304 194.975)">
            <path id="Path_36106" data-name="Path 36106" d="M437.1,205.237c-11.43,0-22.838-4.579-23.438-4.823a1.718,1.718,0,1,1,1.292-3.185c.176.074,17.647,7.072,30.006,3.593,13.657-3.848,20.486-11.821,18.265-21.342a35.167,35.167,0,0,0-4.466-9.934c-1.9-3.224-3.695-6.268-3.6-9.645.317-11.005,5.82-18.281,9.458-23.093.958-1.264,1.813-2.386,2.442-3.411a24.585,24.585,0,0,0,2.692-18.99,1.72,1.72,0,0,1,3.27-1.065,27.853,27.853,0,0,1-3.038,21.857c-.68,1.105-1.592,2.323-2.624,3.684-3.582,4.732-8.478,11.209-8.761,21.115-.074,2.386,1.405,4.9,3.122,7.809a37.864,37.864,0,0,1,4.851,10.9c2.646,11.345-5.282,21.092-20.684,25.433A32.592,32.592,0,0,1,437.1,205.237Z" transform="translate(-412.588 -112.154)" fill="#f4ebea"/>
          </g>
          <g id="Group_22749" data-name="Group 22749" transform="translate(88.783 47.261)">
            <path id="Path_36107" data-name="Path 36107" d="M503.819,101.738a40.5,40.5,0,0,0-9.43-7.662s-.8-.55-2.085-1.292v-.006c-6.3-4.137-14.887-6.63-14.887-6.63s-28.793,49.858-38.824,74.4c-7.633,18.672-22.214,63.09-22.214,63.09s-.091,22.645,2.029,30.29l.006.011c.062.414.13.856.193,1.247,1.354,8.087,7.033,11.646,13.1,8.206a104.58,104.58,0,0,0,9.322-6.064c14.779-10.625,30.42-45.369,40.45-69.907s30.3-69.969,30.3-69.969S507.792,106.322,503.819,101.738Z" transform="translate(-416.378 -85.811)" fill="#778dfd"/>
            <path id="Path_36108" data-name="Path 36108" d="M497.421,98.955a40.523,40.523,0,0,0-9.429-7.656,36.2,36.2,0,0,0-10.575-4.874c-5.333-1.247-14.927,1.366-14.927,1.366S448.136,122.9,438.1,147.436s-23.387,60.71-21.552,81.745c.465,5.333,1.009,9.554,1.57,12.887,1.349,8.092,7.033,11.651,13.1,8.211a104.385,104.385,0,0,0,9.322-6.069c14.773-10.62,30.414-45.364,40.45-69.9s24.385-59.644,24.385-59.644S501.394,103.545,497.421,98.955Z" transform="translate(-416.378 -86.089)" fill="#8da3ff"/>
          </g>
          <g id="Group_22750" data-name="Group 22750" transform="translate(186.51 78.836)">
            <path id="Path_36109" data-name="Path 36109" d="M469.689,108.929,438.916,91.66l-5.292,8.849,31.566,18.145Z" transform="translate(-433.623 -91.66)" fill="#778dfd"/>
            <path id="Path_36110" data-name="Path 36110" d="M445.959,97.73c0,2.578-1.564,5.571-3.5,6.681s-3.5-.068-3.5-2.641,1.564-5.571,3.5-6.687S445.959,95.151,445.959,97.73Z" transform="translate(-408.688 -77.648)" fill="#8da3ff"/>
          </g>
          <g id="Group_22751" data-name="Group 22751" transform="translate(105.252 31.469)">
            <path id="Path_36111" data-name="Path 36111" d="M455.148,101.117,424.242,83.353l-4.765,9.571,31.171,17.918Z" transform="translate(-418.383 -83.061)" fill="#778dfd"/>
            <path id="Path_36112" data-name="Path 36112" d="M426.277,86.369c0,2.573-1.564,5.565-3.5,6.681s-3.5-.068-3.5-2.641,1.564-5.571,3.5-6.687S426.277,83.79,426.277,86.369Z" transform="translate(-419.284 -83.302)" fill="#778dfd"/>
          </g>
          <path id="Path_36113" data-name="Path 36113" d="M472.938,77.756s-3.644,8.727-4.823,12.552l-1.179,3.825s-15.561,11.991-21.631,17.216-11.022,1.927-17.675,5.888c-7.667,4.562-7.293,7.571-7.39,12.983s7.634,10.472,7.634,10.472,19.4-13.788,27.144-17.437c15.448-7.288,28.283-22.809,28.283-22.809s-4.851-3.808-4.6-9.849a36.612,36.612,0,0,1,2.085-9.22A9.03,9.03,0,0,0,472.938,77.756Z" transform="translate(-309.567 -77.749)" fill="#ffb9a4"/>
          <g id="Group_22752" data-name="Group 22752" transform="translate(118.049 37.641)">
            <path id="Path_36114" data-name="Path 36114" d="M503.519,119.872l.113.856L476.958,105.28,442.787,85.485s-11.515,7.174-17.964,14.87a15.828,15.828,0,0,0-1.32,1.825l-1.955-.164v6.392c0,.147-.006.295,0,.436v.062h.006c.17,4.335,2.885,8.274,5.8,11.578,4.755,5.372,20.531,14.507,29.445,17.052s20.452,4.624,32.16-.028a112.065,112.065,0,0,0,22.175-12.433v-6.2Z" transform="translate(-421.532 -79.285)" fill="#352221"/>
            <path id="Path_36115" data-name="Path 36115" d="M511.146,123.98l-34.177-19.795L442.8,84.391s-11.515,7.169-17.964,14.87-2.221,14.751,2.533,20.129S447.9,133.9,456.811,136.442s20.452,4.624,32.16-.028A112.065,112.065,0,0,0,511.146,123.98Z" transform="translate(-421.542 -84.391)" fill="#472f2e"/>
          </g>
        </g>
        <g id="Group_22754" data-name="Group 22754" transform="translate(184.32 90.215)">
          <path id="Path_36116" data-name="Path 36116" d="M487.805,82.406c-1.048,5.684.731,14.5.272,19.613-9.549,5.361-26.306,22.158-36.62,30.856-7.35,1.519-12.156-.011-17.216,9.86-3.026,5.9,1.264,12.716,6.471,15.029,6.041,2.675,10.745-.816,11.079-4.658-2.6-2.573-3-6.908,4.777-9.362,9.424-.975,30.7-13.17,37.815-18.893,6.795-5.469,9.968-4.613,11.323-8.489,3.559-10.195,10.456-29.984,10.456-29.984S492.016,83.619,487.805,82.406Z" transform="translate(-433.237 -25.35)" fill="#ffc9b6"/>
          <path id="Path_36117" data-name="Path 36117" d="M455.041,72.356c-10.183,5.508-14.881,23.727-12.467,39.379,1.978,12.847,3.276,17.907,3.276,17.907s16.6,2.25,29.644,4.828c8.03-15.89,6.7-26.969,6.42-40.819C481.641,80.25,464.646,71.891,455.041,72.356Z" transform="translate(-392.567 -72.338)" fill="#ff61ad"/>
          <path id="Path_36118" data-name="Path 36118" d="M442.639,83.527a39.474,39.474,0,0,1,15.187-1,110.6,110.6,0,0,1,15.714,3.2l-3.582,8.183s-9.475-2.7-14.564-3.054a48.416,48.416,0,0,0-11.566,1.094Z" transform="translate(-389.357 -26.221)" fill="#ffbbe2"/>
        </g>
        <g id="Group_22755" data-name="Group 22755" transform="translate(163.372 71.221)">
          <path id="Path_36119" data-name="Path 36119" d="M442.545,68.986a60.3,60.3,0,0,0-7.2,11.923c-2.55,6.052-4.177,14.689-4.93,20.18a36.874,36.874,0,0,0-.266,9.107s6.721,3.485,7.82,4.08c1.4-2.641,3.066-9.424,4.868-15.244,2.635-8.529,5.95-21.534,5.95-21.534A76.417,76.417,0,0,1,442.545,68.986Z" transform="translate(-427.42 -68.986)" fill="#ff61ad"/>
          <path id="Path_36120" data-name="Path 36120" d="M432.271,76.258l-2.731,8.455,7.848,3.621,3.185-9.033A15.114,15.114,0,0,0,432.271,76.258Z" transform="translate(-429.54 -35.048)" fill="#ffbbe2"/>
        </g>
      </g>
      <g id="Group_22784" data-name="Group 22784" transform="translate(667.943 62.13)">
        <g id="Group_22777" data-name="Group 22777" transform="translate(258.34 237.006)">
          <g id="Group_22770" data-name="Group 22770">
            <g id="Group_22757" data-name="Group 22757" transform="translate(151.59 78.963)">
              <path id="Path_36121" data-name="Path 36121" d="M520.2,113.581V232.824c0,1.247,1.9,2.255,4.244,2.255s4.25-1.009,4.25-2.255V113.581Z" transform="translate(-520.205 -111.326)" fill="#3d2828"/>
              <path id="Path_36122" data-name="Path 36122" d="M524.449,113.183c-2.34,0-4.244,1.009-4.244,2.255s1.9,2.261,4.244,2.261,4.25-1.014,4.25-2.261S526.8,113.183,524.449,113.183Z" transform="translate(-520.205 -113.183)" fill="#593d3d"/>
            </g>
            <path id="Path_36123" data-name="Path 36123" d="M569.132,180.122h6v-31.7c0-11.045-6.829-23.971-15.222-28.816l-31.718-18.31c-4.25-2.459-8.5-2.709-11.963-.708-3.973,2.3-6.256,7.282-6.256,13.674V260.45h6V114.261c0-4.131,1.218-7.3,3.264-8.478,1.524-.878,3.678-.612,5.962.7l31.718,18.31c6.625,3.831,12.218,14.643,12.218,23.625Z" transform="translate(-416.357 -99.249)" fill="#fff"/>
            <path id="Path_36124" data-name="Path 36124" d="M523.4,113.239c-1.649,0-2.986.714-2.986,1.592s1.337,1.587,2.986,1.587,2.992-.708,2.992-1.587S525.059,113.239,523.4,113.239Z" transform="translate(-367.621 -33.959)" fill="#d8c4c3"/>
            <path id="Path_36125" data-name="Path 36125" d="M543.5,141.132s0,12.377-5.882,16.049c-6.018,3.757-18.231-21.744-18.231-21.744l23,2.686Z" transform="translate(-372.446 69.637)" fill="#2b1b1a"/>
            <g id="Group_22760" data-name="Group 22760" transform="translate(75.302 269.037)">
              <g id="Group_22758" data-name="Group 22758">
                <path id="Path_36126" data-name="Path 36126" d="M506.743,164.144c0-6.313,3.837-13.646,8.574-16.377a7.861,7.861,0,0,1,3.74-1.043,10.486,10.486,0,0,1,5.491,1.541c2.7,1.666,3.06,5.451,3.06,5.451l-9.628,19.778a7.286,7.286,0,0,1-6.285-.227,9.84,9.84,0,0,1-3.723-3.87,13.857,13.857,0,0,1-.708-1.643A11.692,11.692,0,0,1,506.743,164.144Z" transform="translate(-506.743 -146.724)" fill="#281818"/>
                <path id="Path_36127" data-name="Path 36127" d="M524.575,154.627c0,6.313-3.837,13.646-8.568,16.377s-8.574-.17-8.574-6.477,3.842-13.646,8.574-16.377S524.575,148.319,524.575,154.627Z" transform="translate(-503.523 -144.868)" fill="#3f2a28"/>
                <path id="Path_36128" data-name="Path 36128" d="M517.631,152.271c0,3.457-2.1,7.475-4.7,8.971s-4.692-.091-4.692-3.547,2.1-7.475,4.692-8.971S517.631,148.814,517.631,152.271Z" transform="translate(-499.752 -140.019)" fill="#fff"/>
              </g>
              <g id="Group_22759" data-name="Group 22759" transform="translate(11.464 0.742)">
                <path id="Path_36129" data-name="Path 36129" d="M514.354,146.855h-5.588v16.292a2.55,2.55,0,0,0,.873,2.176l-.006.011,1.927,1,1.717-2.017-.487-.193a7.091,7.091,0,0,0,1.564-4.2Z" transform="translate(-508.766 -146.855)" fill="#d8c4c3"/>
                <path id="Path_36130" data-name="Path 36130" d="M509.069,146.855v17.171c0,2.057,1.252,3,2.794,2.114a6.694,6.694,0,0,0,2.794-5.338V146.855Z" transform="translate(-507.352 -146.855)" fill="#eddcda"/>
              </g>
            </g>
            <g id="Group_22763" data-name="Group 22763" transform="translate(3.553 226.807)">
              <g id="Group_22761" data-name="Group 22761">
                <path id="Path_36131" data-name="Path 36131" d="M494.082,156.686c0-6.307,3.836-13.64,8.568-16.372a7.884,7.884,0,0,1,3.746-1.043,10.407,10.407,0,0,1,5.491,1.536c2.7,1.666,3.06,5.457,3.06,5.457l-9.628,19.772a7.275,7.275,0,0,1-6.285-.221,9.875,9.875,0,0,1-3.723-3.87,13.043,13.043,0,0,1-.714-1.643A11.738,11.738,0,0,1,494.082,156.686Z" transform="translate(-494.082 -139.272)" fill="#281818"/>
                <path id="Path_36132" data-name="Path 36132" d="M511.909,147.175c0,6.313-3.836,13.64-8.568,16.372s-8.568-.164-8.568-6.477,3.837-13.64,8.568-16.372S511.909,140.862,511.909,147.175Z" transform="translate(-490.862 -137.417)" fill="#3f2a28"/>
                <path id="Path_36133" data-name="Path 36133" d="M504.969,144.821c0,3.457-2.1,7.469-4.692,8.971s-4.7-.1-4.7-3.553,2.1-7.469,4.7-8.965S504.969,141.365,504.969,144.821Z" transform="translate(-487.095 -132.569)" fill="#fff"/>
              </g>
              <g id="Group_22762" data-name="Group 22762" transform="translate(11.464 0.742)">
                <path id="Path_36134" data-name="Path 36134" d="M501.687,139.4h-5.582V155.69a2.533,2.533,0,0,0,.867,2.176l-.006.017,1.932,1,1.717-2.017-.493-.193a7.093,7.093,0,0,0,1.564-4.211Z" transform="translate(-496.105 -139.403)" fill="#d8c4c3"/>
                <path id="Path_36135" data-name="Path 36135" d="M496.408,139.4v17.171c0,2.057,1.247,3,2.794,2.108a6.678,6.678,0,0,0,2.788-5.333V139.4Z" transform="translate(-494.691 -139.403)" fill="#eddcda"/>
              </g>
            </g>
            <g id="Group_22765" data-name="Group 22765" transform="translate(137.956 210.322)">
              <g id="Group_22764" data-name="Group 22764">
                <path id="Path_36136" data-name="Path 36136" d="M517.8,165.259c0-10.472,6.364-22.634,14.213-27.167a13.043,13.043,0,0,1,6.211-1.728,17.375,17.375,0,0,1,9.112,2.55c4.471,2.765,5.021,9.6,5.021,9.6l-15.918,32.256a12.1,12.1,0,0,1-10.427-.368,16.4,16.4,0,0,1-6.177-6.426,21.567,21.567,0,0,1-1.173-2.726A19.227,19.227,0,0,1,517.8,165.259Z" transform="translate(-517.799 -136.363)" fill="#281818"/>
                <path id="Path_36137" data-name="Path 36137" d="M547.375,149.478c0,10.467-6.364,22.628-14.218,27.162s-14.213-.278-14.213-10.744,6.364-22.634,14.213-27.167S547.375,139.006,547.375,149.478Z" transform="translate(-512.455 -133.288)" fill="#3f2a28"/>
                <path id="Path_36138" data-name="Path 36138" d="M535.861,145.572c0,5.729-3.491,12.394-7.792,14.876s-7.786-.153-7.786-5.888,3.485-12.394,7.786-14.881S535.861,139.837,535.861,145.572Z" transform="translate(-506.206 -125.245)" fill="#fff"/>
                <path id="Path_36139" data-name="Path 36139" d="M531.69,144.126c0,3.922-2.386,8.478-5.327,10.178s-5.327-.108-5.327-4.029,2.385-8.478,5.327-10.178S531.69,140.2,531.69,144.126Z" transform="translate(-502.692 -121.923)" fill="#3f2a28"/>
              </g>
            </g>
            <g id="Group_22766" data-name="Group 22766" transform="translate(0 191.254)">
              <path id="Path_36140" data-name="Path 36140" d="M633.751,178.819,630.475,166.9l-51.161-29.536c-9.135-5.276-23.087-5.854-31-1.286l-41.125,23.744v-.414H493.455v13.737h.045c.317,3.31,2.851,6.727,7.52,9.424L558.2,215.586c9.141,5.276,23.093,5.854,31,1.286l44.587-25.745a25.7,25.7,0,0,1-.652-5.894A36.672,36.672,0,0,1,633.751,178.819Z" transform="translate(-493.455 -132.998)" fill="#352221"/>
            </g>
            <path id="Path_36141" data-name="Path 36141" d="M575.064,128.808a22.253,22.253,0,0,0-6.307,2.306l-69.964,40.53c-7.911,4.573-6.914,12.626,2.227,17.9L558.2,222.561c9.141,5.276,23.093,5.854,31,1.281l44.547-25.467c0-3.57,5.214-30.528,6.1-31.757l-65.135-37.606Z" transform="translate(-493.455 38.7)" fill="#472f2e"/>
            <g id="Group_22767" data-name="Group 22767" transform="translate(31.927 129.608)">
              <path id="Path_36142" data-name="Path 36142" d="M547.326,159.618l7.055-33.44-7.055-4.057-14.932,8.625c-9.957,5.746-12.609,6.092-19.579,20.8-6,12.671-12.133,31.055-13.725,35.917l7.055,4.058Z" transform="translate(-499.089 -122.12)" fill="#593d3d"/>
              <path id="Path_36143" data-name="Path 36143" d="M548.571,160.334v-37.5s-4.981,2.873-14.932,8.619-12.615,6.1-19.579,20.809c-6,12.671-12.138,31.049-13.725,35.917Z" transform="translate(-493.279 -118.779)" fill="#352221"/>
            </g>
            <g id="Group_22768" data-name="Group 22768" transform="translate(27.689 73.625)">
              <path id="Path_36144" data-name="Path 36144" d="M547.059,151.582c-26.906,0-48.718-11.606-48.718-25.92V194.7c0,14.309,21.812,25.915,48.718,25.915s48.724-11.606,48.724-25.915V125.662C595.784,139.977,573.966,151.582,547.059,151.582Z" transform="translate(-498.341 -49.606)" fill="#d8c4c3"/>
              <path id="Path_36145" data-name="Path 36145" d="M498.341,182.262c0,14.315,21.812,25.92,48.718,25.92s48.724-11.606,48.724-25.92V113.534H498.341Z" transform="translate(-498.341 -106.207)" fill="#352221"/>
              <path id="Path_36146" data-name="Path 36146" d="M498.341,180.969c0,14.309,21.812,25.915,48.718,25.915s48.724-11.606,48.724-25.915V112.241H498.341Z" transform="translate(-498.341 -112.241)" fill="#778dfd"/>
            </g>
            <path id="Path_36147" data-name="Path 36147" d="M547.059,159.17c-26.906,0-48.718-11.606-48.718-25.915v4.188c0,14.309,21.812,25.915,48.718,25.915s48.724-11.606,48.724-25.915v-4.188C595.784,147.564,573.966,159.17,547.059,159.17Z" transform="translate(-470.652 59.454)" fill="#ccb5b4"/>
            <path id="Path_36148" data-name="Path 36148" d="M547.059,156.514c-26.906,0-48.718-11.606-48.718-25.915v4.188c0,14.309,21.812,25.915,48.718,25.915s48.724-11.606,48.724-25.915V130.6C595.784,144.908,573.966,156.514,547.059,156.514Z" transform="translate(-470.652 47.059)" fill="#ccb5b4"/>
            <path id="Path_36149" data-name="Path 36149" d="M547.494,156.312l21.676-21.642-7.049-4.052s-4.976,2.873-14.932,8.619-12.609,6.1-19.579,20.809c-6,12.671-12.133,31.049-13.725,35.917l7.055,4.057,14.932-11.572Z" transform="translate(-398.119 47.148)" fill="#593d3d"/>
            <g id="Group_22769" data-name="Group 22769" transform="translate(126.004 43.499)">
              <path id="Path_36150" data-name="Path 36150" d="M515.735,107.39c0-.159-.04-.306-.045-.465v.929C515.7,107.7,515.735,107.548,515.735,107.39Z" transform="translate(-515.69 -106.925)" fill="#352221"/>
            </g>
          </g>
          <g id="Group_22771" data-name="Group 22771" transform="translate(26.454 108.081)">
            <path id="Path_36151" data-name="Path 36151" d="M519.706,152.7l-21.583-12.462V119.093l21.583,12.462Z" transform="translate(-498.123 -114.719)" fill="#3d2828"/>
            <path id="Path_36152" data-name="Path 36152" d="M505.9,118.321l-7.779,4.374,21.583,12.462,7.779-4.374Z" transform="translate(-498.123 -118.321)" fill="#593d3d"/>
            <path id="Path_36153" data-name="Path 36153" d="M501.932,124.895v21.149l7.779-4.374V120.52Z" transform="translate(-480.349 -108.059)" fill="#352221"/>
          </g>
          <path id="Path_36154" data-name="Path 36154" d="M549.594,159.367c5.582-3.219,10.541-2.612,13.765.918V131.333l-14.932,8.625c-9.951,5.746-12.609,6.1-19.574,20.8-6,12.671-12.138,31.055-13.725,35.917L532.6,186.591C534.611,175.41,541.451,164.071,549.594,159.367Z" transform="translate(-392.309 50.484)" fill="#352221"/>
          <path id="Path_36155" data-name="Path 36155" d="M519.512,184.716l-21.584-12.461V134.026l21.584,12.461Z" transform="translate(-472.577 63.055)" fill="#3d2828"/>
          <path id="Path_36156" data-name="Path 36156" d="M505.708,133.255l-7.779,4.374,21.584,12.461,7.779-4.375Z" transform="translate(-472.577 59.452)" fill="#593d3d"/>
          <path id="Path_36157" data-name="Path 36157" d="M501.737,139.828v38.229l7.779-4.374V135.454Z" transform="translate(-454.802 69.714)" fill="#352221"/>
          <g id="Group_22772" data-name="Group 22772" transform="translate(22.27 100.288)">
            <path id="Path_36158" data-name="Path 36158" d="M523.284,282.148a22.191,22.191,0,0,1-6.409-.958c-11.935-3.576-16.525-10.438-18.276-15.567-3.066-8.976-.244-20.826,7.537-31.689a3.527,3.527,0,1,1,5.735,4.109c-4.987,6.959-9.345,17.261-6.6,25.3,1.768,5.18,6.353,8.908,13.629,11.09a15.292,15.292,0,0,0,12.836-1.876c8.585-5.253,15.227-17.686,18.236-34.109,3.729-20.378,1.9-65.1.7-94.688-.419-10.342-.754-18.514-.754-23.291a3.525,3.525,0,0,1,7.05,0c0,4.636.334,12.739.754,23.008,1.218,29.9,3.06,75.092-.81,96.241-3.366,18.395-11.2,32.556-21.489,38.858A23.109,23.109,0,0,1,523.284,282.148Z" transform="translate(-497.385 -116.946)" fill="#593d3d"/>
          </g>
          <g id="Group_22774" data-name="Group 22774" transform="translate(21.665 16.91)">
            <path id="Path_36159" data-name="Path 36159" d="M606.718,136.651v-6.217h-1.479c-5.718-12.836-27.343-22.39-53.218-22.39s-47.494,9.554-53.218,22.39h-1.524v6.732c0,16.077,24.509,29.117,54.742,29.117s54.748-13.04,54.748-29.117C606.769,136.991,606.723,136.826,606.718,136.651Z" transform="translate(-497.278 -75.114)" fill="#352221"/>
            <path id="Path_36160" data-name="Path 36160" d="M552.02,106.648c-30.233,0-54.742,13.04-54.742,29.122s24.509,29.122,54.742,29.122,54.748-13.04,54.748-29.122S582.259,106.648,552.02,106.648Z" transform="translate(-497.278 -81.629)" fill="#472f2e"/>
            <g id="Group_22773" data-name="Group 22773" transform="translate(6.024)">
              <path id="Path_36161" data-name="Path 36161" d="M547.059,134.4c-25.881,0-46.99-10.745-48.565-24.294H498.4c-.011.4-.062.793-.062,1.2v9.707h.153c1.575,13.55,22.685,24.294,48.565,24.294,26.907,0,48.724-11.6,48.724-25.915v-8.087c0-.623-.068-1.224-.1-1.836C594.707,123.32,573.343,134.4,547.059,134.4Z" transform="translate(-498.341 -68.459)" fill="#778dfd"/>
              <path id="Path_36162" data-name="Path 36162" d="M552.885,102.233H541.132a42.946,42.946,0,0,0-42.78,41.646h.091c1.575,13.55,22.685,24.294,48.565,24.294,26.283,0,47.647-11.079,48.628-24.929A42.946,42.946,0,0,0,552.885,102.233Z" transform="translate(-498.29 -102.233)" fill="#352221"/>
            </g>
          </g>
          <ellipse id="Ellipse_346" data-name="Ellipse 346" cx="8.493" cy="4.518" rx="8.493" ry="4.518" transform="translate(75.298 250.863)" fill="#3d2828"/>
          <ellipse id="Ellipse_347" data-name="Ellipse 347" cx="8.493" cy="4.518" rx="8.493" ry="4.518" transform="translate(5.778 213.912)" fill="#3d2828"/>
          <g id="Group_22775" data-name="Group 22775" transform="translate(53.501 35.282)">
            <path id="Path_36163" data-name="Path 36163" d="M553.8,105.475l-50.9,29.383a60.789,60.789,0,0,0,23.574,4.42c20.8,0,37.668-8.971,37.668-20.038C564.138,113.9,560.188,109.068,553.8,105.475Z" transform="translate(-502.896 -105.475)" fill="#472f2e"/>
          </g>
          <path id="Path_36164" data-name="Path 36164" d="M502.9,138.807s0-17.216,22.889-29.383c20.3-10.79,28.011,0,28.011,0Z" transform="translate(-449.395 -74.142)" fill="#3d2828"/>
          <g id="Group_22776" data-name="Group 22776" transform="translate(67.431 41.93)">
            <path id="Path_36165" data-name="Path 36165" d="M508.765,109.73c-1.881,0-3.411.81-3.411,1.813s1.53,1.813,3.411,1.813,3.417-.81,3.417-1.813S510.653,109.73,508.765,109.73Z" transform="translate(-505.354 -92.265)" fill="#d8c4c3"/>
            <path id="Path_36166" data-name="Path 36166" d="M510.541,108.706c-1.881,0-3.411.81-3.411,1.813s1.53,1.813,3.411,1.813,3.417-.81,3.417-1.813S512.428,108.706,510.541,108.706Z" transform="translate(-497.065 -97.043)" fill="#d8c4c3"/>
            <path id="Path_36167" data-name="Path 36167" d="M512.308,107.672c-1.881,0-3.411.816-3.411,1.819s1.53,1.813,3.411,1.813,3.417-.81,3.417-1.813S514.2,107.672,512.308,107.672Z" transform="translate(-488.819 -101.869)" fill="#d8c4c3"/>
            <path id="Path_36168" data-name="Path 36168" d="M514.084,106.648c-1.881,0-3.411.816-3.411,1.819s1.53,1.813,3.411,1.813,3.417-.81,3.417-1.813S515.971,106.648,514.084,106.648Z" transform="translate(-480.531 -106.648)" fill="#d8c4c3"/>
          </g>
          <path id="Path_36169" data-name="Path 36169" d="M537.9,110.85l-24.991,14.429-5.276-3.046L532.627,107.8Z" transform="translate(-427.277 -59.321)" fill="#d8c4c3"/>
        </g>
        <g id="Group_22783" data-name="Group 22783">
          <path id="Path_36170" data-name="Path 36170" d="M529.52,79.2,510.836,67S500.664,72.2,495.36,79.2s-8.823,18.672-6.472,25.756c-5.48,15.584-6.693,42.406-7.435,48.072-3.672,16.247-13.816,66.15-13.652,75.138,2.987,4.1,12.371,11.51,18.735,5.214s23.881-98,23.881-98l-2.556-.992C518.13,109.464,529.52,79.2,529.52,79.2Z" transform="translate(-354.846 -12.765)" fill="#ff61ad"/>
          <path id="Path_36171" data-name="Path 36171" d="M473.837,95.437s-3.474,7.5-5.78,11.861-1.819,13.215,0,18.69,9.526,10.421,16.955,2.72,5.378-28.329,5.378-28.329S479.719,99.846,473.837,95.437Z" transform="translate(-360.882 119.967)" fill="#ffc9b6"/>
          <path id="Path_36172" data-name="Path 36172" d="M498.683,86.708s-16.264,41.482-18.78,58.267-7.582,42.2-10.614,63.35-2.992,41.76-1.581,62.41c.561,8.2,3.559,29.627,1.978,41.266,1.78,7.565,19.517,8.512,21.619-.283,1.3-5.457,14.921-53.762,16.3-68.961s-2.21-26.085-2.21-26.085,22.146-47.421,29.916-66.082,2.482-41.782,2.482-41.782Z" transform="translate(-359.602 79.23)" fill="#2c1d1b"/>
          <path id="Path_36173" data-name="Path 36173" d="M514.6,126.368a68.593,68.593,0,0,0,2.159,10.229c1.564,5.231-.357,12.524-.357,12.524s-1.133,3.213-5.973,4.165a18.838,18.838,0,0,1-8.166-.2,60.456,60.456,0,0,1-10.235,9.469c-5.8,4.1-18.593,7.288-22.073,6.761-5.616-.856-8.625-5.236-8.194-8.058s7.05-10.643,12.473-14.031c3.531-2.2,11.543-9.639,13.946-12.223a66.607,66.607,0,0,0,6.919-9.016Z" transform="translate(-383.202 262.546)" fill="#2c1d1b"/>
          <path id="Path_36174" data-name="Path 36174" d="M517.3,133.566s3,11.141,2.624,17.59-1.915,7.985-3.865,10.155a3.857,3.857,0,0,1-4.233,1.235s-.9,13.295-7.2,18.667-17.732,5.882-22.979,3.933-1.8-11.47,3.344-20.8,11.685-19.375,13.323-27.808C510.881,134.8,517.3,133.566,517.3,133.566Z" transform="translate(-302.427 297.912)" fill="#2c1d1b"/>
          <path id="Path_36175" data-name="Path 36175" d="M527.061,91.39s7.962,11.26,14.309,31.072c4.46,13.924,3.74,47.324,3.74,47.324s1.145,32.891-.98,44.264-1.938,13.674-1.938,13.674a183.638,183.638,0,0,1,7.719,59.508c-1.411,32.245-4.035,55.371-4.035,55.371s-1.8,6.1-10.076,6.936c-7.548.771-13.051-4.46-13.051-4.46s-13.833-68.264-18.956-83.825-7.01-33.492-7.01-33.492L486.31,151.108s-20.718-13.521-10.1-47.63C482.859,82.119,527.061,91.39,527.061,91.39Z" transform="translate(-329.725 91.736)" fill="#3f2a28"/>
          <path id="Path_36176" data-name="Path 36176" d="M563.613,100.981c-10.268-20.418-41.125-35.1-63.316-31.888-10.625,8.461-15.544,14.128-19.381,24.271a65.54,65.54,0,0,0-3.831,29.627c3.349,28.816-3.5,56.862-5.979,67.844a80.278,80.278,0,0,0,44.638,23.274c9.356,1.621,16.185-1.893,25.3-5.276a3.054,3.054,0,0,0,2.108-2.771c3.1-23.285,11.1-42.808,19.166-64.58C566.633,129.842,569.472,112.637,563.613,100.981Z" transform="translate(-339.416 -5.035)" fill="#ff85c5"/>
          <path id="Path_36177" data-name="Path 36177" d="M526.912,73.78a113.159,113.159,0,0,0-11.453,16.842,59.919,59.919,0,0,0-5.865,18.633l29.525,16.015s10.427-18.009,17.941-26.952c8.189-9.747,12.79-13.635,12.79-13.635l5.129,3.7s-9.73,10.88-14.406,19.534c-2.386,4.426-10.648,17.363-12.648,28.08-.765,4.131,1.751,27.5,3.3,39.663,2.749,21.67,21.818,17.845,21.818,17.845s3.638,14.83,8.291,38.773c3.4,17.488,2.987,33.418,2.6,60.013-.3,20.3-1.349,43.947-1.349,43.947s-31.4,9.923-52.532,6.33a135.583,135.583,0,0,1-51.059-20c-10.008-6.755-13.583-14.632-13.583-14.632s10.24-38.66,19.534-75.693c6.3-25.138,7.6-39.357,10.864-56.584a363.469,363.469,0,0,0,4.811-49.291c.215-15.091,7.934-38.484,12.926-46.2,6.88-10.62,12.835-12.524,12.835-12.524Z" transform="translate(-366.031 -9.722)" fill="#bbcdff"/>
          <path id="Path_36178" data-name="Path 36178" d="M482.677,73.126s2.125,14.054-3.026,18.916-5.185,14.864,5.123,18.225c12.5,4.075,21.319-4.936,29.105-11.141-3.366-7.129-5.01-7.084-5.01-27.094C508.869,55.757,482.677,73.126,482.677,73.126Z" transform="translate(-315.376 -21.745)" fill="#f9bba7"/>
          <g id="Group_22780" data-name="Group 22780" transform="translate(0 210.463)">
            <path id="Path_36179" data-name="Path 36179" d="M539.859,178.3h0v-7.48h-9.94l-49.529-28.6c-2.726-1.575-7.526-1.377-10.671.442l-11.691,6.749.011-.323-10.172.754.034,7.055a3.026,3.026,0,0,0,1.8,3.037l57.661,33.293c2.726,1.57,7.526,1.371,10.671-.442l19.251-11.113C538.958,180.7,539.808,179.475,539.859,178.3Z" transform="translate(-447.865 122.878)" fill="#352221"/>
            <path id="Path_36180" data-name="Path 36180" d="M449.706,158.623l57.661,33.293c2.726,1.57,7.526,1.371,10.671-.442l19.251-11.118c3.145-1.813,3.491-4.585.765-6.16l-57.661-33.287c-2.726-1.575-7.526-1.377-10.671.442l-19.251,11.113C447.326,154.277,446.98,157.048,449.706,158.623Z" transform="translate(-447.868 116.755)" fill="#472f2e"/>
            <path id="Path_36181" data-name="Path 36181" d="M460.7,375.276l-5.123-7.163c18.185-12.989,20.327-17.737,32.217-44.077,7.752-17.165,24.742-60.245,39.725-98.253,14.111-35.787,27.439-69.59,31.672-78.328l1-2.051c9.3-19.211,14.434-29.8,27.552-35.248,11.8-4.9,35.611-15.482,35.843-15.59l3.576,8.047c-.238.108-24.146,10.727-36.042,15.669-10.03,4.165-14.1,12.564-23.013,30.964l-.992,2.051c-4.092,8.438-17.358,42.088-31.406,77.71-15.754,39.969-32.052,81.292-39.889,98.65C483.99,353.86,480.811,360.9,460.7,375.276Z" transform="translate(-411.865 -94.565)" fill="#d8c4c3"/>
            <g id="Group_22778" data-name="Group 22778" transform="translate(39.998 162.244)">
              <path id="Path_36182" data-name="Path 36182" d="M456.362,239.911c-2.76-2.375-1.587-4.953,3.916-9.685,4.244-3.655,13.091-10.331,17.811-17.89,5.831-9.322,28.986-66.677,37.413-87.99,1.343-3.389,13.623,1.462,12.28,4.857-3.145,7.956-30.97,78.1-38.5,90.138a70.308,70.308,0,0,1-19.494,20.242C467.18,241.662,461.02,243.917,456.362,239.911Z" transform="translate(-454.926 -123.195)" fill="#593d3d"/>
            </g>
            <path id="Path_36183" data-name="Path 36183" d="M467.387,122.779l-1.275,3.122c-.419,1.139,1.111,2.754,3.417,3.6s4.511.612,4.93-.527l1.219-3.236Z" transform="translate(-363.045 37.107)" fill="#d8c4c3"/>
            <path id="Path_36184" data-name="Path 36184" d="M472.052,149.1v-5.911s-6.863,1.876-10.161,5.168-5.5,10.189-5.5,10.189Z" transform="translate(-408.075 132.354)" fill="#352221"/>
            <g id="Group_22779" data-name="Group 22779" transform="translate(28.048 263.5)">
              <path id="Path_36185" data-name="Path 36185" d="M479.412,159.48a95.345,95.345,0,0,1,9.333-6.375l-20.259-12.042a95.854,95.854,0,0,0-9.339,6.381c-3.151,2.527-6.33,8.988-6.33,8.988l20.271,12.031S476.261,162.008,479.412,159.48Z" transform="translate(-452.817 -141.063)" fill="#593d3d"/>
            </g>
          </g>
          <g id="Group_22781" data-name="Group 22781" transform="translate(185.191 210.75)">
            <path id="Path_36186" data-name="Path 36186" d="M535.613,388.447a34.995,34.995,0,0,1-4.018-.238c-12.552-1.479-21.993-7.322-28.057-17.369-11.906-19.743-9.623-54.7,6.262-95.907,2.862-7.407,6.4-15.9,10.161-24.895,15.176-36.336,34.064-81.558,30.465-108.249-2.488-18.412-8.268-30.749-17.188-36.671-7.679-5.095-16.315-4.262-22.192-2.663a195.64,195.64,0,0,0-25.824,9.43,3.3,3.3,0,1,1-2.749-6,197.3,197.3,0,0,1,26.85-9.809c10.314-2.794,19.857-1.575,27.564,3.542,10.574,7.016,17.329,20.911,20.078,41.289,3.836,28.465-15.431,74.6-30.907,111.672-3.74,8.954-7.276,17.4-10.093,24.725-14.932,38.711-17.46,72.4-6.772,90.121,4.953,8.211,12.75,12.994,23.177,14.224,6.619.771,11.991-.731,16.406-4.624,15.063-13.306,15.312-51.337,15.465-74.061.045-6.545.079-12.2.437-16.06,3.774-40.592,24.288-41.057,25.161-41.057a3.3,3.3,0,0,1,0,6.6c-.1.006-15.414.963-18.582,35.067-.334,3.582-.368,9.1-.414,15.493-.17,25.371-.419,63.713-17.692,78.968A25.694,25.694,0,0,1,535.613,388.447Z" transform="translate(-480.547 -94.616)" fill="#593d3d"/>
          </g>
          <path id="Path_36187" data-name="Path 36187" d="M521.917,97.606c-.765-17.675-20-25.161-20-25.161s-13.793,11.2-11.764,48.781c.754,3.5,6.1,6.857,7.712,10.421-.7,14.5,2.59,21.625,8.1,28.76-4.856,3.2-16.309,21.619-23.308,30.783,10.217,2.924,10.036,14.434,10.036,14.434s26.215-11.844,39.612-28.108c5.48-6.647,3.57-13.017,5.661-20.214C541.944,143.587,522.6,113.366,521.917,97.606Z" transform="translate(-285.508 12.665)" fill="#ff61ad"/>
          <path id="Path_36188" data-name="Path 36188" d="M507.885,68.667s-2.409,8.495-8.869,13.357c-7.792,5.871-22.452,6.829-22.452,10.835,4.256,0,5.083.249,5.083,3.315,0,5.752,1.694,7.072,1.694,7.072s10.58-3.009,18.2-6.188c9.549-3.978,13.9-17.188,13.9-17.188S513.563,68.134,507.885,68.667Z" transform="translate(-313.944 -5.051)" fill="#ff61ad"/>
          <path id="Path_36189" data-name="Path 36189" d="M487.429,68.73s-6.194,6.727-8.846,9.821-1.1,8.8-2.431,11.362a34.936,34.936,0,0,0-1.916,4.3s5.525-1.116,6.6-4.3,6.6,2.567,6.6,2.567l3.9-3.207s-5.893-3.774-3.9-7.8,5.3-9.333,5.3-9.333Z" transform="translate(-324.808 -4.672)" fill="#ff61ad"/>
          <g id="Group_22782" data-name="Group 22782" transform="translate(140.696)">
            <path id="Path_36190" data-name="Path 36190" d="M514.737,66.746c-7.741-8.568-28.153-12.088-35.469.465-5.508,9.447-5.735,26.26-4.245,33.99,3.139,16.224,16.457,25.881,31.8,13.414C521.452,102.725,528.094,81.52,514.737,66.746Z" transform="translate(-465.503 -50.001)" fill="#ffc9b6"/>
            <path id="Path_36191" data-name="Path 36191" d="M538.748,84.876c-1.275-5.508-8.444-12.728-15.057-11.339,1.241-5.967-1.558-13.142-7.962-15.046-13.363-3.973-25.569,4.245-38.433,7.129-3.661.822-4.6,2.822,1.683,6.693-3.462.295-6.7,2.221-6.239,6.154.328,2.743,2.21,4.075,4.539,4.681-3.57,5.157,1.558,9.532,6.409,11.453,8.132,3.23,19.2,3.117,26.493-2.119,1.683,7.537,8.41,17.21,15.335,19.177C532.406,106.62,540.573,92.787,538.748,84.876Z" transform="translate(-472.695 -57.426)" fill="#2c1d1b"/>
            <path id="Path_36192" data-name="Path 36192" d="M479.968,68.419s4.471-6.783,8.455-1.621-4.182,10.166-4.182,10.166Z" transform="translate(-438.753 -22.733)" fill="#ffc9b6"/>
          </g>
          <path id="Path_36193" data-name="Path 36193" d="M475.32,90.532c1.7.091,9.8,6.953,18.644,8.217,9.8,1.405,14.36-.941,18.026-2.607-2.312-.085-8.563.975-17.567-1.383S475.32,90.532,475.32,90.532Z" transform="translate(-319.749 97.076)" fill="#a6c2ff"/>
          <path id="Path_36194" data-name="Path 36194" d="M504.76,93.189c-4.913,3.474-8.88,7.089-13.5,8.818-5.673,2.114-8.036,2.3-11.26,6.823a11.172,11.172,0,0,0-1.32,9.679l7.633-3.479s2.29,4.386-.6,7.792c-1.615,1.9-7.282,6.806-7.282,6.806s7.928,6.013,19.307,1.847,9.118-11.935,12.637-17.29,6.574-6.829,6.574-6.829,1.751-3.015-2.006-8.075C510.144,92.826,508.126,93.189,504.76,93.189Z" transform="translate(-306.705 109.459)" fill="#ffc9b6"/>
          <path id="Path_36195" data-name="Path 36195" d="M472.7,86.379s5.35,7.4,12.683,11.8a49.6,49.6,0,0,0,14.547,5.775S492.331,98,487.571,94.239,472.7,86.379,472.7,86.379Z" transform="translate(-332 77.694)" fill="#a6c2ff"/>
          <path id="Path_36196" data-name="Path 36196" d="M499.375,101.175s-7.7,20.548-14.592,38.637c-3.876,10.161-9.979,24.073-9.979,24.073s8.24-4.539,15.284-20.033C497.76,126.965,499.375,101.175,499.375,101.175Z" transform="translate(-322.162 146.746)" fill="#a6c2ff"/>
        </g>
      </g>
    </g>
  </g>
</svg>
