<svg xmlns="http://www.w3.org/2000/svg" width="1188.275" height="699.34" viewBox="0 0 1188.275 699.34">
  <g id="Group_22617" data-name="Group 22617" transform="translate(-319.385 821.249)">
    <g id="Group_22325" data-name="Group 22325" transform="translate(375.155 -195.43)" opacity="0.86" style="mix-blend-mode: multiply;isolation: isolate">
      <ellipse id="Ellipse_324" data-name="Ellipse 324" cx="176.951" cy="10.021" rx="176.951" ry="10.021" fill="#eeecf1"/>
    </g>
    <g id="Group_22326" data-name="Group 22326" transform="translate(766.779 -205.719)" opacity="0.86" style="mix-blend-mode: multiply;isolation: isolate">
      <ellipse id="Ellipse_325" data-name="Ellipse 325" cx="176.951" cy="10.021" rx="176.951" ry="10.021" fill="#eeecf1"/>
    </g>
    <g id="Group_22327" data-name="Group 22327" transform="translate(1074.196 -141.95)" opacity="0.86" style="mix-blend-mode: multiply;isolation: isolate">
      <ellipse id="Ellipse_326" data-name="Ellipse 326" cx="176.951" cy="10.021" rx="176.951" ry="10.021" fill="#eeecf1"/>
    </g>
    <g id="Group_22331" data-name="Group 22331" transform="translate(691.598 -699.761)">
      <g id="Group_22328" data-name="Group 22328">
        <rect id="Rectangle_4355" data-name="Rectangle 4355" width="504.264" height="274.196" rx="12.993" fill="#eeecf1"/>
      </g>
      <g id="Group_22329" data-name="Group 22329" transform="translate(26.744 22.945)">
        <rect id="Rectangle_4356" data-name="Rectangle 4356" width="452.751" height="228.183" rx="8.808" fill="#fff"/>
      </g>
      <g id="Group_22330" data-name="Group 22330" transform="translate(116.21 12.465)">
        <path id="Path_35347" data-name="Path 35347" d="M760.605-747.221l-171.3,257.3H617L787.084-743.4Z" transform="translate(-589.307 747.221)" fill="#eeecf1"/>
      </g>
    </g>
    <g id="Group_22406" data-name="Group 22406" transform="translate(792.187 -629.36)">
      <g id="Group_22332" data-name="Group 22332" transform="translate(115.072 14.636)">
        <path id="Path_35348" data-name="Path 35348" d="M661.637-696.432s-14.339-2.6-17.163-8.165,24.336-.172,24.336-.172Z" transform="translate(-644.268 707.115)" fill="#40507f"/>
      </g>
      <g id="Group_22333" data-name="Group 22333" transform="translate(20.178 51.212)">
        <path id="Path_35349" data-name="Path 35349" d="M599.549-680.955s2.958-6.666,14.608-5.883,17.386,27.088,17.386,27.088l-12.88,16.488s-32.052-14.32-26.1-27.3S599.549-680.955,599.549-680.955Z" transform="translate(-591.826 686.901)" fill="#f48462"/>
      </g>
      <g id="Group_22334" data-name="Group 22334" transform="translate(70.709 374.466)">
        <path id="Path_35350" data-name="Path 35350" d="M656.962-508.258v20.476l-37.211-1.445v-19.031Z" transform="translate(-619.751 508.258)" fill="#f7b369"/>
      </g>
      <g id="Group_22335" data-name="Group 22335" transform="translate(159.395 372.16)">
        <path id="Path_35351" data-name="Path 35351" d="M703.209-509.533v20.476L668.763-490.5v-19.031Z" transform="translate(-668.763 509.533)" fill="#f7b369"/>
      </g>
      <g id="Group_22336" data-name="Group 22336" transform="translate(58.616 140.811)">
        <path id="Path_35352" data-name="Path 35352" d="M666.142-626.8s-19.517,39.112-35.432,109.641a812.323,812.323,0,0,0-17.643,117.539h62.786s6.985-52.454,8.845-73.207,8.051-48.534,8.051-48.534,8.617,119.714,10.671,121.741,62.16.447,61.515-2.3-19-201.29-20.623-214.38C739.309-656.544,666.142-626.8,666.142-626.8Z" transform="translate(-613.068 637.385)" fill="#a37b90"/>
      </g>
      <g id="Group_22340" data-name="Group 22340" transform="translate(150.844 381.839)">
        <g id="Group_22339" data-name="Group 22339">
          <g id="Group_22338" data-name="Group 22338">
            <g id="Group_22337" data-name="Group 22337">
              <path id="Path_35353" data-name="Path 35353" d="M664.037-463.089c0,3.614,1.172,7.748,3.574,8.789s21.824,3.208,38.819,1.677c16.271-1.475,19.647-2.718,20.847-4.25.586-.78-.557-4.393-1.869-7.891-.083-.174-.139-.376-.223-.55-.671-1.762-1.368-3.469-1.871-4.683a20.242,20.242,0,0,0-1.842-3.324c-1.757-2.515-5.246-7.717-6.14-10.406-1.173-3.585-2.958-11.333-4.158-14.975a6.51,6.51,0,0,0-4.129-4.336s-33.463-2.37-35.862-.289c-2.372,2.054-3.572,19.108-3.572,21.681v2.573c0,2.4-1.592,7.14-2.624,11.072-.279.982-.5,1.907-.669,2.745A11.565,11.565,0,0,0,664.037-463.089Z" transform="translate(-664.037 504.184)" fill="#92b4ea"/>
            </g>
          </g>
        </g>
      </g>
      <g id="Group_22341" data-name="Group 22341" transform="translate(10.114 383.349)">
        <path id="Path_35354" data-name="Path 35354" d="M586.979-456.392c2.233.954,97.2,3.643,99.41,0,.67-1.1,1.144-4.828,1.451-9.511.78-11.043.78-27.463.78-27.463a67.549,67.549,0,0,0,.559-8.21c-.112-2.573-45.8-1.589-45.8-1.589l-29.7,24.253a54.948,54.948,0,0,0-17.051,0c-4.717.78-7.759,6.764-9.266,12.4C586.03-461.51,585.918-456.854,586.979-456.392Z" transform="translate(-586.264 503.349)" fill="#92b4ea"/>
      </g>
      <g id="Group_22342" data-name="Group 22342" transform="translate(114.239 192.444)">
        <path id="Path_35355" data-name="Path 35355" d="M667.866-543.886a.577.577,0,0,1-.575-.534c-.02-.261-1.98-26.05-2.55-37.489-.483-9.779-.572-15.209-.588-16.617l-20.008-9.223a.578.578,0,0,1-.284-.767.586.586,0,0,1,.767-.284l20.341,9.379a.577.577,0,0,1,.336.523c0,.052.026,5.521.592,16.933s2.526,37.2,2.544,37.457a.578.578,0,0,1-.532.621Z" transform="translate(-643.807 608.851)" fill="#f7b369"/>
      </g>
      <g id="Group_22343" data-name="Group 22343" transform="translate(165.607 390.278)">
        <path id="Path_35356" data-name="Path 35356" d="M699.577-489.054a.654.654,0,0,1-.156-.02c-.13-.038-13.191-3.63-19.771-2.468l-6.777,1.205a.58.58,0,0,1-.621-.317.575.575,0,0,1,.138-.684c.5-.44,12.236-10.712,19.275-7.594a.58.58,0,0,1,.293.764.574.574,0,0,1-.764.293c-4.88-2.166-12.858,3.313-16.333,6.013l4.587-.818c6.829-1.212,19.734,2.341,20.283,2.492a.58.58,0,0,1,.4.713A.577.577,0,0,1,699.577-489.054Z" transform="translate(-672.196 499.52)" fill="#fff"/>
      </g>
      <g id="Group_22344" data-name="Group 22344" transform="translate(44.082 392.391)">
        <path id="Path_35357" data-name="Path 35357" d="M605.613-488.195a.578.578,0,0,1-.574-.516.576.576,0,0,1,.512-.635l15.857-1.692-5.222-6.369a.578.578,0,0,1,.081-.814.577.577,0,0,1,.813.081l5.9,7.2a.58.58,0,0,1,.087.584.576.576,0,0,1-.472.355l-16.922,1.8C605.653-488.2,605.633-488.195,605.613-488.195Z" transform="translate(-605.036 498.352)" fill="#fff"/>
      </g>
      <g id="Group_22345" data-name="Group 22345" transform="translate(108.838 57.159)">
        <path id="Path_35358" data-name="Path 35358" d="M665.562-683.237s-2.334.537-2.9,1.4-.481,4.308-.481,4.308L644.33-632.9l-3.507,49.708s9.216,10.255,38.088,11.615,44.2-11.9,44.2-11.9-11.764-80.808-18.862-91.379c-3.154-4.7-16.526-5.9-16.526-5.9s-.425-1.692-.919-1.99C684.164-684.353,665.562-683.237,665.562-683.237Z" transform="translate(-640.823 683.615)" fill="#f7b369"/>
      </g>
      <g id="Group_22349" data-name="Group 22349" transform="translate(121.634 28.586)">
        <g id="Group_22348" data-name="Group 22348">
          <g id="Group_22347" data-name="Group 22347">
            <g id="Group_22346" data-name="Group 22346">
              <path id="Path_35359" data-name="Path 35359" d="M659.035-698.373s-10.584-4.091-11.116,4.015c-.617,9.389,10.569,9.087,10.569,9.087Z" transform="translate(-647.894 699.406)" fill="#f48462"/>
            </g>
          </g>
        </g>
      </g>
      <g id="Group_22350" data-name="Group 22350" transform="translate(123.6 31.2)">
        <path id="Path_35360" data-name="Path 35360" d="M653.233-690.989a.559.559,0,0,1-.478-.264l-3.688-5.845a.565.565,0,0,1,.176-.778.566.566,0,0,1,.778.177l3.688,5.845a.565.565,0,0,1-.175.778A.576.576,0,0,1,653.233-690.989Z" transform="translate(-648.981 697.961)"/>
      </g>
      <g id="Group_22351" data-name="Group 22351" transform="translate(123.178 35.241)">
        <path id="Path_35361" data-name="Path 35361" d="M649.311-694.445a.563.563,0,0,1-.563-.536.564.564,0,0,1,.534-.592l2.975-.154a.554.554,0,0,1,.592.534.564.564,0,0,1-.536.592l-2.973.154Z" transform="translate(-648.747 695.728)"/>
      </g>
      <g id="Group_22355" data-name="Group 22355" transform="translate(133.31 48.238)">
        <g id="Group_22354" data-name="Group 22354">
          <g id="Group_22353" data-name="Group 22353">
            <g id="Group_22352" data-name="Group 22352">
              <path id="Path_35362" data-name="Path 35362" d="M673.388-685.568l.467,10.949a23.086,23.086,0,0,1-9.431,2.7c-7.131.369-9.686-3.78-9.686-3.78l-.391-12.842Z" transform="translate(-654.347 688.545)" fill="#f48462"/>
            </g>
          </g>
        </g>
      </g>
      <g id="Group_22359" data-name="Group 22359" transform="translate(132.345 49.309)">
        <g id="Group_22358" data-name="Group 22358">
          <g id="Group_22357" data-name="Group 22357">
            <g id="Group_22356" data-name="Group 22356">
              <path id="Path_35363" data-name="Path 35363" d="M673.818-686.064s-3.11,8.984-11.253,8.054c-6.565-.749-8.751-9.943-8.751-9.943Z" transform="translate(-653.814 687.953)"/>
            </g>
          </g>
        </g>
      </g>
      <g id="Group_22363" data-name="Group 22363" transform="translate(127.923 11.778)">
        <g id="Group_22362" data-name="Group 22362">
          <g id="Group_22361" data-name="Group 22361">
            <g id="Group_22360" data-name="Group 22360">
              <path id="Path_35364" data-name="Path 35364" d="M652.595-699.7s-3.879,20.2,2.171,28.881c6.487,9.308,16.3,6.121,19.917,3.139a16.767,16.767,0,0,0,5.713-9.4s6.929,1.131,9.028-4.56c2.206-5.979-2.244-10.586-5.7-10.747s-3.831.478-3.831.478l.793-6.33S658.957-720.763,652.595-699.7Z" transform="translate(-651.37 708.694)" fill="#f48462"/>
            </g>
          </g>
        </g>
      </g>
      <g id="Group_22364" data-name="Group 22364" transform="translate(157.308 31.694)">
        <path id="Path_35365" data-name="Path 35365" d="M668.173-691.823a.556.556,0,0,1-.414-.181.565.565,0,0,1,.033-.8l5.153-4.737a.565.565,0,0,1,.8.033.564.564,0,0,1-.033.8l-5.153,4.737A.557.557,0,0,1,668.173-691.823Z" transform="translate(-667.61 697.688)"/>
      </g>
      <g id="Group_22365" data-name="Group 22365" transform="translate(159.026 34.854)">
        <path id="Path_35366" data-name="Path 35366" d="M672.339-692.568a.566.566,0,0,1-.324-.1l-3.215-2.247a.565.565,0,0,1-.139-.785.568.568,0,0,1,.785-.139l3.217,2.247a.569.569,0,0,1,.139.785A.567.567,0,0,1,672.339-692.568Z" transform="translate(-668.559 695.942)"/>
      </g>
      <g id="Group_22366" data-name="Group 22366" transform="translate(146.765 27.876)">
        <path id="Path_35367" data-name="Path 35367" d="M662.346-695.292a.566.566,0,0,1-.563-.577l.08-3.378a.563.563,0,0,1,.563-.55.567.567,0,0,1,.565.577l-.08,3.378A.565.565,0,0,1,662.346-695.292Z" transform="translate(-661.783 699.798)"/>
      </g>
      <g id="Group_22367" data-name="Group 22367" transform="translate(134.602 28.204)">
        <path id="Path_35368" data-name="Path 35368" d="M655.626-695.109a.568.568,0,0,1-.565-.577l.081-3.38a.563.563,0,0,1,.563-.55.567.567,0,0,1,.565.577l-.081,3.38A.564.564,0,0,1,655.626-695.109Z" transform="translate(-655.061 699.617)"/>
      </g>
      <g id="Group_22368" data-name="Group 22368" transform="translate(139.639 30.242)">
        <path id="Path_35369" data-name="Path 35369" d="M658.869-687.872a.566.566,0,0,1-.55-.436,18.753,18.753,0,0,1,.378-9.811.562.562,0,0,1,.72-.338.565.565,0,0,1,.34.722,17.945,17.945,0,0,0-.34,9.172.564.564,0,0,1-.42.677A.545.545,0,0,1,658.869-687.872Z" transform="translate(-657.845 698.49)"/>
      </g>
      <g id="Group_22369" data-name="Group 22369" transform="translate(131.744 23.292)">
        <path id="Path_35370" data-name="Path 35370" d="M654.045-699.741a.559.559,0,0,1-.384-.15.567.567,0,0,1-.029-.8,6.666,6.666,0,0,1,3.8-1.639.536.536,0,0,1,.61.508.559.559,0,0,1-.508.613,5.636,5.636,0,0,0-3.071,1.287A.568.568,0,0,1,654.045-699.741Z" transform="translate(-653.482 702.331)"/>
      </g>
      <g id="Group_22370" data-name="Group 22370" transform="translate(144.975 23.635)">
        <path id="Path_35371" data-name="Path 35371" d="M664.8-699.566a.562.562,0,0,1-.411-.177,5.615,5.615,0,0,0-3.076-1.274.567.567,0,0,1-.514-.612.555.555,0,0,1,.612-.512,6.686,6.686,0,0,1,3.8,1.625.563.563,0,0,1-.027.8A.556.556,0,0,1,664.8-699.566Z" transform="translate(-660.794 702.142)"/>
      </g>
      <g id="Group_22371" data-name="Group 22371" transform="translate(155.005 24.055)">
        <path id="Path_35372" data-name="Path 35372" d="M669.37-697.415s-1.949,6.255-2.758,6.031.2-10.019,2.515-10.493S669.37-697.415,669.37-697.415Z" transform="translate(-666.337 701.91)"/>
      </g>
      <g id="Group_22372" data-name="Group 22372" transform="translate(126.548 3.148)">
        <path id="Path_35373" data-name="Path 35373" d="M681.089-688.945s-6.932-.682-11.532-4.35a17.882,17.882,0,0,1-5.34-7.459s-2.978-.425-7.271,2.13-4.745,10.631-4.745,10.631-3.673-9.795.139-14.585,5.9-4.69,5.9-4.69-.954-8.97,11.387-5.323a21.794,21.794,0,0,1,15.019,14.385s3.051-1,3.623,2.919c1.017,6.97-.109,8.586-.109,8.586a4.585,4.585,0,0,0-4.659-.767l-2.844,1.006Z" transform="translate(-650.61 713.464)"/>
      </g>
      <g id="Group_22373" data-name="Group 22373" transform="translate(130.816 57.537)">
        <path id="Path_35374" data-name="Path 35374" d="M655.73-683.406s2.195,2.6,7.857,3.377,11.154-3.257,11.154-3.257l2.91,7.122-9.663,4.513-15.019-2.968.758-6.8Z" transform="translate(-652.969 683.406)" fill="#f7b369"/>
      </g>
      <g id="Group_22374" data-name="Group 22374" transform="translate(143.025 42.109)">
        <path id="Path_35375" data-name="Path 35375" d="M660.633-687.895a2.735,2.735,0,0,1-.442-.034.563.563,0,0,1-.469-.644.569.569,0,0,1,.643-.469c.233.036,2.231.243,2.874-2.455a.556.556,0,0,1,.679-.418.561.561,0,0,1,.416.679C663.7-688.569,661.835-687.895,660.633-687.895Z" transform="translate(-659.716 691.932)"/>
      </g>
      <g id="Group_22375" data-name="Group 22375" transform="translate(38.653 63.243)">
        <path id="Path_35376" data-name="Path 35376" d="M622-673.035l-19.962,29.223S620.35-612,653.628-612.819c40.2-.986,45.35-39.577,45.35-39.577l-3.324-27.857A41.128,41.128,0,0,0,675.635-672C669.268-666.834,641.512-658.53,622-673.035Z" transform="translate(-602.036 680.253)" fill="#f7b369"/>
      </g>
      <g id="Group_22376" data-name="Group 22376" transform="translate(88.079 77.787)">
        <path id="Path_35377" data-name="Path 35377" d="M631.856-658.276a1.873,1.873,0,0,1-.485-.069,2.25,2.25,0,0,1-1.413-1.147c-1.715-3.071.722-11.374,1.008-12.314a.578.578,0,0,1,.552-.409.579.579,0,0,1,.559.432c.481,1.84,2.778,11.119.818,13.074A1.444,1.444,0,0,1,631.856-658.276Zm-.369-11.009c-.731,3.04-1.491,7.495-.519,9.23a1.123,1.123,0,0,0,.7.593c.26.067.347,0,.414-.065C633-660.446,632.375-665.225,631.486-669.285Z" transform="translate(-629.351 672.215)" fill="#fff"/>
      </g>
      <g id="Group_22377" data-name="Group 22377" transform="translate(109.644 112.651)">
        <path id="Path_35378" data-name="Path 35378" d="M641.845-639.494a.585.585,0,0,1-.575-.619l.87-12.3a.577.577,0,0,1,.617-.536.577.577,0,0,1,.536.617l-.87,12.3A.579.579,0,0,1,641.845-639.494Z" transform="translate(-641.268 652.948)" fill="#fff"/>
      </g>
      <g id="Group_22378" data-name="Group 22378" transform="translate(107.412 60.013)">
        <path id="Path_35379" data-name="Path 35379" d="M640.035-581.175s1.2-45.771,5.506-66.023,6.787-27.962,6.787-27.962,5.423-2.155,7.008-2.555,4.268-.921,4.268-.921-3.537,20.431-4.976,32.209-2.265,22.6-2.265,22.6h27.1s1.207-21.913,1.974-31.89c.861-11.174,2.924-26.325,2.924-26.325a34.367,34.367,0,0,1,5.456.832c3.163.724,6.036,1.513,6.036,1.513s-5.865,50.4,3.72,63.17,18.325,6.186,18.325,6.186l-6.331,41.41-62.3,2.4Z" transform="translate(-640.035 682.038)" fill="#a37b90"/>
      </g>
      <g id="Group_22379" data-name="Group 22379" transform="translate(170.377 171.933)">
        <path id="Path_35380" data-name="Path 35380" d="M690.489-597.723a.567.567,0,0,1-.338-.109c-10.83-7.823-15.247-21.47-15.292-21.605a.579.579,0,0,1,.376-.726.583.583,0,0,1,.726.376c.044.134,4.354,13.425,14.865,21.017a.576.576,0,0,1,.132.805A.579.579,0,0,1,690.489-597.723Z" transform="translate(-674.832 620.186)" fill="#f7b369"/>
      </g>
      <g id="Group_22380" data-name="Group 22380" transform="translate(115.368 122.421)">
        <path id="Path_35381" data-name="Path 35381" d="M669.676-645.385l-24.689-1.006a.578.578,0,0,1-.556-.6.562.562,0,0,1,.6-.554L669.7-646.54a.58.58,0,0,1,.556.6A.58.58,0,0,1,669.676-645.385Z" transform="translate(-644.432 647.549)" fill="#f7b369"/>
      </g>
      <g id="Group_22381" data-name="Group 22381" transform="translate(129.615 62.666)">
        <path id="Path_35382" data-name="Path 35382" d="M662.762-674.076a12.378,12.378,0,0,1-10.381-5.633.578.578,0,0,1,.215-.787.58.58,0,0,1,.789.215,11.1,11.1,0,0,0,11.878,4.81.583.583,0,0,1,.673.463.573.573,0,0,1-.461.673A14.749,14.749,0,0,1,662.762-674.076Z" transform="translate(-652.305 680.572)" fill="#fff"/>
      </g>
      <g id="Group_22382" data-name="Group 22382" transform="translate(127.344)">
        <path id="Path_35383" data-name="Path 35383" d="M651.05-700.213s3.409-17.36,22.052-14.717c18.556,2.631,15.757,24.924,15.757,24.924l-8.745-1.612Z" transform="translate(-651.05 715.203)" fill="#5c69a5"/>
      </g>
      <g id="Group_22383" data-name="Group 22383" transform="translate(121.856 14.639)">
        <path id="Path_35384" data-name="Path 35384" d="M648.017-707.093s6.471-.619,24.083,4.867a114.583,114.583,0,0,1,11.47,4.323s-20.163-5.492-27.577-4.419a10.473,10.473,0,0,0-4.551,1.724Z" transform="translate(-648.017 707.114)" fill="#40507f"/>
      </g>
      <g id="Group_22384" data-name="Group 22384" transform="translate(150.918 213.393)">
        <path id="Path_35385" data-name="Path 35385" d="M725.06-527.371H671.481a1.349,1.349,0,0,1-1.344-1.229l-6.053-67.2a1.349,1.349,0,0,1,1.343-1.471h65.686a1.349,1.349,0,0,1,1.344,1.471L726.4-528.6A1.35,1.35,0,0,1,725.06-527.371Z" transform="translate(-664.078 597.274)" fill="#769cd3"/>
      </g>
      <g id="Group_22385" data-name="Group 22385" transform="translate(145.392 213.393)">
        <path id="Path_35386" data-name="Path 35386" d="M722.006-527.371H668.427a1.347,1.347,0,0,1-1.343-1.229l-6.055-67.2a1.351,1.351,0,0,1,1.345-1.471H728.06A1.351,1.351,0,0,1,729.4-595.8l-6.055,67.2A1.348,1.348,0,0,1,722.006-527.371Z" transform="translate(-661.024 597.274)" fill="#92b4ea"/>
      </g>
      <g id="Group_22386" data-name="Group 22386" transform="translate(155.879 180.461)">
        <path id="Path_35387" data-name="Path 35387" d="M668.371-577.137a1.521,1.521,0,0,1-1.516-1.444c-.042-.852-.93-20.974,9.556-31.181,4.379-4.263,10.063-6.17,16.978-5.618,27.915,2.17,26.916,36.436,26.9,36.782a1.516,1.516,0,0,1-1.578,1.46,1.52,1.52,0,0,1-1.459-1.576c.047-1.292.894-31.693-24.1-33.637-5.971-.46-10.895,1.14-14.624,4.768-9.511,9.259-8.649,28.653-8.638,28.851a1.521,1.521,0,0,1-1.442,1.594C668.423-577.137,668.4-577.137,668.371-577.137Z" transform="translate(-666.82 615.473)" fill="#40507f"/>
      </g>
      <g id="Group_22387" data-name="Group 22387" transform="translate(163.875 164.885)">
        <path id="Path_35388" data-name="Path 35388" d="M693.4-624.075s-18.344,1.29-20.245,19.819l4.86-1.728s-7.929,13.025-6.632,17.051c1.56,4.846,6.022.992,6.022.992s-.5,5.765,1.983,6.453c3.3.914,5.649-3.02,5.649-3.02s-1.093,7.227,4.96,5.58,26.471-25.834,18.518-39.058C704.587-624.517,693.4-624.075,693.4-624.075Z" transform="translate(-671.239 624.081)" fill="#f48462"/>
      </g>
      <g id="Group_22388" data-name="Group 22388" transform="translate(169.476 191.492)">
        <path id="Path_35389" data-name="Path 35389" d="M674.9-599.282a.567.567,0,0,1-.286-.078.564.564,0,0,1-.2-.773l5.282-8.966a.561.561,0,0,1,.773-.2.562.562,0,0,1,.2.771l-5.28,8.968A.569.569,0,0,1,674.9-599.282Z" transform="translate(-674.334 609.377)"/>
      </g>
      <g id="Group_22389" data-name="Group 22389" transform="translate(177.111 196.04)">
        <path id="Path_35390" data-name="Path 35390" d="M679.118-597.884a.559.559,0,0,1-.279-.072.567.567,0,0,1-.214-.769l4.426-7.849a.56.56,0,0,1,.767-.215.566.566,0,0,1,.214.769l-4.424,7.851A.56.56,0,0,1,679.118-597.884Z" transform="translate(-678.553 606.863)"/>
      </g>
      <g id="Group_22390" data-name="Group 22390" transform="translate(170.594 176.028)">
        <path id="Path_35391" data-name="Path 35391" d="M675.515-611.416a.545.545,0,0,1-.219-.045.566.566,0,0,1-.3-.738l2.271-5.38a.566.566,0,0,1,.738-.3.565.565,0,0,1,.3.738l-2.271,5.38A.565.565,0,0,1,675.515-611.416Z" transform="translate(-674.952 617.923)"/>
      </g>
      <g id="Group_22391" data-name="Group 22391" transform="translate(167.952 62.839)">
        <path id="Path_35392" data-name="Path 35392" d="M673.492-680.476s40.388,7.622,55.171,45.366c15.5,39.565-16.81,74.958-16.81,74.958L676.13-576.437l14.29-33.55-5.857-3.641Z" transform="translate(-673.492 680.476)" fill="#f7b369"/>
      </g>
      <g id="Group_22392" data-name="Group 22392" transform="translate(184.591 118.036)">
        <path id="Path_35393" data-name="Path 35393" d="M683.264-635.4a.583.583,0,0,1-.2-.034.575.575,0,0,1-.375-.615c.293-2.334,1.943-13.919,5.675-13.919a1.351,1.351,0,0,1,1.243.7c1.245,2.392-4.663,11.749-5.859,13.6A.579.579,0,0,1,683.264-635.4Zm5.1-13.412c-1.672,0-3.237,5.273-4.1,10.146,2.709-4.513,4.858-9.046,4.328-10.064-.018-.033-.042-.076-.2-.081Z" transform="translate(-682.687 649.972)" fill="#fff"/>
      </g>
      <g id="Group_22400" data-name="Group 22400" transform="translate(0 20.256)">
        <g id="Group_22393" data-name="Group 22393" transform="translate(1.086)">
          <path id="Path_35394" data-name="Path 35394" d="M621.728-702.653l-.456,4.285a1.229,1.229,0,0,1-.82,1.013l-34.5,12.152a1.233,1.233,0,0,1-1.274-.277l-3.04-3.053a1.213,1.213,0,0,1,.451-2.012l5.418-1.909,3.094,3.34-1.388-3.941,17.444-6.143,1.261,3.583.23-4.107,11.968-4.216A1.213,1.213,0,0,1,621.728-702.653Z" transform="translate(-581.275 704.009)" fill="#efa459"/>
        </g>
        <g id="Group_22394" data-name="Group 22394" transform="translate(0 0.382)">
          <path id="Path_35395" data-name="Path 35395" d="M621.128-702.443l-.456,4.287a1.236,1.236,0,0,1-.82,1.013l-34.5,12.151a1.228,1.228,0,0,1-1.274-.277l-3.04-3.053a1.213,1.213,0,0,1,.451-2.012l5.418-1.907L590-688.9l-1.388-3.941,17.444-6.145,1.261,3.583.228-4.108,11.97-4.216A1.214,1.214,0,0,1,621.128-702.443Z" transform="translate(-580.675 703.798)" fill="#f7b369"/>
        </g>
        <g id="Group_22395" data-name="Group 22395" transform="translate(4.282 4.809)">
          <path id="Path_35396" data-name="Path 35396" d="M583.589-686.795l22.311,8.128a.833.833,0,0,0,.973-.313l14.415-21.062a.836.836,0,0,0-.966-1.259L583.6-688.365A.834.834,0,0,0,583.589-686.795Z" transform="translate(-583.041 701.352)" fill="#40507f"/>
        </g>
        <g id="Group_22396" data-name="Group 22396" transform="translate(21.173 15.677)">
          <path id="Path_35397" data-name="Path 35397" d="M612.659-643.039A2.871,2.871,0,0,1,609-644.793l-16.459-46.727a2.872,2.872,0,0,1,1.753-3.662,2.872,2.872,0,0,1,3.662,1.755L614.412-646.7A2.87,2.87,0,0,1,612.659-643.039Z" transform="translate(-592.375 695.345)" fill="#40507f"/>
        </g>
        <g id="Group_22397" data-name="Group 22397" transform="translate(19.978 16.099)">
          <path id="Path_35398" data-name="Path 35398" d="M612-642.808a2.869,2.869,0,0,1-3.661-1.754l-16.459-46.727a2.87,2.87,0,0,1,1.753-3.661,2.87,2.87,0,0,1,3.66,1.753l16.459,46.727A2.87,2.87,0,0,1,612-642.808Z" transform="translate(-591.716 695.112)" fill="#5c69a5"/>
        </g>
        <g id="Group_22398" data-name="Group 22398" transform="translate(2.665 5.379)">
          <path id="Path_35399" data-name="Path 35399" d="M582.7-686.48,605-678.352a.836.836,0,0,0,.975-.313l14.413-21.062a.835.835,0,0,0-.964-1.259L582.7-688.051A.834.834,0,0,0,582.7-686.48Z" transform="translate(-582.147 701.037)" fill="#5c69a5"/>
        </g>
        <g id="Group_22399" data-name="Group 22399" transform="translate(9.912 18.626)">
          <path id="Path_35400" data-name="Path 35400" d="M596.321-689.221a.6.6,0,0,1-.192-.033l-9.589-3.337a.581.581,0,0,1-.357-.736.579.579,0,0,1,.738-.357l9.589,3.337a.581.581,0,0,1,.356.736A.58.58,0,0,1,596.321-689.221Z" transform="translate(-586.153 693.716)" fill="#fff"/>
        </g>
      </g>
      <g id="Group_22401" data-name="Group 22401" transform="translate(42.376 65.092)">
        <path id="Path_35401" data-name="Path 35401" d="M610.5-663.19a.561.561,0,0,1-.342-.116c-7.271-5.568-6-15.041-5.941-15.441a.564.564,0,0,1,.637-.478.564.564,0,0,1,.479.637c-.015.092-1.229,9.227,5.51,14.384a.565.565,0,0,1,.1.791A.553.553,0,0,1,610.5-663.19Z" transform="translate(-604.094 679.231)"/>
      </g>
      <g id="Group_22402" data-name="Group 22402" transform="translate(13.247 54.539)">
        <path id="Path_35402" data-name="Path 35402" d="M594.71-660.955a9.214,9.214,0,0,0,4.077,1.6c4.947.773,19.193.483,21.063-4.471,1.791-4.748-6.127-4.833-6.127-4.833s6.393-1.207,4.08-5.284c-1.933-3.4-6.1-2.817-6.1-2.817s6.53-1.893,1.9-5.866-19.275-2.412-23.8-.047,1.645,6.809,1.645,6.809-4.542,3.192-3.217,5.924c1.4,2.893,5.81,2.113,5.81,2.113S590.421-664.115,594.71-660.955Z" transform="translate(-587.995 685.063)" fill="#f48462"/>
      </g>
      <g id="Group_22403" data-name="Group 22403" transform="translate(20.35 70.373)">
        <path id="Path_35403" data-name="Path 35403" d="M592.486-674.7a.564.564,0,0,1-.564-.548.564.564,0,0,1,.548-.579l18.059-.483a.567.567,0,0,1,.579.548.564.564,0,0,1-.548.579L592.5-674.7Z" transform="translate(-591.921 676.313)"/>
      </g>
      <g id="Group_22404" data-name="Group 22404" transform="translate(18.282 62.273)">
        <path id="Path_35404" data-name="Path 35404" d="M591.341-678.953a.562.562,0,0,1-.563-.541.564.564,0,0,1,.543-.586l18.111-.708a.556.556,0,0,1,.586.541.566.566,0,0,1-.543.586l-18.113.707Z" transform="translate(-590.778 680.789)"/>
      </g>
      <g id="Group_22405" data-name="Group 22405" transform="translate(154.255 229.948)">
        <path id="Path_35405" data-name="Path 35405" d="M669.076-549.48a.577.577,0,0,1-.575-.539L665.924-587.5a.575.575,0,0,1,.537-.613.555.555,0,0,1,.615.536l2.577,37.484a.575.575,0,0,1-.537.615Z" transform="translate(-665.922 588.125)" fill="#fff"/>
      </g>
    </g>
    <g id="Group_22407" data-name="Group 22407" transform="translate(319.385 -821.249)">
      <rect id="Rectangle_4357" data-name="Rectangle 4357" width="8.62" height="106.673" transform="translate(46.783)" fill="#eeecf1"/>
      <path id="Path_35406" data-name="Path 35406" d="M421.569-718.2H319.385v-11.722a51.092,51.092,0,0,1,51.093-51.093,51.092,51.092,0,0,1,51.091,51.093Z" transform="translate(-319.385 853.821)" fill="#eeecf1"/>
      <ellipse id="Ellipse_327" data-name="Ellipse 327" cx="51.093" cy="3.82" rx="51.093" ry="3.82" transform="translate(0 131.805)" fill="#bbafc0"/>
    </g>
    <g id="Group_22411" data-name="Group 22411" transform="translate(570.776 -719.176)">
      <g id="Group_22408" data-name="Group 22408">
        <circle id="Ellipse_328" data-name="Ellipse 328" cx="40.212" cy="40.212" r="40.212" fill="#ddd7e0"/>
      </g>
      <g id="Group_22409" data-name="Group 22409" transform="translate(8.67 8.67)">
        <circle id="Ellipse_329" data-name="Ellipse 329" cx="31.541" cy="31.541" r="31.541" fill="#fff"/>
      </g>
      <g id="Group_22410" data-name="Group 22410" transform="translate(33.902 25.267)">
        <path id="Path_35407" data-name="Path 35407" d="M482.13-732.647a1.272,1.272,0,0,1-.469-.089,1.279,1.279,0,0,1-.769-.883L477.085-749.3a1.273,1.273,0,0,1,.936-1.536,1.278,1.278,0,0,1,1.538.936l3.382,13.937,21.115-13.8a1.274,1.274,0,0,1,1.762.369,1.273,1.273,0,0,1-.369,1.761l-22.622,14.789A1.288,1.288,0,0,1,482.13-732.647Z" transform="translate(-477.049 750.876)" fill="#a89fb3"/>
      </g>
    </g>
    <g id="Group_22432" data-name="Group 22432" transform="translate(393.679 -537.386)">
      <g id="Group_22412" data-name="Group 22412" transform="translate(333.367 128.012)">
        <path id="Path_35408" data-name="Path 35408" d="M638.836-583.312h-89a5.159,5.159,0,0,1-5.159-5.159,5.159,5.159,0,0,1,5.159-5.159h89A5.159,5.159,0,0,1,644-588.471,5.16,5.16,0,0,1,638.836-583.312Z" transform="translate(-544.675 593.63)" fill="#ddd7e0"/>
      </g>
      <g id="Group_22413" data-name="Group 22413" transform="translate(315.54 19.148)">
        <rect id="Rectangle_4358" data-name="Rectangle 4358" width="158.73" height="80.348" rx="4.602" fill="#ddd7e0"/>
      </g>
      <g id="Group_22414" data-name="Group 22414" transform="translate(383.203 71.313)">
        <rect id="Rectangle_4359" data-name="Rectangle 4359" width="23.404" height="68.443" fill="#a89fb3"/>
      </g>
      <g id="Group_22415" data-name="Group 22415" transform="translate(20.066)">
        <path id="Path_35409" data-name="Path 35409" d="M416.514-578.826s-49.5-52.778-44.647-55.244,24.873,20.614,24.873,20.614S373.938-652,377.4-653.623s41.448,61.832,41.448,61.832-12.283-71.269-8.159-72.566,17.715,70.967,17.715,70.967,9-58.291,13.745-55.318-3.865,53.919-3.865,53.919,20.207-41.942,19.51-35.624-8.306,37.015-8.306,37.015,33.521-53.536,32.69-44.892-30.286,60.52-30.286,60.52Z" transform="translate(-371.532 664.375)" fill="#90a38d"/>
      </g>
      <g id="Group_22417" data-name="Group 22417" transform="translate(59.259 79.586)">
        <g id="Group_22416" data-name="Group 22416">
          <path id="Path_35410" data-name="Path 35410" d="M438.956-560.239l-36.349.014a3.752,3.752,0,0,1-3.816-3.245l-5.581-52.953a3.693,3.693,0,0,1,3.813-3.952l47.472-.018a3.694,3.694,0,0,1,3.816,3.95l-5.541,52.957A3.75,3.75,0,0,1,438.956-560.239Z" transform="translate(-393.192 620.392)" fill="#cbc4ce"/>
        </g>
      </g>
      <g id="Group_22419" data-name="Group 22419" transform="translate(51.212 79.588)">
        <g id="Group_22418" data-name="Group 22418">
          <path id="Path_35411" data-name="Path 35411" d="M434.511-560.236l-36.351.013a3.748,3.748,0,0,1-3.814-3.243l-5.582-52.953a3.7,3.7,0,0,1,3.813-3.954l47.474-.018a3.692,3.692,0,0,1,3.814,3.95l-5.541,52.959A3.752,3.752,0,0,1,434.511-560.236Z" transform="translate(-388.745 620.391)" fill="#ddd7e0"/>
        </g>
      </g>
      <g id="Group_22420" data-name="Group 22420" transform="translate(251.543 199.018)">
        <rect id="Rectangle_4360" data-name="Rectangle 4360" width="17.986" height="122.678" fill="#ddd7e0"/>
      </g>
      <g id="Group_22421" data-name="Group 22421" transform="translate(217.308 317.739)">
        <path id="Path_35412" data-name="Path 35412" d="M561.663-477.473H486.191a5.653,5.653,0,0,1-5.655-5.653,5.654,5.654,0,0,1,5.655-5.653h75.472a5.653,5.653,0,0,1,5.653,5.653A5.651,5.651,0,0,1,561.663-477.473Z" transform="translate(-480.536 488.779)" fill="#ddd7e0"/>
      </g>
      <g id="Group_22422" data-name="Group 22422" transform="translate(208.749 325.552)">
        <circle id="Ellipse_330" data-name="Ellipse 330" cx="12.158" cy="12.158" r="12.158" fill="#ddd7e0"/>
      </g>
      <g id="Group_22423" data-name="Group 22423" transform="translate(248.378 325.552)">
        <circle id="Ellipse_331" data-name="Ellipse 331" cx="12.158" cy="12.158" r="12.158" fill="#ddd7e0"/>
      </g>
      <g id="Group_22424" data-name="Group 22424" transform="translate(287.843 325.552)">
        <circle id="Ellipse_332" data-name="Ellipse 332" cx="12.158" cy="12.158" r="12.158" fill="#ddd7e0"/>
      </g>
      <g id="Group_22425" data-name="Group 22425" transform="translate(179.609 82.359)">
        <path id="Path_35413" data-name="Path 35413" d="M513.294-618.8A49.583,49.583,0,0,0,464.8-588.126c-4.359,10.763-6.683,24.365-3.867,40.967,9.748,57.506,58.885,80.383,108.617,66.8,14.21-3.883,29.553-20.422,32.517-36.02,9.789-51.507-29.459-99.47-81.824-102.072Z" transform="translate(-459.702 618.859)" fill="#eeecf1"/>
      </g>
      <g id="Group_22426" data-name="Group 22426" transform="translate(187.341 150.069)">
        <path id="Path_35414" data-name="Path 35414" d="M479.537-545.758a.632.632,0,0,1-.432-.17c-12.677-11.724-15.033-33.876-15.126-34.813a.636.636,0,0,1,.568-.7.648.648,0,0,1,.7.57c.022.224,2.4,22.613,14.724,34.008a.633.633,0,0,1,.034.9A.63.63,0,0,1,479.537-545.758Z" transform="translate(-463.975 581.44)" fill="#fff"/>
      </g>
      <g id="Group_22427" data-name="Group 22427" transform="translate(316.619 144.607)">
        <path id="Path_35415" data-name="Path 35415" d="M665.769-384.559a2.815,2.815,0,0,1-2.358-1.272l-127.53-194.26a2.82,2.82,0,0,1,.811-3.9,2.82,2.82,0,0,1,3.9.809l127.528,194.26a2.82,2.82,0,0,1-.809,3.907A2.827,2.827,0,0,1,665.769-384.559Z" transform="translate(-535.419 584.459)" fill="#bdb2c2"/>
      </g>
      <g id="Group_22428" data-name="Group 22428" transform="translate(44.978 144.608)">
        <path id="Path_35416" data-name="Path 35416" d="M388.116-387.885a2.828,2.828,0,0,1-1.545-.463,2.823,2.823,0,0,1-.809-3.907L511.107-583.187a2.821,2.821,0,0,1,3.9-.809,2.82,2.82,0,0,1,.811,3.9L390.478-389.159A2.821,2.821,0,0,1,388.116-387.885Z" transform="translate(-385.299 584.459)" fill="#bdb2c2"/>
      </g>
      <g id="Group_22429" data-name="Group 22429" transform="translate(0 138.33)">
        <rect id="Rectangle_4361" data-name="Rectangle 4361" width="496.757" height="11.802" rx="2.806" fill="#bdb2c2"/>
      </g>
      <g id="Group_22430" data-name="Group 22430" transform="translate(371.784 66.086)">
        <rect id="Rectangle_4362" data-name="Rectangle 4362" width="46.243" height="11.862" rx="3.06" fill="#a89fb3"/>
      </g>
      <g id="Group_22431" data-name="Group 22431" transform="translate(334.741 23.6)">
        <path id="Path_35417" data-name="Path 35417" d="M593.722-650.06H546.071a.636.636,0,0,1-.637-.637.635.635,0,0,1,.637-.635h47.651a.635.635,0,0,1,.635.635A.635.635,0,0,1,593.722-650.06Z" transform="translate(-545.434 651.332)" fill="#fff"/>
      </g>
    </g>
    <g id="Group_22460" data-name="Group 22460" transform="translate(988.137 -518.526)">
      <g id="Group_22433" data-name="Group 22433" transform="translate(426.902 176.432)">
        <rect id="Rectangle_4363" data-name="Rectangle 4363" width="17.986" height="122.679" fill="#ddd7e0"/>
      </g>
      <g id="Group_22434" data-name="Group 22434" transform="translate(392.668 295.154)">
        <path id="Path_35418" data-name="Path 35418" d="M987.094-479.532H911.622a5.654,5.654,0,0,1-5.653-5.653,5.653,5.653,0,0,1,5.653-5.653h75.472a5.653,5.653,0,0,1,5.655,5.653A5.654,5.654,0,0,1,987.094-479.532Z" transform="translate(-905.969 490.838)" fill="#ddd7e0"/>
      </g>
      <g id="Group_22435" data-name="Group 22435" transform="translate(384.107 302.967)">
        <path id="Path_35419" data-name="Path 35419" d="M925.554-474.362A12.159,12.159,0,0,1,913.4-462.2a12.159,12.159,0,0,1-12.158-12.158A12.158,12.158,0,0,1,913.4-486.52,12.158,12.158,0,0,1,925.554-474.362Z" transform="translate(-901.238 486.52)" fill="#ddd7e0"/>
      </g>
      <g id="Group_22436" data-name="Group 22436" transform="translate(423.737 302.967)">
        <path id="Path_35420" data-name="Path 35420" d="M947.455-474.362A12.159,12.159,0,0,1,935.3-462.2a12.159,12.159,0,0,1-12.158-12.158A12.158,12.158,0,0,1,935.3-486.52,12.158,12.158,0,0,1,947.455-474.362Z" transform="translate(-923.139 486.52)" fill="#ddd7e0"/>
      </g>
      <g id="Group_22437" data-name="Group 22437" transform="translate(463.202 302.967)">
        <path id="Path_35421" data-name="Path 35421" d="M969.265-474.362A12.159,12.159,0,0,1,957.107-462.2a12.159,12.159,0,0,1-12.158-12.158,12.158,12.158,0,0,1,12.158-12.158A12.158,12.158,0,0,1,969.265-474.362Z" transform="translate(-944.949 486.52)" fill="#ddd7e0"/>
      </g>
      <g id="Group_22438" data-name="Group 22438" transform="translate(71.934 176.962)">
        <rect id="Rectangle_4364" data-name="Rectangle 4364" width="17.986" height="122.678" fill="#ddd7e0"/>
      </g>
      <g id="Group_22439" data-name="Group 22439" transform="translate(37.7 295.682)">
        <path id="Path_35422" data-name="Path 35422" d="M790.926-479.238H715.454a5.654,5.654,0,0,1-5.655-5.653,5.654,5.654,0,0,1,5.655-5.655h75.472a5.654,5.654,0,0,1,5.653,5.655A5.654,5.654,0,0,1,790.926-479.238Z" transform="translate(-709.799 490.546)" fill="#ddd7e0"/>
      </g>
      <g id="Group_22440" data-name="Group 22440" transform="translate(29.141 303.496)">
        <path id="Path_35423" data-name="Path 35423" d="M729.385-474.07a12.158,12.158,0,0,1-12.158,12.158,12.158,12.158,0,0,1-12.158-12.158,12.158,12.158,0,0,1,12.158-12.158A12.157,12.157,0,0,1,729.385-474.07Z" transform="translate(-705.069 486.228)" fill="#ddd7e0"/>
      </g>
      <g id="Group_22441" data-name="Group 22441" transform="translate(68.77 303.496)">
        <path id="Path_35424" data-name="Path 35424" d="M751.284-474.07a12.157,12.157,0,0,1-12.158,12.158A12.157,12.157,0,0,1,726.97-474.07a12.157,12.157,0,0,1,12.156-12.158A12.157,12.157,0,0,1,751.284-474.07Z" transform="translate(-726.97 486.228)" fill="#ddd7e0"/>
      </g>
      <g id="Group_22442" data-name="Group 22442" transform="translate(108.234 303.496)">
        <path id="Path_35425" data-name="Path 35425" d="M773.095-474.07a12.157,12.157,0,0,1-12.158,12.158,12.159,12.159,0,0,1-12.158-12.158,12.159,12.159,0,0,1,12.158-12.158A12.157,12.157,0,0,1,773.095-474.07Z" transform="translate(-748.779 486.228)" fill="#ddd7e0"/>
      </g>
      <g id="Group_22443" data-name="Group 22443" transform="translate(375.655 63.113)">
        <path id="Path_35426" data-name="Path 35426" d="M986.842-619.011a49.583,49.583,0,0,1,48.495,30.671c4.359,10.761,6.682,24.363,3.867,40.967-9.748,57.5-58.885,80.383-108.617,66.8-14.21-3.881-29.552-20.42-32.516-36.018-9.79-51.509,29.458-99.47,81.823-102.072Z" transform="translate(-896.567 619.073)" fill="#eeecf1"/>
      </g>
      <g id="Group_22444" data-name="Group 22444" transform="translate(495.595 130.82)">
        <path id="Path_35427" data-name="Path 35427" d="M963.487-545.971a.632.632,0,0,1-.467-.2.635.635,0,0,1,.035-.9c12.321-11.4,14.7-33.785,14.724-34.009a.646.646,0,0,1,.7-.57.636.636,0,0,1,.568.7c-.092.937-2.447,23.089-15.126,34.815A.628.628,0,0,1,963.487-545.971Z" transform="translate(-962.85 581.655)" fill="#fff"/>
      </g>
      <g id="Group_22445" data-name="Group 22445" transform="translate(0 60.304)">
        <path id="Path_35428" data-name="Path 35428" d="M742.555-620.563a49.582,49.582,0,0,0-48.493,30.669c-4.359,10.763-6.682,24.365-3.869,40.969,9.75,57.5,58.886,80.383,108.619,66.8,14.21-3.881,29.552-20.42,32.516-36.018,9.79-51.509-29.458-99.471-81.823-102.072Z" transform="translate(-688.965 620.625)" fill="#eeecf1"/>
      </g>
      <g id="Group_22446" data-name="Group 22446" transform="translate(7.733 128.015)">
        <path id="Path_35429" data-name="Path 35429" d="M708.8-547.526a.634.634,0,0,1-.43-.168c-12.679-11.726-15.033-33.877-15.126-34.815a.633.633,0,0,1,.568-.695.643.643,0,0,1,.7.568c.024.224,2.4,22.613,14.724,34.008a.635.635,0,0,1,.034.9A.631.631,0,0,1,708.8-547.526Z" transform="translate(-693.238 583.206)" fill="#fff"/>
      </g>
      <g id="Group_22447" data-name="Group 22447" transform="translate(344.69 121.476)">
        <path id="Path_35430" data-name="Path 35430" d="M1017.576-375.086a2.816,2.816,0,0,1-2.36-1.272l-135.3-206.1a2.82,2.82,0,0,1,.811-3.9,2.825,2.825,0,0,1,3.9.811l135.3,206.094a2.818,2.818,0,0,1-.809,3.9A2.809,2.809,0,0,1,1017.576-375.086Z" transform="translate(-879.454 586.819)" fill="#bdb2c2"/>
      </g>
      <g id="Group_22448" data-name="Group 22448" transform="translate(41.158 121.475)">
        <path id="Path_35431" data-name="Path 35431" d="M714.529-375.086a2.805,2.805,0,0,1-1.545-.463,2.82,2.82,0,0,1-.811-3.9l135.3-206.094a2.821,2.821,0,0,1,3.9-.811,2.818,2.818,0,0,1,.809,3.9l-135.3,206.1A2.816,2.816,0,0,1,714.529-375.086Z" transform="translate(-711.71 586.82)" fill="#bdb2c2"/>
      </g>
      <g id="Group_22449" data-name="Group 22449" transform="translate(82.331 108.863)">
        <path id="Path_35432" data-name="Path 35432" d="M828.625-583.47h-89a5.16,5.16,0,0,1-5.159-5.161,5.159,5.159,0,0,1,5.159-5.159h89a5.161,5.161,0,0,1,5.161,5.159A5.161,5.161,0,0,1,828.625-583.47Z" transform="translate(-734.464 593.79)" fill="#ddd7e0"/>
      </g>
      <g id="Group_22450" data-name="Group 22450" transform="translate(64.503)">
        <rect id="Rectangle_4365" data-name="Rectangle 4365" width="158.73" height="80.348" rx="4.602" fill="#ddd7e0"/>
      </g>
      <g id="Group_22451" data-name="Group 22451" transform="translate(132.166 52.165)">
        <rect id="Rectangle_4366" data-name="Rectangle 4366" width="23.404" height="68.443" fill="#a89fb3"/>
      </g>
      <g id="Group_22452" data-name="Group 22452" transform="translate(120.747 46.938)">
        <rect id="Rectangle_4367" data-name="Rectangle 4367" width="46.243" height="11.862" rx="3.06" fill="#a89fb3"/>
      </g>
      <g id="Group_22453" data-name="Group 22453" transform="translate(83.704 4.453)">
        <path id="Path_35433" data-name="Path 35433" d="M783.509-650.219H735.86a.637.637,0,0,1-.637-.637.635.635,0,0,1,.637-.635h47.649a.635.635,0,0,1,.635.635A.636.636,0,0,1,783.509-650.219Z" transform="translate(-735.223 651.491)" fill="#fff"/>
      </g>
      <g id="Group_22454" data-name="Group 22454" transform="translate(334.484 108.863)">
        <path id="Path_35434" data-name="Path 35434" d="M878.973-583.47h89a5.161,5.161,0,0,0,5.159-5.161,5.16,5.16,0,0,0-5.159-5.159h-89a5.16,5.16,0,0,0-5.159,5.159A5.161,5.161,0,0,0,878.973-583.47Z" transform="translate(-873.814 593.79)" fill="#ddd7e0"/>
      </g>
      <g id="Group_22455" data-name="Group 22455" transform="translate(292.902 0)">
        <rect id="Rectangle_4368" data-name="Rectangle 4368" width="158.73" height="80.348" rx="4.602" transform="translate(158.73 80.348) rotate(180)" fill="#ddd7e0"/>
      </g>
      <g id="Group_22456" data-name="Group 22456" transform="translate(360.564 52.165)">
        <rect id="Rectangle_4369" data-name="Rectangle 4369" width="23.404" height="68.443" transform="translate(23.404 68.443) rotate(180)" fill="#a89fb3"/>
      </g>
      <g id="Group_22457" data-name="Group 22457" transform="translate(349.145 46.938)">
        <rect id="Rectangle_4370" data-name="Rectangle 4370" width="46.243" height="11.862" rx="3.06" transform="translate(46.243 11.862) rotate(180)" fill="#a89fb3"/>
      </g>
      <g id="Group_22458" data-name="Group 22458" transform="translate(383.508 4.453)">
        <path id="Path_35435" data-name="Path 35435" d="M949.193-650.219H901.542a.636.636,0,0,1-.635-.637.635.635,0,0,1,.635-.635h47.651a.635.635,0,0,1,.637.635A.637.637,0,0,1,949.193-650.219Z" transform="translate(-900.907 651.491)" fill="#fff"/>
      </g>
      <g id="Group_22459" data-name="Group 22459" transform="translate(17.102 118.393)">
        <rect id="Rectangle_4371" data-name="Rectangle 4371" width="496.757" height="11.802" rx="2.806" fill="#bdb2c2"/>
      </g>
    </g>
    <g id="Group_22535" data-name="Group 22535" transform="translate(552.401 -406.971)">
      <path id="Path_35486" data-name="Path 35486" d="M479.765-591.736s26.864-2.343,38.91,2.5-44.647,7.7-62.732,6.272S453.548-591.649,479.765-591.736Z" transform="translate(-448.159 592.302)" fill="#92b4ea"/>
    </g>
    <g id="Group_22610" data-name="Group 22610" transform="translate(450.653 -603.163)">
      <g id="Group_22536" data-name="Group 22536" transform="translate(167.06 121.891)">
        <path id="Path_35487" data-name="Path 35487" d="M505.314-604.19s-15.013,5.38-20.138-8,12.764-21.173,12.764-21.173S511.1-625.25,505.314-604.19Z" transform="translate(-484.253 633.364)" fill="#f48462"/>
      </g>
      <g id="Group_22537" data-name="Group 22537" transform="translate(108.735 63.621)">
        <path id="Path_35488" data-name="Path 35488" d="M525.485-612.133l-13.736,38.4s-47.282-6.241-56.916-29.124,8.572-62.708,8.572-62.708,9.181,9.118,23.473,27.562C494.514-628.149,525.485-612.133,525.485-612.133Z" transform="translate(-452.02 665.566)" fill="#5c69a5"/>
      </g>
      <g id="Group_22538" data-name="Group 22538" transform="translate(7.28 351.535)">
        <rect id="Rectangle_4373" data-name="Rectangle 4373" width="22.604" height="34.044" transform="matrix(0.533, -0.846, 0.846, 0.533, 0, 19.13)" fill="#f48462"/>
      </g>
      <g id="Group_22539" data-name="Group 22539" transform="translate(84.306 353.899)">
        <rect id="Rectangle_4374" data-name="Rectangle 4374" width="34.044" height="33.396" transform="matrix(0.868, -0.497, 0.497, 0.868, 0, 16.929)" fill="#f48462"/>
      </g>
      <g id="Group_22540" data-name="Group 22540" transform="translate(3.274 149.107)">
        <path id="Path_35489" data-name="Path 35489" d="M501.857-618.323s6.726,36.2-1.952,79.64-46.338,153-50.264,151.67-52.334-25.975-55.729-30.1,44.1-115.138,44.1-115.138L460.7-616.065Z" transform="translate(-393.738 618.323)" fill="#a37b90"/>
      </g>
      <g id="Group_22541" data-name="Group 22541" transform="translate(27.517 143.462)">
        <path id="Path_35490" data-name="Path 35490" d="M416.9-621.443s-16.9,22.459-6.245,95.644c7.8,53.621,52.293,145.469,52.293,145.469s53.832-30.222,55.173-31.624-48.912-154.507-48.912-154.507l18.166-53.192Z" transform="translate(-407.136 621.443)" fill="#a37b90"/>
      </g>
      <g id="Group_22542" data-name="Group 22542" transform="translate(35.846 54.59)">
        <path id="Path_35491" data-name="Path 35491" d="M481.568-665.992s14.175.271,18.216,9.006c6.078,13.144-8.085,91.582-8.9,92.436s-18.424,4.772-46.486-1.5-32.01-11.5-32.641-13.2,20.809-83.61,28.718-89.378C444.526-671.59,464.991-671.454,481.568-665.992Z" transform="translate(-411.739 670.557)" fill="#5c69a5"/>
      </g>
      <g id="Group_22546" data-name="Group 22546" transform="translate(91.583 44.258)">
        <g id="Group_22545" data-name="Group 22545">
          <g id="Group_22544" data-name="Group 22544">
            <g id="Group_22543" data-name="Group 22543">
              <path id="Path_35492" data-name="Path 35492" d="M445.235-676.267,442.541-661.1s1.961,4.846,10.709,7.142c6.514,1.712,9.1.63,9.1.63l.443-7.846.42-7.654-15.4-6.369Z" transform="translate(-442.541 676.267)" fill="#f48462"/>
            </g>
          </g>
        </g>
      </g>
      <g id="Group_22550" data-name="Group 22550" transform="translate(96.85 45.329)">
        <g id="Group_22549" data-name="Group 22549">
          <g id="Group_22548" data-name="Group 22548">
            <g id="Group_22547" data-name="Group 22547">
              <path id="Path_35493" data-name="Path 35493" d="M445.461-675.675a5.118,5.118,0,0,0,.181,1.543c2.048,8.179,11.038,11.46,14.8,12.48l.42-7.654Z" transform="translate(-445.452 675.675)"/>
            </g>
          </g>
        </g>
      </g>
      <g id="Group_22554" data-name="Group 22554" transform="translate(84.945 10.404)">
        <g id="Group_22553" data-name="Group 22553">
          <g id="Group_22552" data-name="Group 22552">
            <g id="Group_22551" data-name="Group 22551">
              <path id="Path_35494" data-name="Path 35494" d="M475.705-687.657s4.583,20.433-.431,30.443-14.333,6.476-19.707,3.313a19.449,19.449,0,0,1-7.366-7.218,8.286,8.286,0,0,1-8.378-4.925c-2.635-5.709.7-11.034,4.031-11.758s6.561,2.208,6.561,2.208l-1.808-6.031S466.061-707.112,475.705-687.657Z" transform="translate(-438.873 694.976)" fill="#f48462"/>
            </g>
          </g>
        </g>
      </g>
      <g id="Group_22555" data-name="Group 22555" transform="translate(115.759 32.238)">
        <path id="Path_35495" data-name="Path 35495" d="M456.537-673.691a.564.564,0,0,1-.27-.069.567.567,0,0,1-.226-.766c1.779-3.27-.072-7.551-.092-7.593a.565.565,0,0,1,.288-.744.562.562,0,0,1,.744.288c.087.2,2.094,4.835.052,8.588A.562.562,0,0,1,456.537-673.691Z" transform="translate(-455.902 682.91)"/>
      </g>
      <g id="Group_22556" data-name="Group 22556" transform="translate(89.451 30.845)">
        <path id="Path_35496" data-name="Path 35496" d="M445.952-676.111a.56.56,0,0,1-.478-.266l-4.024-6.44a.562.562,0,0,1,.179-.776.563.563,0,0,1,.776.179l4.024,6.44a.563.563,0,0,1-.179.776A.546.546,0,0,1,445.952-676.111Z" transform="translate(-441.363 683.68)"/>
      </g>
      <g id="Group_22557" data-name="Group 22557" transform="translate(88.357 34.749)">
        <path id="Path_35497" data-name="Path 35497" d="M444.965-680.221c-.027,0-3.668-.174-3.668-.174a.564.564,0,0,1-.537-.59.576.576,0,0,1,.59-.536l3.643.172a.564.564,0,0,1,.536.59A.565.565,0,0,1,444.965-680.221Z" transform="translate(-440.759 681.522)"/>
      </g>
      <g id="Group_22558" data-name="Group 22558" transform="translate(105.278 40.17)">
        <path id="Path_35498" data-name="Path 35498" d="M454.76-672.583a3.519,3.519,0,0,1-2.217-.747,7.069,7.069,0,0,1-2.432-4.583.565.565,0,0,1,.257-.523.57.57,0,0,1,.585-.016l6.865,3.919a.571.571,0,0,1,.284.469.566.566,0,0,1-.246.487A6.136,6.136,0,0,1,454.76-672.583Zm-3.261-4.258a5.425,5.425,0,0,0,1.735,2.62,3.114,3.114,0,0,0,3.125.154Z" transform="translate(-450.11 678.526)"/>
      </g>
      <g id="Group_22559" data-name="Group 22559" transform="translate(108.713 28.004)">
        <path id="Path_35499" data-name="Path 35499" d="M452.572-680.524a.572.572,0,0,1-.563-.6l.257-3.6a.559.559,0,0,1,.6-.523.562.562,0,0,1,.523.6l-.257,3.594A.562.562,0,0,1,452.572-680.524Z" transform="translate(-452.008 685.249)"/>
      </g>
      <g id="Group_22560" data-name="Group 22560" transform="translate(119.287 29.254)">
        <path id="Path_35500" data-name="Path 35500" d="M458.417-679.833a.57.57,0,0,1-.565-.592l.188-3.6a.571.571,0,0,1,.592-.534.563.563,0,0,1,.534.592l-.186,3.6A.562.562,0,0,1,458.417-679.833Z" transform="translate(-457.852 684.559)"/>
      </g>
      <g id="Group_22561" data-name="Group 22561" transform="translate(106.795 23.153)">
        <path id="Path_35501" data-name="Path 35501" d="M451.511-685.729a.562.562,0,0,1-.351-.123.564.564,0,0,1-.089-.793c1.75-2.191,4.73-.93,4.855-.874a.563.563,0,0,1,.291.74.568.568,0,0,1-.74.293c-.092-.04-2.316-.968-3.525.545A.564.564,0,0,1,451.511-685.729Z" transform="translate(-450.948 687.931)"/>
      </g>
      <g id="Group_22562" data-name="Group 22562" transform="translate(117.39 23.365)">
        <path id="Path_35502" data-name="Path 35502" d="M461.7-685.084a.564.564,0,0,1-.449-.223,3.708,3.708,0,0,0-2.141-1.375,1.709,1.709,0,0,0-1.348.57.561.561,0,0,1-.8-.011.561.561,0,0,1,.011-.8,2.789,2.789,0,0,1,2.222-.887,4.783,4.783,0,0,1,2.951,1.819.566.566,0,0,1-.109.789A.56.56,0,0,1,461.7-685.084Z" transform="translate(-456.803 687.813)"/>
      </g>
      <g id="Group_22563" data-name="Group 22563" transform="translate(84.571 189.453)">
        <path id="Path_35503" data-name="Path 35503" d="M456.672-540.994a.577.577,0,0,1-.539-.369c-1.786-4.6-17.444-45.056-17.467-48.225a.58.58,0,0,1,.4-.556L457.329-596a.582.582,0,0,1,.727.375.579.579,0,0,1-.375.727l-17.8,5.713c.82,4.106,10.643,30.161,17.333,47.407a.578.578,0,0,1-.329.747A.569.569,0,0,1,456.672-540.994Z" transform="translate(-438.666 596.026)" fill="#fff"/>
      </g>
      <g id="Group_22564" data-name="Group 22564" transform="translate(36.707 276.689)">
        <path id="Path_35504" data-name="Path 35504" d="M444.14-470.391a.573.573,0,0,1-.521-.328c-1.164-2.426-28.539-59.646-31.4-76.42a.578.578,0,0,1,.472-.668.58.58,0,0,1,.668.474c2.832,16.615,31.015,75.521,31.3,76.115a.578.578,0,0,1-.271.771A.558.558,0,0,1,444.14-470.391Z" transform="translate(-412.214 547.816)" fill="#fff"/>
      </g>
      <g id="Group_22565" data-name="Group 22565" transform="translate(94.281 365.279)">
        <path id="Path_35505" data-name="Path 35505" d="M444.032-467.474a14.681,14.681,0,0,1,9.131-11.735c6.252-2.535,14.65,0,14.65,0s.461-13.349,5.182-16.953,12.388,2.982,12.388,2.982,50.322-12.232,55.124-.789-15.455,21.857-15.455,21.857-62.556,36.479-64.843,36.029S444.032-467.474,444.032-467.474Z" transform="translate(-444.032 498.858)" fill="#92b4ea"/>
      </g>
      <g id="Group_22566" data-name="Group 22566" transform="translate(140.924 367.411)">
        <path id="Path_35506" data-name="Path 35506" d="M470.374-479.6a.652.652,0,0,1-.167-.023.566.566,0,0,1-.373-.706c.042-.139,4.44-13.966,17.364-17.331a.559.559,0,0,1,.688.4.565.565,0,0,1-.4.688c-12.306,3.206-16.53,16.439-16.571,16.571A.566.566,0,0,1,470.374-479.6Z" transform="translate(-469.809 497.68)" fill="#40507f"/>
      </g>
      <g id="Group_22567" data-name="Group 22567" transform="translate(0 359.284)">
        <path id="Path_35507" data-name="Path 35507" d="M422.472-480.937a32.243,32.243,0,0,0-6.161-15.008c-5.488-7.287-12.46-6.163-12.46-6.163l-11.1,18.772a5.867,5.867,0,0,0-.1,5.8c5.048,9.252,20.42,37.263,21.669,37.679,1.5.5,62.912,4,65.388,2s-3.655-20.464-15.31-23.958l-11.653-3.492-7.851-8.17s-.632-11.89-8.617-13.835S422.472-480.937,422.472-480.937Z" transform="translate(-391.929 502.171)" fill="#92b4ea"/>
      </g>
      <g id="Group_22568" data-name="Group 22568" transform="translate(52.394 395.552)">
        <path id="Path_35508" data-name="Path 35508" d="M421.449-477.313a.567.567,0,0,1-.469-.248.564.564,0,0,1,.152-.782c1.066-.722,6.478-4.267,8.329-3.729a.567.567,0,0,1,.378.7.564.564,0,0,1-.7.378c-.892-.279-4.518,1.65-7.374,3.579A.562.562,0,0,1,421.449-477.313Z" transform="translate(-420.884 482.128)" fill="#40507f"/>
      </g>
      <g id="Group_22569" data-name="Group 22569" transform="translate(91.006 58.849)">
        <path id="Path_35509" data-name="Path 35509" d="M459.712-659.056a22.232,22.232,0,0,1-17.357-8.2.581.581,0,0,1,.074-.816.58.58,0,0,1,.814.074,21,21,0,0,0,19.248,7.576.575.575,0,0,1,.684.449.578.578,0,0,1-.449.684A17.012,17.012,0,0,1,459.712-659.056Z" transform="translate(-442.222 668.203)" fill="#f7b369"/>
      </g>
      <g id="Group_22570" data-name="Group 22570" transform="translate(83.876)">
        <path id="Path_35510" data-name="Path 35510" d="M450.894-670.94s.255-7.962,7.071-9.113,24.358-1.155,25.65-8.555-11.4-4.432-11.4-4.432,3.319-7.146-3.8-7.654a12.143,12.143,0,0,0-10.718,5.2s-5.541-1.393-9.883,1.169-4.142,9.956-4.142,9.956-5.246,1.724-5.38,6.207a16.337,16.337,0,0,0,2.2,8.208S444.436-675.578,450.894-670.94Z" transform="translate(-438.282 700.726)"/>
      </g>
      <g id="Group_22587" data-name="Group 22587" transform="translate(172.264 99.481)">
        <g id="Group_22571" data-name="Group 22571" transform="translate(5.539 35.336)">
          <path id="Path_35511" data-name="Path 35511" d="M516.3-626.22s9.806,38.647,4.573,46.654c-6.344,9.712-30.68-2.054-30.68-2.054Z" transform="translate(-490.19 626.22)" fill="#efa459"/>
        </g>
        <g id="Group_22572" data-name="Group 22572" transform="translate(27.878 9.726)">
          <path id="Path_35512" data-name="Path 35512" d="M507.431-631.6a.675.675,0,0,1-.586-.342l-4.222-7.43a.671.671,0,0,1,.253-.916.671.671,0,0,1,.917.251l4.221,7.43a.673.673,0,0,1-.253.917A.663.663,0,0,1,507.431-631.6Z" transform="translate(-502.536 640.373)" fill="#f7b369"/>
        </g>
        <g id="Group_22573" data-name="Group 22573" transform="translate(17.931 1.352)">
          <path id="Rectangle_4375" data-name="Rectangle 4375" d="M0,0H9.879a0,0,0,0,1,0,0V15.428a1.087,1.087,0,0,1-1.087,1.087H1.086A1.086,1.086,0,0,1,0,15.428V0A0,0,0,0,1,0,0Z" transform="matrix(0.979, 0.205, -0.205, 0.979, 3.381, 0)" fill="#7b9fd6"/>
        </g>
        <g id="Group_22574" data-name="Group 22574" transform="translate(18.912 1.204)">
          <rect id="Rectangle_4376" data-name="Rectangle 4376" width="25.693" height="8.258" rx="1.018" transform="translate(1.69 0) rotate(11.812)" fill="#7b9fd6"/>
        </g>
        <g id="Group_22575" data-name="Group 22575" transform="translate(12.992 18.574)">
          <path id="Path_35513" data-name="Path 35513" d="M494.309-621.1l5.049-13.284a1.652,1.652,0,0,1,1.9-1.069l5.226,1.093a1.656,1.656,0,0,1,1.31,1.735L506.469-613.6Z" transform="translate(-494.309 635.483)" fill="#efa459"/>
        </g>
        <g id="Group_22576" data-name="Group 22576" transform="translate(2.311 29.92)">
          <path id="Path_35514" data-name="Path 35514" d="M506.083-575.377l-14.15-2.959a4.433,4.433,0,0,1-3.367-5.514l11.559-42.105a4.432,4.432,0,0,1,5.182-3.165l8.872,1.855a4.434,4.434,0,0,1,3.48,4.978l-6.283,43.209A4.431,4.431,0,0,1,506.083-575.377Z" transform="translate(-488.406 629.213)" fill="#efa459"/>
        </g>
        <g id="Group_22577" data-name="Group 22577" transform="translate(0 29.437)">
          <path id="Path_35515" data-name="Path 35515" d="M504.806-575.644l-14.15-2.958a4.433,4.433,0,0,1-3.367-5.512l11.561-42.107a4.431,4.431,0,0,1,5.181-3.165l8.874,1.855a4.434,4.434,0,0,1,3.48,4.978L510.1-579.344A4.431,4.431,0,0,1,504.806-575.644Z" transform="translate(-487.129 629.48)" fill="#f7b369"/>
        </g>
        <g id="Group_22578" data-name="Group 22578" transform="translate(11.72 18.25)">
          <path id="Path_35516" data-name="Path 35516" d="M493.606-621.216l4.772-13.341a1.651,1.651,0,0,1,1.9-1.069l5.226,1.093a1.656,1.656,0,0,1,1.31,1.735l-1.321,19.025Z" transform="translate(-493.606 635.663)" fill="#f7b369"/>
        </g>
        <g id="Group_22579" data-name="Group 22579" transform="translate(17.192 0.294)">
          <path id="Rectangle_4377" data-name="Rectangle 4377" d="M0,0H9.879a0,0,0,0,1,0,0V15.428a1.086,1.086,0,0,1-1.086,1.086H1.087A1.087,1.087,0,0,1,0,15.428V0A0,0,0,0,1,0,0Z" transform="matrix(0.979, 0.205, -0.205, 0.979, 3.381, 0)" fill="#adcbf7"/>
        </g>
        <g id="Group_22580" data-name="Group 22580" transform="translate(17.476 0)">
          <rect id="Rectangle_4378" data-name="Rectangle 4378" width="26.406" height="8.257" rx="1.032" transform="matrix(0.979, 0.205, -0.205, 0.979, 1.69, 0)" fill="#adcbf7"/>
        </g>
        <g id="Group_22581" data-name="Group 22581" transform="translate(42.049 3.941)">
          <path id="Path_35517" data-name="Path 35517" d="M512.126-632.264a2.213,2.213,0,0,1-1.712-2.618l1.448-6.929a2.213,2.213,0,0,1,2.618-1.712,2.21,2.21,0,0,1,1.712,2.618l-1.448,6.927A2.214,2.214,0,0,1,512.126-632.264Z" transform="translate(-510.367 643.57)" fill="#f7b369"/>
        </g>
        <g id="Group_22582" data-name="Group 22582" transform="translate(16.235 13.634)">
          <rect id="Rectangle_4379" data-name="Rectangle 4379" width="11.514" height="5.608" rx="0.7" transform="matrix(0.979, 0.205, -0.205, 0.979, 1.148, 0)" fill="#f7b369"/>
        </g>
        <g id="Group_22583" data-name="Group 22583" transform="translate(27.753 3.341)">
          <path id="Path_35518" data-name="Path 35518" d="M514.685-640.14a.726.726,0,0,1-.138-.014L503-642.57a.673.673,0,0,1-.521-.8.665.665,0,0,1,.8-.519l11.545,2.414a.672.672,0,0,1,.521.8A.674.674,0,0,1,514.685-640.14Z" transform="translate(-502.466 643.902)" fill="#fff"/>
        </g>
        <g id="Group_22584" data-name="Group 22584" transform="translate(18.575 14.928)">
          <path id="Path_35519" data-name="Path 35519" d="M503.047-635.109a.736.736,0,0,1-.138-.014l-4.98-1.042a.67.67,0,0,1-.521-.794.662.662,0,0,1,.8-.521l4.98,1.041a.673.673,0,0,1,.521.8A.674.674,0,0,1,503.047-635.109Z" transform="translate(-497.394 637.498)" fill="#ed933a"/>
        </g>
        <g id="Group_22585" data-name="Group 22585" transform="translate(3.527 36.364)">
          <path id="Path_35520" data-name="Path 35520" d="M514.805-625.652s9.6,37.645,4.954,46-30.682-2.054-30.682-2.054Z" transform="translate(-489.078 625.652)" fill="#f7b369"/>
        </g>
        <g id="Group_22586" data-name="Group 22586" transform="translate(8.619 46.141)">
          <rect id="Rectangle_4380" data-name="Rectangle 4380" width="19.249" height="10.217" rx="0.63" transform="translate(18.841 13.941) rotate(-168.188)" fill="#5c69a5"/>
        </g>
      </g>
      <g id="Group_22588" data-name="Group 22588" transform="translate(31.25 54.644)">
        <path id="Path_35521" data-name="Path 35521" d="M491.826-559.742a353.212,353.212,0,0,0,8.407-48.39c2.778-27.025.925-49.966,0-51.167a19.144,19.144,0,0,0-5.962-4.41,47.474,47.474,0,0,1-4.486-2.11s-.1,19.79-1.258,30.428l-1.154,10.636-22.622-4.3,3.941-40.216s-6.388-1.015-8.789-1.134l-2.4-.118s-5.336,66.1-16.479,70.083S415.19-589.8,415.19-589.8L409.2-566.228S468.675-544.879,491.826-559.742Z" transform="translate(-409.199 670.527)" fill="#a37b90"/>
      </g>
      <g id="Group_22589" data-name="Group 22589" transform="translate(86.803 167.165)">
        <path id="Path_35522" data-name="Path 35522" d="M465.188-607.72s32.484,22.259,31.163,25.174-9.809-.854-9.809-.854,11.036,5.619,4.929,7.256-15.276-1.33-15.276-1.33,8.9,5.114-3.442,4.039-31.943-10.448-32.774-19.848C438.246-612.919,465.188-607.72,465.188-607.72Z" transform="translate(-439.9 608.343)" fill="#f48462"/>
      </g>
      <g id="Group_22590" data-name="Group 22590" transform="translate(31.67 56.514)">
        <path id="Path_35523" data-name="Path 35523" d="M442.338-669.494s-32.909,11.022-32.907,65.225c0,36.841,53.275,68.292,53.275,68.292l35.175-21.991L453.655-613.03Z" transform="translate(-409.431 669.494)" fill="#5c69a5"/>
      </g>
      <g id="Group_22591" data-name="Group 22591" transform="translate(119.288 183.686)">
        <path id="Path_35524" data-name="Path 35524" d="M471.917-590.817a.548.548,0,0,1-.266-.067l-13.5-7.269a.564.564,0,0,1-.23-.764.564.564,0,0,1,.764-.23l13.5,7.271a.561.561,0,0,1,.23.762A.561.561,0,0,1,471.917-590.817Z" transform="translate(-457.852 599.213)"/>
      </g>
      <g id="Group_22592" data-name="Group 22592" transform="translate(110.015 189.464)">
        <path id="Path_35525" data-name="Path 35525" d="M466.6-587.275a.539.539,0,0,1-.279-.074l-13.312-7.616a.563.563,0,0,1-.208-.769.56.56,0,0,1,.769-.21l13.312,7.616a.563.563,0,0,1,.208.769A.56.56,0,0,1,466.6-587.275Z" transform="translate(-452.727 596.02)"/>
      </g>
      <g id="Group_22596" data-name="Group 22596" transform="translate(185.761 123.009)">
        <g id="Group_22595" data-name="Group 22595">
          <g id="Group_22594" data-name="Group 22594">
            <g id="Group_22593" data-name="Group 22593">
              <path id="Path_35526" data-name="Path 35526" d="M515.328-619.815s12.632-1.609,8.669-7.379-26.884-8.269-29.24-1.406S515.328-619.815,515.328-619.815Z" transform="translate(-494.588 632.746)" fill="#f48462"/>
            </g>
          </g>
        </g>
      </g>
      <g id="Group_22600" data-name="Group 22600" transform="translate(184.522 133.472)">
        <g id="Group_22599" data-name="Group 22599">
          <g id="Group_22598" data-name="Group 22598">
            <g id="Group_22597" data-name="Group 22597">
              <path id="Path_35527" data-name="Path 35527" d="M514.643-614.032s12.632-1.608,8.669-7.381-26.885-8.268-29.24-1.406S514.643-614.032,514.643-614.032Z" transform="translate(-493.903 626.963)" fill="#f48462"/>
            </g>
          </g>
        </g>
      </g>
      <g id="Group_22604" data-name="Group 22604" transform="translate(184.24 143.063)">
        <g id="Group_22603" data-name="Group 22603">
          <g id="Group_22602" data-name="Group 22602">
            <g id="Group_22601" data-name="Group 22601">
              <path id="Path_35528" data-name="Path 35528" d="M507.45-609.526a16.139,16.139,0,0,0,8.544.5c2.492-.577,4.659-1.86,3.366-4.674-2.586-5.631-22.2-11.264-25.284-5.637C491.789-615.166,502-611.269,507.45-609.526Z" transform="translate(-493.747 621.664)" fill="#f48462"/>
            </g>
          </g>
        </g>
      </g>
      <g id="Group_22605" data-name="Group 22605" transform="translate(194.197 132.944)">
        <path id="Path_35529" data-name="Path 35529" d="M514.8-624.358c-.065,0-15.048-1.775-15.048-1.775a.565.565,0,0,1-.5-.626.581.581,0,0,1,.626-.494l14.983,1.772a.568.568,0,0,1,.5.628A.565.565,0,0,1,514.8-624.358Z" transform="translate(-499.25 627.256)"/>
      </g>
      <g id="Group_22606" data-name="Group 22606" transform="translate(189.828 142.501)">
        <path id="Path_35530" data-name="Path 35530" d="M510.795-617.659a.547.547,0,0,1-.13-.016l-13.4-3.185a.565.565,0,0,1-.418-.68.559.559,0,0,1,.678-.418l13.4,3.188a.561.561,0,0,1,.416.679A.562.562,0,0,1,510.795-617.659Z" transform="translate(-496.835 621.974)"/>
      </g>
      <g id="Group_22607" data-name="Group 22607" transform="translate(179.549 120.689)">
        <path id="Path_35531" data-name="Path 35531" d="M501.754-627.845s-3.833-9.453-9.4-4.982,10.014,18.348,11,13.906S501.754-627.845,501.754-627.845Z" transform="translate(-491.155 634.028)" fill="#f98575"/>
      </g>
      <g id="Group_22608" data-name="Group 22608" transform="translate(66.801 94.536)">
        <path id="Path_35532" data-name="Path 35532" d="M437.428-630.154a.58.58,0,0,1-.467-.235c-.943-1.288-9.192-12.7-8-16.635a1.97,1.97,0,0,1,1.243-1.328,2.11,2.11,0,0,1,1.855.2c3.664,2.193,5.718,15.792,5.941,17.335a.581.581,0,0,1-.355.619A.576.576,0,0,1,437.428-630.154Zm-6.5-17.172a.934.934,0,0,0-.322.062.807.807,0,0,0-.532.575c-.729,2.407,3.528,9.388,6.378,13.566-.883-4.885-2.723-12.681-4.982-14.034A1.052,1.052,0,0,0,430.925-647.327Z" transform="translate(-428.846 648.481)" fill="#f7b369"/>
      </g>
      <g id="Group_22609" data-name="Group 22609" transform="translate(143.106 96.634)">
        <path id="Path_35533" data-name="Path 35533" d="M472.549-630.4a1.432,1.432,0,0,1-1.171-.512c-1.891-2.313,4.118-12.923,6-16.121a.572.572,0,0,1,.621-.27.573.573,0,0,1,.451.5c.062.572,1.377,14.036-4.889,16.2A3.12,3.12,0,0,1,472.549-630.4Zm4.869-14.382c-3.27,5.816-6,12.086-5.144,13.139.109.132.452.114.912-.043C477.326-633.121,477.547-641.079,477.419-644.785Z" transform="translate(-471.015 647.322)" fill="#f7b369"/>
      </g>
    </g>
    <g id="Group_22616" data-name="Group 22616" transform="translate(328.352 -312.722)">
      <g id="Group_22611" data-name="Group 22611" transform="translate(9.181)">
        <path id="Path_35534" data-name="Path 35534" d="M329.414-520.054s11.329-11.863,13.139-12.467,13.269,2.7,13.269,2.7-3.015-10.245,0-10.394,18.339,7.09,18.339,7.09,2.772-4.589,7.6-4.707,8.443,7.7,8.443,7.7,22.921,3.916,12.666,9.813S329.414-520.054,329.414-520.054Z" transform="translate(-329.414 540.216)" fill="#92b4ea"/>
      </g>
      <g id="Group_22615" data-name="Group 22615" transform="translate(0 15.598)">
        <g id="Group_22612" data-name="Group 22612" transform="translate(9.144)">
          <path id="Path_35535" data-name="Path 35535" d="M402.805-433.842H345.549a4.024,4.024,0,0,1-3.988-3.485L329.43-527.032a4.026,4.026,0,0,1,3.99-4.564h81.514a4.026,4.026,0,0,1,3.99,4.564l-12.131,89.706A4.025,4.025,0,0,1,402.805-433.842Z" transform="translate(-329.394 531.596)" fill="#cec9d1"/>
        </g>
        <g id="Group_22613" data-name="Group 22613">
          <path id="Path_35536" data-name="Path 35536" d="M397.751-433.842H340.5a4.025,4.025,0,0,1-3.99-3.485l-12.129-89.706a4.023,4.023,0,0,1,3.988-4.564h81.516a4.023,4.023,0,0,1,3.988,4.564l-12.129,89.706A4.025,4.025,0,0,1,397.751-433.842Z" transform="translate(-324.34 531.596)" fill="#ddd7e0"/>
        </g>
        <g id="Group_22614" data-name="Group 22614" transform="translate(10.232 16.283)">
          <path id="Path_35537" data-name="Path 35537" d="M334.748-490.766a.616.616,0,0,1-.61-.534L330-521.9a.619.619,0,0,1,.53-.695.623.623,0,0,1,.693.528l4.136,30.6a.618.618,0,0,1-.528.695A.635.635,0,0,1,334.748-490.766Z" transform="translate(-329.995 522.597)" fill="#fff"/>
        </g>
      </g>
    </g>
  </g>
</svg>
