<svg xmlns="http://www.w3.org/2000/svg" width="733.65" height="544.385" viewBox="0 0 733.65 544.385">
  <g id="Group_19171" data-name="Group 19171" transform="translate(-52.333 -78.698)">
    <rect id="Rectangle_2328" data-name="Rectangle 2328" width="64.589" height="13.598" transform="translate(612.533 459.911)" fill="#56434b"/>
    <path id="Path_25209" data-name="Path 25209" d="M369.6,145.2V419.03h4.462V143.985Z" transform="translate(273 56.179)" fill="#56434b"/>
    <g id="Group_19163" data-name="Group 19163" transform="translate(612.663 212.494)">
      <path id="Path_25210" data-name="Path 25210" d="M357.223,222.026c4.891-6.707,5.461-18.48,4.793-27.271-.5-6.579-1.937-12.845-2.039-19.5a69.529,69.529,0,0,1,3.52-22.839c.83-2.56-3.207-2.154-3.8-.318A73.86,73.86,0,0,0,356.1,181c.962,12.056,5.291,29.63-2.177,39.866C352.236,223.18,356.157,223.491,357.223,222.026Z" transform="translate(-353.508 -150.612)" fill="#60424a"/>
    </g>
    <path id="Path_25211" data-name="Path 25211" d="M364.424,191.9a6.845,6.845,0,1,0-6.839,6.555A6.7,6.7,0,0,0,364.424,191.9Z" transform="translate(256.779 91.769)" fill="#8e6e76"/>
    <path id="Path_25212" data-name="Path 25212" d="M449.7,112.329s-23.583-8.352-89.872-3.58L335.6,199.437s77.763-6.562,137.039,12.53Z" transform="translate(243.747 24.591)" fill="#b52656"/>
    <path id="Path_25213" data-name="Path 25213" d="M474.057,161.6c-34.971-.2-119.026-9.8-137.255-12.651L332.3,165.8c9.9,8.017,115.071,14.288,145.795,13.329Z" transform="translate(240.905 60.447)" fill="#e8a94f"/>
    <path id="Path_25214" data-name="Path 25214" d="M424.981,184.973c10.21-3.7,17.686-11.758,21.959-22.274l-11.6-50.374s-22.642-8-85.826-3.851a80.971,80.971,0,0,0,6.387,32.862C369.54,174.316,400.469,193.855,424.981,184.973Z" transform="translate(255.698 24.595)" fill="#d13763"/>
    <path id="Path_25215" data-name="Path 25215" d="M359.736,172.074c29.332,2.852,65.353,4.727,87.3,4.956a143.852,143.852,0,0,0-3.879-17.911c-24.24-1.046-60.322-4.532-88.23-7.652A146.1,146.1,0,0,0,359.736,172.074Z" transform="translate(260.377 62.617)" fill="#edc772"/>
    <g id="Group_19164" data-name="Group 19164" transform="translate(594.945 467.56)">
      <rect id="Rectangle_2329" data-name="Rectangle 2329" width="7.397" height="148.299" transform="translate(127.507 7.224)" fill="#773939"/>
      <rect id="Rectangle_2330" data-name="Rectangle 2330" width="7.397" height="148.299" transform="translate(58.47 7.224)" fill="#773939"/>
      <rect id="Rectangle_2331" data-name="Rectangle 2331" width="62.344" height="11.898" transform="translate(83.831)" fill="#773939"/>
      <rect id="Rectangle_2332" data-name="Rectangle 2332" width="7.397" height="148.299" transform="translate(84.535 7.224)" fill="#995f5f"/>
      <rect id="Rectangle_2333" data-name="Rectangle 2333" width="7.397" height="148.299" transform="translate(15.498 7.224)" fill="#995f5f"/>
      <rect id="Rectangle_2334" data-name="Rectangle 2334" width="7.397" height="30.064" transform="translate(84.535 5.949)" fill="#773939"/>
      <rect id="Rectangle_2335" data-name="Rectangle 2335" width="7.397" height="30.064" transform="translate(15.498 5.949)" fill="#773939"/>
      <rect id="Rectangle_2336" data-name="Rectangle 2336" width="93.341" height="11.898" fill="#995f5f"/>
    </g>
    <path id="Path_25216" data-name="Path 25216" d="M168.214,282.228H116.422L103.63,308.361l74.256,4.462Z" transform="translate(44.14 175.134)" fill="#7f6f76"/>
    <ellipse id="Ellipse_213" data-name="Ellipse 213" cx="17.847" cy="21.671" rx="17.847" ry="21.671" transform="translate(174.54 578.891)" fill="#42333a"/>
    <rect id="Rectangle_2337" data-name="Rectangle 2337" width="121.529" height="18.697" transform="translate(151.594 598.013)" fill="#42333a"/>
    <path id="Path_25217" data-name="Path 25217" d="M323.556,333.869c-2.435-5.611-6.515-9.245-9.113-8.117s-2.727,6.59-.292,12.2,6.515,9.243,9.113,8.117S325.991,339.48,323.556,333.869Z" transform="translate(223.788 212.409)" fill="#564447"/>
    <path id="Path_25218" data-name="Path 25218" d="M204.019,341.736l13.708-.078s2.048,18.765,7.049,34.229l-11.8.8C215.377,367.539,204.019,341.736,204.019,341.736Z" transform="translate(130.523 226.273)" fill="#ddbf92"/>
    <path id="Path_25219" data-name="Path 25219" d="M247.738,339.955,234.672,344.1s3.823,18.484,3.823,34.737l11.474-2.869C244.869,368,247.738,339.955,247.738,339.955Z" transform="translate(156.899 224.807)" fill="#ddbf92"/>
    <path id="Path_25220" data-name="Path 25220" d="M193.379,382.9h50.992s-6.579-22.562-17.118-26.088-2.852,14.1-23.708,16.569C197.072,374.146,192.832,380.43,193.379,382.9Z" transform="translate(121.327 238.911)" fill="#f4deba"/>
    <path id="Path_25221" data-name="Path 25221" d="M284.587,381.719H232.959s1.593-20.4,11.472-23.583,6.056,12.748,27.727,14.979C278.883,373.806,284.587,379.488,284.587,381.719Z" transform="translate(155.425 240.09)" fill="#f4deba"/>
    <path id="Path_25222" data-name="Path 25222" d="M273.493,180.82l17.422,63.739-25.921,13.385-28.895-59.7Z" transform="translate(158.127 87.874)" fill="#ffa77b"/>
    <path id="Path_25223" data-name="Path 25223" d="M256.5,223.526c-4.558-9.4,7.221-23.535,18.305-28.912.729-.353,1.464-.664,2.2-.943l-3.513-12.85L236.1,198.242l28.9,59.7,25.92-13.386-3.9-14.281C277.121,233.085,260.473,231.725,256.5,223.526Z" transform="translate(158.127 87.874)" fill="#ea875c"/>
    <path id="Path_25224" data-name="Path 25224" d="M255.339,129.431s21.314,17.442,23.317,23.256-1.1,51.035-1.1,51.035,1.924.646,1.985,4.521a7.02,7.02,0,0,1-3.094,5.814l2.108,12.275-33.42,22.609s-14.982-60.077-12.785-82.042S255.339,129.431,255.339,129.431Z" transform="translate(154.716 43.655)" fill="#f7ba57"/>
    <path id="Path_25225" data-name="Path 25225" d="M259.116,222.68c-1.591-4.1,4.705-10.368,14.06-13.993a39.158,39.158,0,0,1,6.24-1.847,4.674,4.674,0,0,0-1.2-2.659,8.376,8.376,0,0,1-4.874,1.736c-9.768,0-17.688-19.762-17.688-44.138,0-10.889,1.587-20.839,4.207-28.536-2.657-2.279-4.525-3.812-4.525-3.812s-20.785,15.5-22.984,37.468,12.785,82.042,12.785,82.042l33.42-22.61-.428-2.495C269.077,227.132,260.66,226.665,259.116,222.68Z" transform="translate(154.716 43.655)" fill="#f2a446"/>
    <path id="Path_25226" data-name="Path 25226" d="M238.036,213.892c-1.859-.443-4.1-5.354-4.1-5.354s27.278-26.469,32.57-31.072c5.418-4.714,16.041-1.1,15.864,2.1-.175,3.163.895,14.114-1.8,14.659S238.036,213.892,238.036,213.892Z" transform="translate(156.266 83.039)" fill="#f4deba"/>
    <path id="Path_25227" data-name="Path 25227" d="M258.889,197.557c0-9.855,5.261-18.335,12.854-22.3a9.578,9.578,0,0,0-5.237,2.156c-5.291,4.6-32.57,31.072-32.57,31.072s2.242,4.912,4.1,5.354c0,0,10.815-5.191,21.557-10.242A26.942,26.942,0,0,1,258.889,197.557Z" transform="translate(156.266 83.089)" fill="#e5c595"/>
    <path id="Path_25228" data-name="Path 25228" d="M382.681,364.907H351.316L337.678,375.53h58.64Z" transform="translate(245.534 246.278)" fill="#56434b"/>
    <path id="Path_25229" data-name="Path 25229" d="M200.547,125.97c-34.845,88.384-29.321,294.049,18.7,434.274l35.693-8.5s-25.494-160.623-25.494-229.036l5.1,2.125c2.154,49.4,20.953,140.044,39.945,231.161l34.843,5.948s-20.4-259.418-16.785-317.845c1.049-16.966,13.386-97.733,13.386-97.733s-32.294-33.995-40.793-33.144S200.547,125.97,200.547,125.97Z" transform="translate(108.27 29.694)" fill="#5c8ebc"/>
    <path id="Path_25230" data-name="Path 25230" d="M271.1,468.291c-17.662-84.049-36.9-166.437-37.351-239.424L197.843,217.82l14.664,15.712c0-.277,0-.566,0-.839l5.1,2.125c.437,10.009,1.567,21.734,3.232,34.789l9.129,57.963c7.507,41.958,17.518,90.114,27.584,138.409Z" transform="translate(125.209 119.712)" fill="#3f7099"/>
    <path id="Path_25231" data-name="Path 25231" d="M192.049,300.068c0-69.065,9.122-132.4,24.3-181.782-9.111,1.892-15.8,3.314-15.8,3.314-34.845,88.384-29.321,294.049,18.7,434.274l16.571-4.461C205.859,480.025,192.049,407.2,192.049,300.068Z" transform="translate(108.27 34.065)" fill="#3f7099"/>
    <path id="Path_25232" data-name="Path 25232" d="M284.934,140.519c-9.673-9.678-28.811-27.922-35.066-27.3-6.156.616-37.273,7.025-53.965,10.514,8.867,22.5,8.391,63.636,8.391,63.636s51.628,4.78,72.345-2.231C276.638,185.141,282.316,159.407,284.934,140.519Z" transform="translate(123.538 29.694)" fill="#f7ba57"/>
    <path id="Path_25233" data-name="Path 25233" d="M273.147,129.2c-9.057-8.3-19.076-16.4-23.28-15.982-6.156.616-37.273,7.025-53.965,10.514a102.263,102.263,0,0,1,5.15,20.028,135.564,135.564,0,0,0,18.281,1.22C244.133,144.984,264.907,138.465,273.147,129.2Z" transform="translate(123.538 29.694)" fill="#ef9348"/>
    <path id="Path_25234" data-name="Path 25234" d="M246.834,219.583c25.814-16.891,37.606-8.287,37.606-8.287l1.593,43.662-27.727-6.692Z" transform="translate(167.364 112.213)" fill="#d6bdbd"/>
    <path id="Path_25235" data-name="Path 25235" d="M275.473,211.292s-5.821-4.229-18.218-.912a52.925,52.925,0,0,0,1.721,11.634c3.542,13.6,11.327,23.422,17.714,22.635Z" transform="translate(176.331 112.218)" fill="#f4deba"/>
    <path id="Path_25236" data-name="Path 25236" d="M242.141,177.737l-3.187,3.824L384.067,485.6l2.124-15.935Z" transform="translate(160.584 85.221)" fill="#564447"/>
    <path id="Path_25237" data-name="Path 25237" d="M315.008,402.455h102.62l-95.4-68.838-8.947,7.649Z" transform="translate(224.544 219.353)" fill="#7a6a6e"/>
    <path id="Path_25238" data-name="Path 25238" d="M323.05,334.207l-.819-.59-8.947,7.648,1.725,61.189h52.609C336.6,381.846,318.465,353.465,323.05,334.207Z" transform="translate(224.543 219.353)" fill="#66585c"/>
    <path id="Path_25239" data-name="Path 25239" d="M311.984,376.071H427.67l-3.824-11.792L312.3,370.335Z" transform="translate(223.425 245.738)" fill="#7a6a6e"/>
    <g id="Group_19166" data-name="Group 19166" transform="translate(52.333 238.24)">
      <path id="Path_25240" data-name="Path 25240" d="M124.419,466.433c-28.01,0-52.1-15.634-64.414-41.812-12.437-26.434-9.572-56.655,7.276-76.985,11.987-14.465,41.779-36.211,106.671-19.451,61.984,15.995,123.028,7.888,145.168-19.243,12.365-15.148,12.463-35.552.307-60.644-16.363-33.775-.495-67.4,23.561-79.19,20.326-9.959,51.712-6.512,73.34,35.982a7.548,7.548,0,0,1-3.3,10.188,7.634,7.634,0,0,1-10.212-3.39c-16.56-32.549-38.257-36.391-53.054-29.141-17.574,8.618-28.949,33.619-16.653,58.99,18.651,38.486,9.12,63.057-2.171,76.9-26.1,32-92.2,42.039-160.759,24.348-42.041-10.841-74.393-5.732-91.087,14.426-13.077,15.788-15.124,39.608-5.206,60.685,9.719,20.646,28.607,32.981,50.516,32.984a7.677,7.677,0,0,1,.017,15.355Z" transform="translate(-52.333 -164.451)" fill="#564447"/>
      <g id="Group_19165" data-name="Group 19165">
        <path id="Path_25241" data-name="Path 25241" d="M124.4,374c-21.907,0-40.795-12.339-50.514-32.985-9.918-21.077-7.872-44.9,5.206-60.685,8.058-9.728,19.794-15.916,34.475-18.534a245.151,245.151,0,0,1-25.183-7.758,65.007,65.007,0,0,0-21.1,16.519c-16.849,20.329-19.714,50.549-7.276,76.985,12.316,26.179,36.4,41.813,64.414,41.813A7.677,7.677,0,0,0,124.4,374Z" transform="translate(-52.333 -87.367)" fill="#49383c"/>
        <path id="Path_25242" data-name="Path 25242" d="M141.3,267c-1.107,0-2.2-.022-3.3-.03,28.026,2.787,54.216.794,75.7-5.557A456.086,456.086,0,0,1,141.3,267Z" transform="translate(21.382 -81.02)" fill="#49383c"/>
        <path id="Path_25243" data-name="Path 25243" d="M295.889,205.089c-21.628-42.493-53.014-45.941-73.34-35.982-21.128,10.35-35.932,37.55-28.14,66.9,6.3,1.561,12.32,3.256,17.985,5.09-11.8-25.15-.5-49.8,16.929-58.348,14.8-7.25,36.493-3.407,53.054,29.141a7.633,7.633,0,0,0,10.212,3.39A7.55,7.55,0,0,0,295.889,205.089Z" transform="translate(68.107 -164.451)" fill="#49383c"/>
      </g>
    </g>
    <path id="Path_25244" data-name="Path 25244" d="M218.97,202.364s.638-6.374-2.231-5.736c0,0,10.835-71.069-1.594-76.486S154.618,188,163.2,211.289c2.231,6.054,9.243,7.328,9.243,7.328s-5.42,11.155,2.867,17.848S218.97,202.364,218.97,202.364Z" transform="translate(94.521 35.417)" fill="#f7ba57"/>
    <path id="Path_25245" data-name="Path 25245" d="M175.9,209.356c-3.243-10.05,7.777-22.6,24.61-28.032a49.128,49.128,0,0,1,16.315-2.452c.335-2.272,1.619-11.252,2.7-22.315-9.888,17.07-21.913,27.092-30.741,24.019-9.248-3.22-12.307-19.9-8.713-40.75-11.911,20.086-21.02,43.02-16.871,54.28,2.231,6.054,9.243,7.328,9.243,7.328s-5.42,11.155,2.867,17.848c1.833,1.479,4.99.633,8.793-1.574C180.031,215.858,177.086,213.036,175.9,209.356Z" transform="translate(94.521 52.6)" fill="#f2a446"/>
    <path id="Path_25246" data-name="Path 25246" d="M169.065,196.9c10.835,13.386,77.443-7.648,77.443-7.648l9.561-26.132s-37.288-1.594-47.805.318S169.065,196.9,169.065,196.9Z" transform="translate(100.446 72.11)" fill="#ffa77b"/>
    <path id="Path_25247" data-name="Path 25247" d="M241.482,162.589c-9.544,13.972-21.07,22.322-26.521,18.886-3.734-2.353-3.693-9.667-.582-18.737a54.433,54.433,0,0,0-6.115.625c-10.515,1.913-39.2,33.463-39.2,33.463,10.835,13.386,77.443-7.648,77.443-7.648l9.561-26.132S249.7,162.773,241.482,162.589Z" transform="translate(100.446 72.187)" fill="#ea875c"/>
    <path id="Path_25248" data-name="Path 25248" d="M203.161,200.886c-.636-23.9,16.891-40.793,16.891-40.793s23.583,9.879,29.319,14.022c0,0,14.022,2.869,17.529,8.287s3.823,27.089,1.911,27.089-20.076-.636-23.263-4.78-4.463-10.2-4.463-10.2l-5.418-1.593Z" transform="translate(129.77 70.039)" fill="#f4deba"/>
    <path id="Path_25249" data-name="Path 25249" d="M268.667,201.689c-5.157,1.777-12.128-4.876-15.568-14.862-.337-.973-.612-1.94-.856-2.9a74.958,74.958,0,0,1-15.208-2.815c-10.915-3.2-20.125-8.413-26.294-14.277-4.074,7.133-7.883,16.88-7.58,28.246l32.506-7.967,5.418,1.593s1.276,6.056,4.463,10.2,21.353,4.78,23.263,4.78c.4,0,.7-.962.893-2.5A5.247,5.247,0,0,1,268.667,201.689Z" transform="translate(129.77 75.842)" fill="#d6bdbd"/>
    <path id="Path_25250" data-name="Path 25250" d="M286.822,256.638c-6.216,2.807-13.727,6.9-15.691,5.518s-17.1-17.332-18.383-22.076,4.556-14.915,8.035-16.175S295.614,252.67,286.822,256.638Z" transform="translate(172.296 124.915)" fill="#d6bdbd"/>
    <path id="Path_25251" data-name="Path 25251" d="M284.64,255.31c2.9-7-24.13-32.57-27.347-31.4a3.763,3.763,0,0,0-.484.24c-.794,5.812.936,12.837,5.252,19.129C268.1,252.084,277.313,256.718,284.64,255.31Z" transform="translate(175.786 124.915)" fill="#f4deba"/>
    <path id="Path_25252" data-name="Path 25252" d="M210.091,125.933l7.488-21.511,28.683,6.054-2.869,19.44s-.318,21.035-15.615,20.716C215.92,150.385,210.091,125.933,210.091,125.933Z" transform="translate(135.748 22.135)" fill="#dd704a"/>
    <path id="Path_25253" data-name="Path 25253" d="M208.006,117.544l4.675-2.975s7.648,23.8,18.91,24.646,14.659-24.858,14.659-24.858l1.7,1.487a50.265,50.265,0,0,1-8.925,33.571l-6.374-6.376h-1.7l-7.861,7.862C214.849,141.381,208.886,130.726,208.006,117.544Z" transform="translate(133.954 30.684)" fill="#e5ddcf"/>
    <path id="Path_25254" data-name="Path 25254" d="M219.181,95.137c-7.65,14.026-7.206,44.6-4.5,49.1s13.064,9.459,15.315,9.459,15.315.452,17.569-3.152,17.118-36.038,17.569-44.6-11.712-14.865-19.371-18.469S221.884,90.181,219.181,95.137Z" transform="translate(138.158 6.641)" fill="#ffa77b"/>
    <path id="Path_25255" data-name="Path 25255" d="M248.569,114.281a52.264,52.264,0,0,1,13.89,1.864c1.516-4.354,2.551-8.037,2.664-10.2.45-8.56-11.712-14.865-19.371-18.469s-23.874,2.7-26.577,7.658c-4.958,9.09-6.5,25.1-6.251,36.486C218.4,121.491,232.275,114.281,248.569,114.281Z" transform="translate(138.163 6.641)" fill="#ea875c"/>
    <path id="Path_25256" data-name="Path 25256" d="M212.695,127.217c-4.729-14.527-.167-33.615-.167-33.615l16.216-.169L220.635,110.5l-5.237,3.04-.339,7.433Z" transform="translate(136.141 12.679)" fill="#663842"/>
    <path id="Path_25257" data-name="Path 25257" d="M211.07,111.35c-.339-14.865,11.823-29.731,24.663-31.758s26.689-.337,28.378,2.367.677,30.067.677,30.067C247.5,104.578,229.911,106.079,211.07,111.35Z" transform="translate(136.584 0)" fill="#f4deba"/>
    <path id="Path_25258" data-name="Path 25258" d="M228.637,100.852c0-9.609,6.528-17.939,16.088-22.125a74.9,74.9,0,0,0-8.992.839c-12.839,2.028-25,16.893-24.663,31.758a122.839,122.839,0,0,1,18.674-3.833A21.06,21.06,0,0,1,228.637,100.852Z" transform="translate(136.584 0.025)" fill="#e5c595"/>
    <path id="Path_25259" data-name="Path 25259" d="M271.641,89.57c-12.164-4.393-47.13,0-57.941,12.5,26.013-6,52.222,1.284,48.819,10.475C304.073,107.814,283.8,93.961,271.641,89.57Z" transform="translate(138.853 7.929)" fill="#aa445a"/>
    <path id="Path_25260" data-name="Path 25260" d="M216.522,231.393l19.122-7.33-23.584-1.275Z" transform="translate(137.443 123.987)" fill="#3f7099"/>
    <path id="Path_25261" data-name="Path 25261" d="M211.819,98.593c-7.433,3.379-5.743,15.879,7.769,18.244C219.589,116.837,219.252,95.214,211.819,98.593Z" transform="translate(133.471 16.811)" fill="#ea875c"/>
    <path id="Path_25262" data-name="Path 25262" d="M211.414,100.286c-4.722,2.145-3.648,10.084,4.934,11.587C216.348,111.873,216.134,98.139,211.414,100.286Z" transform="translate(134.495 18.381)" fill="#cc4f46"/>
    <path id="Path_25263" data-name="Path 25263" d="M212.675,101.771c-3.021,1.211-2.8,6.839,2.391,8.421C215.066,110.191,215.7,100.56,212.675,101.771Z" transform="translate(136.282 19.763)" fill="#ea875c"/>
    <path id="Path_25264" data-name="Path 25264" d="M218.738,165.219c0-2.125-4.461-5.526-4.461-5.526s-42.493,26.346-47.591,30.6,4.035,14.873,6.8,15.509,15.509,1.913,16.571-.636S218.738,165.219,218.738,165.219Z" transform="translate(97.09 69.695)" fill="#f4deba"/>
    <path id="Path_25265" data-name="Path 25265" d="M194.73,171.7a25.934,25.934,0,0,1,.642-5.652c-12.052,7.6-25.911,16.458-28.687,18.772-5.1,4.249,4.035,14.873,6.8,15.509s15.509,1.913,16.571-.636c.393-.94,4.4-6.62,9.293-13.412A24.723,24.723,0,0,1,194.73,171.7Z" transform="translate(97.09 75.163)" fill="#e5c595"/>
    <path id="Path_25266" data-name="Path 25266" d="M333.549,366.914,312.3,368.068l-.319,5.736h21.565Z" transform="translate(223.425 248.005)" fill="#66585c"/>
    <path id="Path_25267" data-name="Path 25267" d="M319.529,335.154c-2.435-5.611-6.515-9.245-9.111-8.117s-2.727,6.59-.292,12.2,6.515,9.245,9.111,8.117S321.966,340.765,319.529,335.154Z" transform="translate(220.325 213.515)" fill="#443639"/>
    <g id="Group_19168" data-name="Group 19168" transform="translate(478.575 515.024)">
      <path id="Path_25268" data-name="Path 25268" d="M308.083,365.355c2.968-.026,6.662-1.373,6.757-4.339.087-2.679-3.931-4.313-5.738-2.335,4.1-3.269,8.6-7.373,8.331-12.612a4.7,4.7,0,0,0-2.058-3.944,6.382,6.382,0,0,0-2.811-.588,11.754,11.754,0,0,0-4.88.42,4.007,4.007,0,0,0-2.755,3.7,13.178,13.178,0,0,0-5.079-8.986,11.547,11.547,0,0,0-10.063-1.847c-6.034,1.836-9.315,9.051-8.1,15.239s5.993,11.195,11.5,14.275c-.06,2.463,1.756,4.661,3.942,5.793a19.944,19.944,0,0,0,7.152,1.673c5.771.614,12.056.9,17.792-1.862l.376-.432C317.968,373.164,303.706,371.076,308.083,365.355Z" transform="translate(-281.436 -295.026)" fill="#d8d2c0"/>
      <path id="Path_25269" data-name="Path 25269" d="M354.726,326.312a4.838,4.838,0,0,0-4.028-1.8,2.873,2.873,0,0,0-2.1,1.581c.071-2.917-.329-5.965-2.625-7.583-2.316-1.63-5.507-.984-8.143.052a12.413,12.413,0,0,0-4.4,2.62c-2.506,2.53-4.53,6.305-4.461,9.864.076,4.02,1.753,17.369,17.049,18.326l.294-.556c-1.658-.13-2.61-2.21-2.095-3.79a5.911,5.911,0,0,1,3.544-3.282c1.531-.646,3.185-1,4.649-1.784a8.764,8.764,0,0,0,2.313-13.652Z" transform="translate(-240.534 -309.518)" fill="#d8d2c0"/>
      <g id="Group_19167" data-name="Group 19167" transform="translate(161.727)">
        <path id="Path_25270" data-name="Path 25270" d="M368.364,345.985a15.624,15.624,0,0,0,.37,1.74c-.121-.592-.283-1.148-.361-1.775Z" transform="translate(-368.364 -285.059)" fill="#d8d2c0"/>
        <path id="Path_25271" data-name="Path 25271" d="M463.144,351.4a11.121,11.121,0,0,0-12.162-7.615,7.8,7.8,0,0,0-5.661,3.771c-.912,1.753-1.077,4.1-2.783,5.1.233-3.457,3-6.134,4.5-9.26,2.955-6.154-.013-14.569-6.331-17.161s-14.581,1.671-15.779,8.395A25.493,25.493,0,0,0,411,315.492a24.125,24.125,0,0,0-23.492,1.7,22.893,22.893,0,0,0-9.7,21.329,24.323,24.323,0,0,0,3.565,9.717,27.422,27.422,0,0,0,10.2,9.555c5.635,3.029,12.508,4.207,16.822,8.932,4.6,5.031,4.763,13.275.986,18.947s-10.889,8.679-17.691,8.259-13.187-3.972-17.816-8.973a22.016,22.016,0,0,1-5.312-9.072c1.851,9.167,8.363,14.449,10.635,16.233,2.419,1.9-.478,11.472,10.8,10.675,1.868-.13,3.708-1.587,5.3-.608-2.234,2.951.2,7.862,3.877,8.326s7.137-3.021,7.187-6.722a20.639,20.639,0,0,1-.026-3.555,5.62,5.62,0,0,1,4.086-4.054,11.88,11.88,0,0,1,5.991.156c-3.222,1.23-4.4,5.767-2.541,8.674s5.97,3.9,9.172,2.616a10.619,10.619,0,0,0,6.095-7.831c.67-3.336.03-6.908,1.2-10.1a9.583,9.583,0,0,1,8.437-6.123,51.956,51.956,0,0,1,5.427.527,10.459,10.459,0,0,0,7.911-2.473c2.067-1.955,2.927-5.28,1.563-7.775a5.205,5.205,0,0,0-5.036-2.51,31.431,31.431,0,0,0,10.342-6.521C462.413,361.307,464.5,356.118,463.144,351.4Z" transform="translate(-368.193 -313.221)" fill="#d8d2c0"/>
      </g>
      <path id="Path_25272" data-name="Path 25272" d="M466.922,348.832a2.709,2.709,0,0,0-1.135-.94,5.787,5.787,0,0,0-6.212.774,16.247,16.247,0,0,0,4.181-8.815,4.988,4.988,0,0,0-.138-2.458,4.387,4.387,0,0,0-2.054-2.125,8.316,8.316,0,0,0-12.149,9.2,10.875,10.875,0,0,0-4.618-6.184,6.36,6.36,0,0,0-7.347.554c-1.905,1.816-1.87,5.442.361,6.837,1.228.77,3.07,1.036,3.412,2.443a2.286,2.286,0,0,1-1.781,2.474,7.382,7.382,0,0,1-3.341-.065c-7.41-1.358-14.5,9.622-13.146,13.195l.138-.318c.29-4.75,5.373-7.974,10.127-8.179s9.295,1.721,13.838,3.135,9.673,2.281,13.9.1a12.892,12.892,0,0,0,5.853-6.763A3.261,3.261,0,0,0,466.922,348.832Z" transform="translate(-159.807 -295.13)" fill="#d8d2c0"/>
      <path id="Path_25273" data-name="Path 25273" d="M463.144,348.924a11.121,11.121,0,0,0-12.162-7.615,7.8,7.8,0,0,0-5.661,3.771c-.912,1.753-1.077,4.1-2.783,5.1.233-3.457,3-6.134,4.5-9.26a12.5,12.5,0,0,0,.889-7.721c-2.193,5-5.8,8.268-9.879,8.268-5.319,0-9.827-5.542-11.455-13.239a9.906,9.906,0,0,0-1.665,3.926,25.712,25.712,0,0,0-9.124-16.05,33.956,33.956,0,0,1,6.132,19.628c0,11.825-5.829,22.125-14.469,27.652.311.286.638.549.926.867,4.6,5.031,4.763,13.274.986,18.947s-10.889,8.679-17.691,8.259-13.187-3.972-17.816-8.973a22.016,22.016,0,0,1-5.312-9.072c1.851,9.167,8.363,14.449,10.635,16.233,2.419,1.9-.478,11.472,10.8,10.675,1.868-.13,3.708-1.587,5.3-.608-2.234,2.951.2,7.862,3.877,8.326s7.137-3.021,7.187-6.722a20.639,20.639,0,0,1-.026-3.555,5.62,5.62,0,0,1,4.086-4.054,11.88,11.88,0,0,1,5.991.156c-3.222,1.23-4.4,5.767-2.541,8.674s5.97,3.9,9.172,2.616a10.619,10.619,0,0,0,6.095-7.831c.67-3.336.03-6.908,1.2-10.1a9.583,9.583,0,0,1,8.437-6.123,51.956,51.956,0,0,1,5.427.527,10.459,10.459,0,0,0,7.911-2.473c2.067-1.955,2.927-5.28,1.563-7.775a5.205,5.205,0,0,0-5.036-2.51,31.431,31.431,0,0,0,10.342-6.521C462.413,358.829,464.5,353.64,463.144,348.924Z" transform="translate(-206.465 -310.743)" fill="#c6bda7"/>
      <path id="Path_25274" data-name="Path 25274" d="M414.053,346.593c0-7.04-4-12.748-8.925-12.748s-8.923,5.708-8.923,12.748,3.994,12.748,8.923,12.748S414.053,353.633,414.053,346.593Z" transform="translate(-182.68 -295.475)" fill="#d8d2c0"/>
      <path id="Path_25275" data-name="Path 25275" d="M466.922,347.294a2.709,2.709,0,0,0-1.135-.94,5.787,5.787,0,0,0-6.212.774,16.262,16.262,0,0,0,4.182-8.815,5.255,5.255,0,0,0-.108-2.279,17.078,17.078,0,0,1-16.592,12.074,17.957,17.957,0,0,1-5.844-.986,2.445,2.445,0,0,1-1.771,1.931,7.382,7.382,0,0,1-3.341-.065c-7.41-1.358-14.5,9.622-13.146,13.195l.138-.318c.29-4.75,5.373-7.974,10.127-8.181s9.295,1.723,13.838,3.137,9.673,2.281,13.9.1a12.892,12.892,0,0,0,5.853-6.763A3.261,3.261,0,0,0,466.922,347.294Z" transform="translate(-159.807 -293.591)" fill="#c6bda7"/>
      <path id="Path_25276" data-name="Path 25276" d="M354.647,325.421a4.839,4.839,0,0,0-4.028-1.8,2.873,2.873,0,0,0-2.1,1.581c.06-2.43-.225-4.936-1.643-6.646.006.2.02.4.02.6,0,9.271-4.947,16.785-11.048,16.785a8.97,8.97,0,0,1-6.787-3.559c.664,5.347,3.756,15.275,16.878,16.1l.294-.556c-1.658-.13-2.61-2.21-2.095-3.79a5.911,5.911,0,0,1,3.544-3.282c1.531-.646,3.185-1,4.649-1.784a8.764,8.764,0,0,0,2.313-13.652Z" transform="translate(-240.454 -308.626)" fill="#c6bda7"/>
      <path id="Path_25277" data-name="Path 25277" d="M308.082,363.073c2.967-.026,6.662-1.373,6.757-4.339.087-2.679-3.931-4.313-5.738-2.335,4.1-3.269,8.6-7.373,8.331-12.612a6.441,6.441,0,0,0-.231-1.345c-3.239,8.227-9.092,13.743-15.8,13.743-8.089,0-14.947-8.019-17.453-19.167a14.52,14.52,0,0,0-2.266,10.759c1.215,6.188,5.993,11.195,11.5,14.276-.06,2.463,1.756,4.661,3.942,5.793a19.944,19.944,0,0,0,7.152,1.673c5.771.614,12.056.9,17.792-1.862l.376-.432C317.967,370.882,303.7,368.794,308.082,363.073Z" transform="translate(-281.435 -292.744)" fill="#c6bda7"/>
    </g>
    <path id="Path_25278" data-name="Path 25278" d="M315.388,333.2c-.906-2.086-2.422-3.436-3.388-3.018s-1.014,2.45-.108,4.534,2.421,3.436,3.386,3.018S316.292,335.282,315.388,333.2Z" transform="translate(222.787 216.33)" fill="#7a6a6e"/>
    <path id="Path_25279" data-name="Path 25279" d="M272.195,222.789c4.657,6.255,4.774,16.328,4.446,21.662-.091,1.513-1.17,2.02-2.426,1.174-4.314-2.91-11.76-11.483-12.076-14.627a8.058,8.058,0,0,1,.713-3.747,1.937,1.937,0,0,1,3.347-.361,2.6,2.6,0,0,0,4.493-.528Z" transform="translate(180.512 123.988)" fill="#f4deba"/>
    <path id="Path_25280" data-name="Path 25280" d="M198.145,120.142c-3.381-1.475-9.408,2.9-16.208,10.484a83.258,83.258,0,0,0,21.928,6.554C203.287,128.346,201.631,121.66,198.145,120.142Z" transform="translate(111.521 35.417)" fill="#ef9348"/>
    <path id="Path_25281" data-name="Path 25281" d="M202.027,159.154c.294-2.288-.848-4.143-2.549-4.143s-3.319,1.855-3.613,4.143.848,4.143,2.551,4.143S201.735,161.443,202.027,159.154Z" transform="translate(123.467 65.666)" fill="#3f7099"/>
    <path id="Path_25282" data-name="Path 25282" d="M242.339,159.554c.294-2.288-.848-4.143-2.549-4.143s-3.319,1.855-3.613,4.143.848,4.143,2.551,4.143S242.045,161.843,242.339,159.554Z" transform="translate(158.155 66.01)" fill="#3f7099"/>
    <path id="Path_25283" data-name="Path 25283" d="M278.385,126.464c-2.668,18.8-8.175,43.764-8.175,43.764-17.974,6.082-59.2,3.289-69.8,2.445.02,2.082.007,3.291.007,3.291s51.628,4.78,72.345-2.231c0,0,5.678-25.734,8.3-44.622C280.236,128.291,279.326,127.392,278.385,126.464Z" transform="translate(127.416 41.102)" fill="#ef9348"/>
    <path id="Path_25284" data-name="Path 25284" d="M228.105,167.916c10.517.848,17.349-.177,19.972,2.019,10.091,8.445,7.064,16.093,7.064,16.093s-5.9-7.488-6.852-7.488-4.993-.32-4.993-.32Z" transform="translate(151.248 76.771)" fill="#f4deba"/>
    <path id="Path_25285" data-name="Path 25285" d="M111.573,315.787l-11.252-3.325a8.364,8.364,0,0,0-10.337,5.377c-2.726,8.365-5.79,22.1-1.418,33.053a8.153,8.153,0,0,0,5.168,4.642l22.088,7Z" transform="translate(29.291 200.852)" fill="#42333a"/>
    <path id="Path_25286" data-name="Path 25286" d="M183.608,291.592H107.972C94.441,326.608,89.1,369.414,99.9,427.569H241.825L233.75,304.338Z" transform="translate(35.973 183.192)" fill="#685159"/>
    <path id="Path_25287" data-name="Path 25287" d="M167.461,402.285c0-30.625,26.445-55.452,59.065-55.452a63.248,63.248,0,0,1,10.061.817l-2.837-43.312-50.142-12.746H107.972C94.441,326.608,89.1,369.414,99.9,427.569h74.066A52.487,52.487,0,0,1,167.461,402.285Z" transform="translate(35.973 183.192)" fill="#5b454d"/>
    <ellipse id="Ellipse_214" data-name="Ellipse 214" cx="17.847" cy="21.671" rx="17.847" ry="21.671" transform="translate(126.098 578.891)" fill="#42333a"/>
    <path id="Path_25288" data-name="Path 25288" d="M124.422,368.076c0-10.739-7.168-19.444-16.013-19.444S92.4,357.337,92.4,368.076s7.168,19.444,16.013,19.444S124.422,378.815,124.422,368.076Z" transform="translate(34.473 232.273)" fill="#56434b"/>
    <path id="Path_25289" data-name="Path 25289" d="M182.712,370.185c0-4.861-3.58-8.8-7.994-8.8s-7.995,3.941-7.995,8.8,3.58,8.8,7.995,8.8S182.712,375.046,182.712,370.185Z" transform="translate(98.43 243.246)" fill="#42333a"/>
    <path id="Path_25290" data-name="Path 25290" d="M95.321,336.867l141.224,25.647-3.812-58.175-50.142-12.746H106.955A201.984,201.984,0,0,0,95.321,336.867Z" transform="translate(36.99 183.192)" fill="#e8b862"/>
    <path id="Path_25291" data-name="Path 25291" d="M172.825,326.422c-14-11.174-25.515-23.316-33.678-34.83H106.955a201.984,201.984,0,0,0-11.634,45.275l141.224,25.647-.309-4.692C218.963,355.615,195.38,344.426,172.825,326.422Z" transform="translate(36.99 183.192)" fill="#e0994b"/>
    <path id="Path_25292" data-name="Path 25292" d="M180.625,369.459c0-3.993-2.94-7.232-6.567-7.232s-6.568,3.239-6.568,7.232,2.94,7.232,6.568,7.232S180.625,373.453,180.625,369.459Z" transform="translate(99.09 243.972)" fill="#56434b"/>
    <path id="Path_25293" data-name="Path 25293" d="M157.133,283.583H114.325l3.444,10.894h42.808Z" transform="translate(53.342 176.3)" fill="#a09098"/>
    <path id="Path_25294" data-name="Path 25294" d="M146.443,283.136H127.659l1.511,4.78h18.784Z" transform="translate(64.817 175.916)" fill="#d3c1c8"/>
    <path id="Path_25295" data-name="Path 25295" d="M95.1,319.447l141.865,25.98-.268-4.087L95.614,315.5C95.428,316.8,95.265,318.124,95.1,319.447Z" transform="translate(36.799 203.767)" fill="#42333a"/>
    <path id="Path_25296" data-name="Path 25296" d="M195.2,346.411a11.593,11.593,0,0,1-3.276-.18l-27.31-5.555a11.467,11.467,0,0,1-8.837-8.3l-10.819-40.112-2.657-.675h-.167l11.181,41.45a14.015,14.015,0,0,0,10.791,10.134l27.31,5.554a14.414,14.414,0,0,0,2.848.29c.368,0,.737-.028,1.1-.058Z" transform="translate(77.275 183.192)" fill="#5b454d"/>
    <path id="Path_25297" data-name="Path 25297" d="M175.354,301.441l-15.338-3.9c-.015.435-.041.867-.041,1.308,0,12.889,6.486,23.338,14.486,23.338a9.188,9.188,0,0,0,2.233-.305Z" transform="translate(92.624 188.311)" fill="#f7d194"/>
    <path id="Path_25298" data-name="Path 25298" d="M161.721,298.269l-7.794-1.98c-.009.22-.022.439-.022.664,0,6.549,3.3,11.857,7.36,11.857a4.636,4.636,0,0,0,1.135-.154Z" transform="translate(87.401 187.233)" fill="#f7d194"/>
    <path id="Path_25299" data-name="Path 25299" d="M101.267,327.565a3.04,3.04,0,0,0-3.04,3.04v16.227a3.04,3.04,0,0,0,3.04,3.04Z" transform="translate(39.491 214.146)" fill="#42333a"/>
    <path id="Path_25300" data-name="Path 25300" d="M104.35,327.565a3.04,3.04,0,0,0-3.04,3.04v16.227a3.04,3.04,0,0,0,3.04,3.04Z" transform="translate(42.144 214.146)" fill="#42333a"/>
    <path id="Path_25301" data-name="Path 25301" d="M107.434,327.565a3.039,3.039,0,0,0-3.04,3.04v16.227a3.039,3.039,0,0,0,3.04,3.04Z" transform="translate(44.797 214.146)" fill="#42333a"/>
    <path id="Path_25302" data-name="Path 25302" d="M110.517,327.565a3.04,3.04,0,0,0-3.04,3.04v16.227a3.04,3.04,0,0,0,3.04,3.04Z" transform="translate(47.45 214.146)" fill="#42333a"/>
    <path id="Path_25303" data-name="Path 25303" d="M113.6,327.565a3.04,3.04,0,0,0-3.04,3.04v16.227a3.04,3.04,0,0,0,3.04,3.04Z" transform="translate(50.103 214.146)" fill="#42333a"/>
    <g id="Group_19170" data-name="Group 19170" transform="translate(363.749 116.69)">
      <path id="Path_25304" data-name="Path 25304" d="M233.534,103.176c-.357,3.775-1.295,19.812-3.118,20.2-1.366.29-3.513-.919-4.761-1.728l-.188.454s3.745,2.835,5.751,2.409,2.943-19.842,3.211-20.975Z" transform="translate(-214.77 -95.626)" fill="#dd704a"/>
      <g id="Group_19169" data-name="Group 19169" transform="translate(0 22.314)">
        <path id="Path_25305" data-name="Path 25305" d="M229.715,121.916a11.94,11.94,0,0,1-9.674-8.082c-.618-2-.184-2.4-.041-2.534a.721.721,0,0,1,1.159.8c-.039,1,1.408,7.018,8.817,8.4.2.037.4.071.6.1a.743.743,0,0,1,.61.82.725.725,0,0,1-.819.61C230.146,121.994,229.927,121.957,229.715,121.916Z" transform="translate(-219.718 -111.112)" fill="#dd704a"/>
      </g>
      <path id="Path_25306" data-name="Path 25306" d="M221.959,116.809c-.744-.662-1.52-1-1.732-.767s.22.969.964,1.63,1.52,1,1.732.767S222.7,117.469,221.959,116.809Z" transform="translate(-219.326 -84.621)" fill="#dd704a"/>
      <path id="Path_25307" data-name="Path 25307" d="M232.543,106.157c-.722,2.095-.171,4.316,1.243,4.975s3.176-.508,3.918-2.614a5.717,5.717,0,0,0,.266-1.314Z" transform="translate(-208.955 -93.061)" fill="#3f3335"/>
      <path id="Path_25308" data-name="Path 25308" d="M222.809,103.648l-.006.013c-.74,2.106-.188,4.35,1.233,5.012s3.178-.508,3.918-2.614a5.8,5.8,0,0,0,.277-1.366Z" transform="translate(-217.346 -95.22)" fill="#3f3335"/>
      <path id="Path_25309" data-name="Path 25309" d="M232.565,100.225l-7.827-1.079a2.7,2.7,0,0,0-3.09,2.134,2.565,2.565,0,0,0,2.292,2.874l7.827,1.079a2.7,2.7,0,0,0,3.088-2.132A2.566,2.566,0,0,0,232.565,100.225Z" transform="translate(-218.082 -99.118)" fill="#663842"/>
      <path id="Path_25310" data-name="Path 25310" d="M243.242,105.345l-6.947-3.764a2.7,2.7,0,0,0-3.643.912,2.566,2.566,0,0,0,1.135,3.5l6.947,3.762a2.7,2.7,0,0,0,3.643-.912A2.563,2.563,0,0,0,243.242,105.345Z" transform="translate(-208.854 -97.301)" fill="#663842"/>
    </g>
  </g>
</svg>
