<svg xmlns="http://www.w3.org/2000/svg" width="619.702" height="372.826" viewBox="0 0 619.702 372.826">
  <g id="Group_22100" data-name="Group 22100" transform="translate(-1267.696 -1025.212)">
    <g id="Group_22089" data-name="Group 22089" transform="translate(1662.969 1169.711)">
      <rect id="Rectangle_4301" data-name="Rectangle 4301" width="87.585" height="68.803" transform="matrix(1, -0.002, 0.002, 1, 0, 0.211)" fill="#ed9b8e"/>
      <rect id="Rectangle_4302" data-name="Rectangle 4302" width="30.986" height="68.803" transform="translate(0 0.211) rotate(-0.138)" fill="#f47458"/>
      <rect id="Rectangle_4303" data-name="Rectangle 4303" width="18.709" height="9.158" transform="translate(49.027 0.093) rotate(-0.138)" fill="#efefb4"/>
    </g>
    <g id="Group_22090" data-name="Group 22090" transform="translate(1704.111 1183.359)">
      <rect id="Rectangle_4304" data-name="Rectangle 4304" width="63.359" height="55.791" transform="translate(0 0.153) rotate(-0.138)" fill="#f7cc7f"/>
      <rect id="Rectangle_4305" data-name="Rectangle 4305" width="22.415" height="55.79" transform="translate(0 0.153) rotate(-0.139)" fill="#f47458" opacity="0.5" style="mix-blend-mode: multiply;isolation: isolate"/>
      <rect id="Rectangle_4306" data-name="Rectangle 4306" width="13.534" height="7.426" transform="matrix(1, -0.002, 0.002, 1, 35.466, 0.067)" fill="#efefb4"/>
    </g>
    <g id="Group_22093" data-name="Group 22093" transform="translate(1267.696 1204.03)">
      <g id="Group_22091" data-name="Group 22091" transform="translate(0 0)">
        <rect id="Rectangle_4307" data-name="Rectangle 4307" width="5.221" height="76.358" transform="translate(67.182 104.181)" fill="#13375b"/>
        <path id="Path_34743" data-name="Path 34743" d="M1367,1906.861h51.881a4.326,4.326,0,0,1,4.326,4.327h0a.756.756,0,0,1-.756.756h-59.021a.756.756,0,0,1-.757-.756h0A4.327,4.327,0,0,1,1367,1906.861Z" transform="translate(-1323.593 -1722.917)" fill="#13375b"/>
        <path id="Path_34744" data-name="Path 34744" d="M1425.115,1898.586h6.355a3.4,3.4,0,0,1,3.4,3.4h0a3.4,3.4,0,0,1-3.4,3.4h-6.355a3.4,3.4,0,0,1-3.4-3.4h0A3.4,3.4,0,0,1,1425.115,1898.586Z" transform="translate(-1358.34 -1718.047)" fill="#13375b"/>
        <path id="Path_34745" data-name="Path 34745" d="M1415.225,1634.892l-3.57-14.86a24.108,24.108,0,0,0-22.38-18.386l-45.213-1.828-1.4-4.6,46.792,1.891a28.669,28.669,0,0,1,26.614,21.864l3.793,15.791C1418.581,1634.816,1417.014,1634.859,1415.225,1634.892Z" transform="translate(-1311.819 -1539.501)" fill="#355389"/>
        <path id="Path_34746" data-name="Path 34746" d="M1310.456,1547.284s62.119,1.063,68.594,0,9.279,7.057,7.346,11.309-7.249,5.9-15.079,6.283-72.977,2.223-74.813.483c-1.5-1.421-21.25-68.941-28.435-93.632a9.313,9.313,0,0,1,6.328-11.54h0a9.322,9.322,0,0,1,11.546,6.241Z" transform="translate(-1267.696 -1459.808)" fill="#f7cc7f"/>
      </g>
      <g id="Group_22092" data-name="Group 22092" transform="translate(500.4 0)">
        <rect id="Rectangle_4308" data-name="Rectangle 4308" width="5.221" height="76.358" transform="translate(52.119 180.539) rotate(180)" fill="#13375b"/>
        <path id="Path_34747" data-name="Path 34747" d="M2587.92,1906.861h-51.88a4.326,4.326,0,0,0-4.327,4.327h0a.756.756,0,0,0,.756.756h59.021a.756.756,0,0,0,.757-.756h0A4.327,4.327,0,0,0,2587.92,1906.861Z" transform="translate(-2512.024 -1722.917)" fill="#13375b"/>
        <path id="Path_34748" data-name="Path 34748" d="M2597.561,1898.586h-6.356a3.4,3.4,0,0,0-3.4,3.4h0a3.4,3.4,0,0,0,3.4,3.4h6.356a3.4,3.4,0,0,0,3.4-3.4h0A3.4,3.4,0,0,0,2597.561,1898.586Z" transform="translate(-2545.034 -1718.047)" fill="#13375b"/>
        <path id="Path_34749" data-name="Path 34749" d="M2515.856,1634.892l3.57-14.86a24.108,24.108,0,0,1,22.381-18.386l45.213-1.828,1.4-4.6-46.792,1.891a28.669,28.669,0,0,0-26.614,21.864l-3.793,15.791C2512.5,1634.816,2514.066,1634.859,2515.856,1634.892Z" transform="translate(-2499.96 -1539.501)" fill="#355389"/>
        <path id="Path_34750" data-name="Path 34750" d="M2560.4,1547.284s-62.119,1.063-68.595,0-9.279,7.057-7.346,11.309,7.249,5.9,15.079,6.283,72.977,2.223,74.813.483c1.5-1.421,21.25-68.941,28.436-93.632a9.313,9.313,0,0,0-6.328-11.54h0a9.322,9.322,0,0,0-11.546,6.241Z" transform="translate(-2483.861 -1459.808)" fill="#f7cc7f"/>
      </g>
      <path id="Rectangle_4309" data-name="Rectangle 4309" d="M2.6,0H383.592a2.6,2.6,0,0,1,2.6,2.6V6.091a2.6,2.6,0,0,1-2.6,2.6H2.6A2.6,2.6,0,0,1,0,6.092V2.6A2.6,2.6,0,0,1,2.6,0Z" transform="translate(506.082 42.565) rotate(180)" fill="#13375b"/>
      <path id="Path_34751" data-name="Path 34751" d="M2431.772,1709.719h6.184l-13.323-146.461h-6.184Z" transform="translate(-1944.963 -1520.692)" fill="#13375b"/>
      <path id="Path_34752" data-name="Path 34752" d="M2314.288,1709.719H2308.1l13.323-146.461h6.184Z" transform="translate(-1880.021 -1520.692)" fill="#13375b"/>
      <path id="Path_34753" data-name="Path 34753" d="M1706.108,1709.719h6.184l-13.323-146.461h-6.183Z" transform="translate(-1517.879 -1520.692)" fill="#13375b"/>
      <path id="Path_34754" data-name="Path 34754" d="M1588.623,1709.719h-6.183l13.323-146.461h6.184Z" transform="translate(-1452.936 -1520.692)" fill="#13375b"/>
    </g>
    <g id="Group_22095" data-name="Group 22095" transform="translate(1277.872 1025.212)">
      <path id="Path_34755" data-name="Path 34755" d="M1506.35,1365.9c-5.571,3.093-17.385,9.529-22.327,10.808-.788-2.15-6.437-13.546-7.133-15.579-3.6,2.579-7.779,3.154-11.493,5.507,2.721,6.749,12.043,23.355,13.925,24.2,4.459,2,18.805-8.719,27.027-15.058Z" transform="translate(-1394.228 -1222.912)" fill="#f48c7f"/>
      <path id="Path_34756" data-name="Path 34756" d="M1353.713,1249.895c8.43-5.672,13.137-19.927,9.279-29.259,4.006-4.045,6.111-2.969,6.045-8.636-.13-11.181,16-15.872,4.943-20.234-11.253-3.77-21.749,2.113-27.917,8.492a28.2,28.2,0,0,1-9.849,6.733c-7.455,2.945-12.289,11.658-9.79,21.69-5.979,2.429-12,10.874-9.248,18.862.66,1.917,2.186,4.256,2.176,4.78-.026-.65-7.235,15.483,11.076,23.593C1349.113,1284.193,1355.46,1266.054,1353.713,1249.895Z" transform="translate(-1306.59 -1122.539)" fill="#13375b"/>
      <path id="Path_34757" data-name="Path 34757" d="M1376.838,1348.523l2.094,20.02s3.158,8.5,6.482,6.7,10.651-4.053,14.108-10.5,5.591-.15,5.348-10.493,4.407-9.144-.691-13.791.563-7.369-8.114-5.783S1376.838,1348.523,1376.838,1348.523Z" transform="translate(-1342.107 -1207.075)" fill="#9bc1f9"/>
      <path id="Path_34758" data-name="Path 34758" d="M1420.822,1856.561s.915,11.653.172,15.44c-.4,2.028-2.611,6.2-1.6,8.111a5.117,5.117,0,0,0,2.177,2.386l26.32.426c1.434.023.486-.9-.67-1.76-1.892-1.4-3.419-2.324-9.463-5.264-.394-.191-1.829-1.109-2.347-1.427a18.265,18.265,0,0,1-3.765-3.345c-1.89-2.116-2.055-12.378-2.055-12.378Z" transform="translate(-1367.001 -1514.496)" fill="#f7a491"/>
      <path id="Path_34759" data-name="Path 34759" d="M1435.328,1899.239a23.7,23.7,0,0,1-14.984-.592c-.742,2.116-1.726,4.77-1.2,6.3.639,1.874,1.548,2.3,2.352,2.319,6.359.167,23.29.4,28.138.459a.8.8,0,0,0,.615-1.309C1449.042,1904.973,1435.847,1899.558,1435.328,1899.239Z" transform="translate(-1366.917 -1539.266)" fill="#5184ce"/>
      <path id="Path_34760" data-name="Path 34760" d="M1302.942,1845.074s-1.481,10.334-4.03,13.669a26.343,26.343,0,0,0-3.443,4.558c-1.6,3.148-.714,7.836.464,10.418.6,1.325-.043,1.321,1.334,1.748a8.441,8.441,0,0,0,10.149-4.792,24.447,24.447,0,0,0,1.991-8.805c.435-9.383,3.337-14.154,3.337-14.154Z" transform="translate(-1293.707 -1507.735)" fill="#f7a491"/>
      <path id="Path_34761" data-name="Path 34761" d="M1437.272,1475.933s3.315,18.92,1.139,31.323-12.621,127.376-12.621,127.376l-11.608.658s-2.433-48.026-2-54.705,3.88-17.856,3.88-17.856l-1.155-38.776,14.647-50.94Z" transform="translate(-1362.879 -1288.762)" fill="#13375b"/>
      <path id="Path_34762" data-name="Path 34762" d="M1306.926,1894.632c-6.323,1.16-10.53-2.56-12.719-5.345-1.607,3.155-2.391,7.863-1.209,10.454,1.041,2.283,4.084,2.217,6.48,2.307a6.251,6.251,0,0,0,5.75-3.539A21.215,21.215,0,0,0,1306.926,1894.632Z" transform="translate(-1292.428 -1533.757)" fill="#5184ce"/>
      <path id="Path_34763" data-name="Path 34763" d="M1442.774,1346.39s-13.255-13.591-16.666-19.5,2.323-2.061,8.179-3.614c2.218-.589,1.656-13.585,5.849-9.361,6.878,6.931,15.526,19.051,15.526,19.051Z" transform="translate(-1370.503 -1194.632)" fill="#89a6e5"/>
      <path id="Path_34764" data-name="Path 34764" d="M1417.511,1330.619c-1-6.6-5.534-22.98-6.875-24.892-1.478-2.105-16.208-5.962-16.208-5.962s-11.9-2.348-17.324,2.187c-2.791,2.331-2.4,14.121-1.371,25.936Z" transform="translate(-1341.002 -1186.441)" fill="#9bc1f9"/>
      <path id="Path_34765" data-name="Path 34765" d="M1425.539,1259.9s-.062.355-.175.961c-.54,2.9-2.057,12.993-3.461,15.641-1.7,3.2,5.246,12.947,12.468,11.7,2.15-.37-1.817-9.377-1.626-10.33.365-1.827.859-4.318,1.366-6.872l.847-4.276c.772-3.9,1.4-7.094,1.4-7.094Z" transform="translate(-1368.478 -1163.179)" fill="#f7a491"/>
      <path id="Path_34766" data-name="Path 34766" d="M1430.214,1260.863c.112-.605.175-.961.175-.961l10.821-.269s-.63,3.192-1.4,7.094l-.842,4.251a10.145,10.145,0,0,1-5.167-2.585,13.622,13.622,0,0,1-3.914-5.809C1430.019,1261.9,1430.13,1261.313,1430.214,1260.863Z" transform="translate(-1373.328 -1163.179)" fill="#f47458"/>
      <path id="Path_34767" data-name="Path 34767" d="M1440.459,1235.264c-.3,2.416-1.454,4.26-2.567,4.119s-1.769-2.212-1.465-4.628,1.454-4.26,2.567-4.12S1440.763,1232.848,1440.459,1235.264Z" transform="translate(-1377.134 -1146.109)" fill="#f7a491"/>
      <path id="Path_34768" data-name="Path 34768" d="M1407.319,1201.885c-3.417,8.989,7.9,17.253,17.507,18.714,6.242.948,9.2.668,11.045-5.8,2.99-10.5-.6-17.577-6.436-21.055C1421.9,1189.251,1410.138,1194.47,1407.319,1201.885Z" transform="translate(-1359.68 -1123.418)" fill="#13375b"/>
      <path id="Path_34769" data-name="Path 34769" d="M1431.559,1204.962a12.757,12.757,0,0,0-7.212,4.885c-2.8,3.992-3.4,17.83,5.425,23.53s14.435-4.012,14.707-11.667S1443.278,1203.809,1431.559,1204.962Z" transform="translate(-1368.984 -1130.95)" fill="#f7a491"/>
      <path id="Path_34770" data-name="Path 34770" d="M1452.308,1258.124l6.68.738a2.967,2.967,0,0,1-3.387,2.328C1452.007,1260.9,1452.308,1258.124,1452.308,1258.124Z" transform="translate(-1386.521 -1162.291)" fill="#fff"/>
      <path id="Path_34771" data-name="Path 34771" d="M1415.549,1217.4c-.5-7.253.722-12.549,6.077-14.506s9.977-3.983,13.891,1.239l.945.7s-8.787,1.277-9.829,5.728-2.482,9.834-3.592,12.89c-.8,2.2-1.913,5.7-1.913,5.7l-1.316-1.984S1416.047,1224.656,1415.549,1217.4Z" transform="translate(-1364.83 -1128.563)" fill="#13375b"/>
      <path id="Path_34772" data-name="Path 34772" d="M1431.919,1239.2c.455,2.043-.322,3.938-1.736,4.234s-2.93-1.122-3.385-3.165.322-3.938,1.736-4.234S1431.464,1237.156,1431.919,1239.2Z" transform="translate(-1371.434 -1149.267)" fill="#f7a491"/>
      <path id="Path_34773" data-name="Path 34773" d="M1391.06,1300.615c-.148.5-.239.786-.239.786l.921-.939Q1391.4,1300.531,1391.06,1300.615Z" transform="translate(-1350.337 -1187.208)" fill="#355389"/>
      <path id="Path_34774" data-name="Path 34774" d="M1380.284,1332c-.242-4.807-5.808-24.509-7.065-26.753a1.81,1.81,0,0,0-1.866-1.125,160.789,160.789,0,0,1,4.488,19.534c-4.722.9-11.45,0-11.45,0-5.58-12.892-7.519-18.706-10.51-24.7a2.137,2.137,0,0,0-.636-.289,3.307,3.307,0,0,0-1.492-.083l-1.268.207s12.69,26.97,11.6,31.461c-.935,3.861-10.783,15.15-21.686,17.289.269,2.573.443,4.557.443,5.646-.006,6.684-3.728,28.323-3.728,28.323h0a57.643,57.643,0,0,0-4.569,13.1c-2.176,11.45,1.6,46.637-2.589,61.64-2.266,8.122-10.854,20.665-12.16,31.16s-6.427,37.987-6.427,37.987l11.6,2.313,26.964-68.66,21.15-62.058,2.6-15.332a9.2,9.2,0,0,0,4.978-3.711S1380.526,1336.8,1380.284,1332Z" transform="translate(-1303.577 -1186.075)" fill="#355389"/>
      <g id="Group_22094" data-name="Group 22094" transform="translate(82.493 0)">
        <path id="Path_34775" data-name="Path 34775" d="M1560.49,1187.444l.983.15a58.457,58.457,0,0,1,3.732-10.471c6.481-13.813,4.89-15.969,13.494-23.912s11.987-26.611,11.987-26.611,6.714-20.764,4.655-30.667-.9-19.318-7.836-30.508c0,0-3.619,13.014-6.543,18.735s-5.706,11.19-6.412,25.879.036,16.035-.193,19.837-3.164,19.526-2.756,22.257-7.828,19.977-9.409,27.683C1561.718,1182.131,1561.1,1184.759,1560.49,1187.444Z" transform="translate(-1532.687 -1048.878)" fill="#215e4b"/>
        <path id="Path_34776" data-name="Path 34776" d="M1568.115,1302.057a11.494,11.494,0,0,1,6.83-5.149c8.712-2.4,14.2-1.487,19.318-9.654s6.929-20.113,8.616-22.391c0,0-3.408-1.114-7.856,4.621s-7.528,10.036-10.1,13.371-5.331,1.874-8.229,4.266c-2.428,2-5.164,7.111-6.308,9.739a10.9,10.9,0,0,1-1.421,2.39c-.523.666-1.144,1.479-1.531,2.066a3.611,3.611,0,0,0-.287.595Z" transform="translate(-1536.606 -1166.206)" fill="#3c8f7c"/>
        <path id="Path_34777" data-name="Path 34777" d="M1511.831,1285.731a11.225,11.225,0,0,0-4.329-7.142c-7.029-5.333-12.34-6.49-14.021-15.747s1-20.745.294-23.421c0,0,3.494.224,5.45,7.034s3.191,11.824,4.316,15.78,4.156,3.629,5.916,6.847c1.475,2.7,2.107,8.317,2.193,11.114a10.647,10.647,0,0,0,.423,2.682c.233.793.5,1.754.64,2.427a3.515,3.515,0,0,1,.045.643Z" transform="translate(-1492.917 -1151.283)" fill="#3c8f7c"/>
        <path id="Path_34778" data-name="Path 34778" d="M1511.177,1102.3c-2.369,10.19,4.315,10.383,3.587,16.985s6.155,19.019,8.926,27.523c1.441,4.423,1.25,10.821.735,15.944l3.19.484c.719-13.055-3.142-22.8-5.173-30.456-2.614-9.85-2.577-14.16,1.936-20.873s2.327-26.157,8.453-33.748,5.619-21.041,5.263-26.233,1.394-8.419,3.2-13.562.854-13.155.854-13.155c-1.177,6.535-7.535,14.749-12.024,19.958s-13.7,19.841-13.973,27.06-.757,7.694-.757,7.694C1511.409,1089.047,1513.547,1092.112,1511.177,1102.3Z" transform="translate(-1503.364 -1025.212)" fill="#215e4b"/>
        <path id="Path_34779" data-name="Path 34779" d="M1543.475,1169.995c-1.639,9.89,5.56,14.819,4.592,20.289s-.121,11.627.681,16.27c.508,2.939-1.191,10.649-2.465,17.934l2.155.327c1.359-5.289,3.13-12.949,3.455-16.413.443-4.728,3.155-8.152,4.664-16.28s4.367-15.23,2.317-26.091.49-23.079-12.915-36.76c0,0-4.508,11.646-3.5,18.513S1545.113,1160.106,1543.475,1169.995Z" transform="translate(-1521.99 -1086.455)" fill="#3c8f7c"/>
        <path id="Path_34780" data-name="Path 34780" d="M1543.475,1169.995c-1.639,9.89,5.56,14.819,4.592,20.289s-.121,11.627.681,16.27c.508,2.939-1.191,10.649-2.465,17.934l.895.136c.353-1.509.615-2.45.615-2.45l3.252-18.413s1.3-14.6,1.485-26.628-6.572-47.862-6.572-47.862-4.508,11.646-3.5,18.513S1545.113,1160.106,1543.475,1169.995Z" transform="translate(-1521.99 -1086.455)" fill="#327f6b"/>
        <path id="Path_34781" data-name="Path 34781" d="M1525.768,1338.087l-1.446-.219-19.3-2.93a2.225,2.225,0,0,0-2.548,2.385l2.721,33.032a2.221,2.221,0,0,0,1.879,2.016l11.735,1.782,1.446.219,11.735,1.782a2.222,2.222,0,0,0,2.393-1.368l12.4-30.737a2.224,2.224,0,0,0-1.725-3.034Z" transform="translate(-1498.54 -1207.484)" fill="#f47458"/>
      </g>
      <path id="Path_34782" data-name="Path 34782" d="M1458.989,1370.045c.409-1.185-5.346-2.12-5.656-3.314s7.257-1.315,7.524-2.367c.492-1.937-8.3-.379-8.125-1.285s9.153-2.96,8.176-4.51-9.093,3.1-9.343,2.048,7.937-3.647,7.782-5.957c-.083-1.235-13.429,6.207-14.982,5.541s1.646-6.483.408-7.34-4.737,11.816-5.588,12.241-18.879,10.8-25.3,12.46c-.788-2.15-6.437-13.545-7.133-15.579-3.6,2.579-7.779,3.154-11.493,5.507,2.721,6.749,12.043,23.354,13.926,24.2,5.729,2.565,27.79-15.862,32.195-19.018s6.943-2.148,9.928-3.152S1458.58,1371.229,1458.989,1370.045Z" transform="translate(-1352.947 -1218.023)" fill="#f7a491"/>
      <path id="Path_34783" data-name="Path 34783" d="M1377.982,1337.6s-7.806-17.305-8.991-24.021,4.576-15.146,10.611-14.6,15.083,30.421,15.083,30.421Z" transform="translate(-1337.397 -1186.321)" fill="#89a6e5"/>
    </g>
    <g id="Group_22098" data-name="Group 22098" transform="translate(1426.639 1132.434)">
      <g id="Group_22096" data-name="Group 22096" transform="translate(192.266 41.866)">
        <path id="Path_34784" data-name="Path 34784" d="M2191.1,1583.7a107.432,107.432,0,0,1-13.179-17.206c-8.472-13.668-12.293-27.016-11.048-38.6.869-8.094,4.914-19.1,9.6-31.848,5.595-15.223,11.935-32.478,14.235-48.652,2.576-18.126-.479-31.434-9.342-40.685-8.392-8.76-17.5-13.2-27.072-13.2h0c-16.238,0-28.589,12.7-28.712,12.833l-4.3-4.121c.573-.6,14.261-14.668,33.014-14.67h.005c11.259,0,21.813,5.059,31.374,15.037,10.21,10.659,13.788,25.589,10.938,45.645-2.388,16.8-8.845,34.367-14.541,49.868-4.548,12.377-8.476,23.065-9.267,30.43-2.681,24.96,22.3,50.733,22.552,50.991Z" transform="translate(-2121.269 -1387.552)" fill="#96d9c9"/>
      </g>
      <path id="Path_34785" data-name="Path 34785" d="M2294.21,1852.031l-2.527,2.528a4.966,4.966,0,0,1-7.023,0l-15.476-15.475a4.966,4.966,0,0,1,0-7.023l2.527-2.528a4.966,4.966,0,0,1,7.023,0l15.475,15.476A4.965,4.965,0,0,1,2294.21,1852.031Z" transform="translate(-2015.202 -1604.954)" fill="#f7cc7f"/>
      <path id="Path_34786" data-name="Path 34786" d="M1909.738,1469.914s1.171,8.111,1.2,10.477l8.784-3.359c-.2-5.465-.826-45.437-1.476-47.114-.667-1.721-18.908-31.493-18.908-31.493l-11.609,12.359,15.37,18.912C1903.385,1431.338,1909.738,1469.914,1909.738,1469.914Z" transform="translate(-1791.554 -1352.085)" fill="#f8a492"/>
      <path id="Path_34787" data-name="Path 34787" d="M1987.774,1850.588s-1.1,12.062-.378,16a15.171,15.171,0,0,0,.56,1.929c.749,2.205-1.3,8.94-1.3,8.94l-27.487.1c-1.5.006-.5-.943.722-1.814,1.994-1.426,3.6-2.364,9.948-5.332.414-.194,1.925-1.126,2.469-1.449a19.011,19.011,0,0,0,3.974-3.416c2-2.168,2.3-12.8,2.3-12.8Z" transform="translate(-1833.157 -1618.202)" fill="#f7a491"/>
      <path id="Path_34788" data-name="Path 34788" d="M1969.264,1894.627c7.245,1.951,12.633.752,15.653-.42.748,2.2,2.123,10.55,1.283,10.55-6.893,0-12.694.4-32.444.091-.707-.011-.621-2.44-.16-2.976C1954.871,1900.39,1968.718,1894.951,1969.264,1894.627Z" transform="translate(-1830.11 -1643.874)" fill="#355389"/>
      <path id="Path_34789" data-name="Path 34789" d="M2026.5,1469.439s-.391,17.218-5.326,28.244c-4.806,10.739-27.807,37.225-33.921,52.684,1.89,8.72,7.085,20.975,6.709,30.639-.426,10.952.211,39.931.211,39.931l-12.344.392-16.192-74.783,25.957-68.212,9.518-32.068Z" transform="translate(-1837.405 -1380.242)" fill="#13375b"/>
      <path id="Path_34790" data-name="Path 34790" d="M2106.951,1875.2s.552,9.8.556,9.817c.2,1.243,1,4.317,1,5.447,0,4.248-18.845-3.605-14.621-5.488.382-.17,2.979-2.421,3.1-3.866.194-2.228.092-5.772.092-5.772Z" transform="translate(-1912.526 -1632.688)" fill="#f7a491"/>
      <path id="Path_34791" data-name="Path 34791" d="M2072.447,1898.611a67.662,67.662,0,0,0,6.69,1.624c2.266.325,5.253-2.41,6.857-1.672,1.764.813,1.834,8.821,1.834,8.821s-23.58.761-30.56-.278C2054.521,1906.7,2063.4,1901.638,2072.447,1898.611Z" transform="translate(-1891.037 -1646.364)" fill="#5184ce"/>
      <path id="Path_34792" data-name="Path 34792" d="M1866,1361.621c-2.563-9.988,4.416-19.387,4.416-19.387s4.645-6.609,6.857-8.068c3.254-2.147,8.526-7,20.811,4.135,8.792,7.968,46.756,29.934,66.35,53.054l-34.559,25.02s-30.281-22.556-34.211-25.222C1886.882,1385.19,1867.672,1368.13,1866,1361.621Z" transform="translate(-1778.434 -1312.549)" fill="#9bc1f9"/>
      <path id="Path_34793" data-name="Path 34793" d="M1832.431,1348.719l15.341,4.384s3.3,11.288-.3,15.364c-3.021,3.42-7.334-1.82-7.334-1.82s-6.723-5.6-11.04-6.774S1832.431,1348.719,1832.431,1348.719Z" transform="translate(-1756.269 -1322.831)" fill="#f7a491"/>
      <path id="Path_34794" data-name="Path 34794" d="M1835.957,1353.155a28.845,28.845,0,0,1-1.245,9.526,22.339,22.339,0,0,0-5.616-2.807c-1.992-.542-1.433-2.959-.255-5.406,1.754-3.105,3.592-5.749,3.592-5.749l2.948.843A12.37,12.37,0,0,1,1835.957,1353.155Z" transform="translate(-1756.27 -1322.831)" fill="#f47458"/>
      <path id="Path_34795" data-name="Path 34795" d="M1791.213,1302.033c.174-.324,13.919,11.411,13.778,18.163s-5.74,13.953-10.721,13.209c-5.51-.822-18.208-15.3-16.262-23.863S1791.213,1302.033,1791.213,1302.033Z" transform="translate(-1726.861 -1295.33)" fill="#f7a491"/>
      <path id="Path_34796" data-name="Path 34796" d="M1772.672,1290.446c4.336-3.616,12.1-5.889,18.592-3.915,7.986,2.427,11.455,11.683,10.287,17.951s2.1,8.968,2.1,8.968l-4.317-1.234s-2.913-3.265-3.738-6.01-4.816-1.475-7.051-2.366c-1.721-.687-4.283-3.494-7.08-4.672,0,0-6.4.419-9.15,2.728C1767.623,1305.833,1766.46,1295.625,1772.672,1290.446Z" transform="translate(-1721.323 -1285.802)" fill="#13375b"/>
      <path id="Path_34797" data-name="Path 34797" d="M1825.89,1327.887c.358,2.084,1.661,3.6,2.912,3.382s1.974-2.08,1.616-4.163-1.662-3.6-2.912-3.382S1825.532,1325.8,1825.89,1327.887Z" transform="translate(-1755.106 -1308.108)" fill="#f7a491"/>
      <path id="Path_34798" data-name="Path 34798" d="M1803.417,1358.014l5.053-5.518a3.31,3.31,0,0,1-.143,4.576C1805.7,1360.111,1803.417,1358.014,1803.417,1358.014Z" transform="translate(-1741.933 -1325.054)" fill="#fff"/>
      <path id="Path_34799" data-name="Path 34799" d="M1939.823,1579.133l9.443,4.037c.861,1.459,1.327,3.273,2.6,5.23l-8.808,14.218a13.571,13.571,0,0,0-1.18-1.864l-.525,2.291a4.934,4.934,0,0,0-2.123-.033c-.934.208-1.1-2.52-1.038-3.409.181-2.684,2.053-9.608,2.335-10.763Z" transform="translate(-1821.244 -1458.44)" fill="#f7a491"/>
      <path id="Path_34800" data-name="Path 34800" d="M1965.3,1402.77c-10.567-12.468-26.475-24.6-40.271-34.383-4.5,4.535-17.591,17.447-20.322,16.84-3.31-.736-19.2-11.179-26.809-19.012a17.474,17.474,0,0,1-4.608-15.288c-1.152,1.505-2.008,2.723-2.008,2.723s-.194.263-.5.739a12.969,12.969,0,0,0,.645,5.391,37.049,37.049,0,0,0,12.209,15.519c7.8,5.59,17.284,12.136,17.284,12.136s-7.594,8.9-9.36,9.264c0,0-18.55-15.5-24.5-23.057,2.589,6.946,20.755,23.937,29.281,29.723,3.93,2.667,34.4,24.426,34.4,24.426s17.7,71.913,17.44,70.085,13.714,69.356,13.714,69.356l12.821-.3-6-71.193s4.7-52.458,6-64.989S1965.3,1402.77,1965.3,1402.77Z" transform="translate(-1779.391 -1324.131)" fill="#355389"/>
      <path id="Path_34801" data-name="Path 34801" d="M1720.187,1617.786h-9l170.066-199.135,5.3,4.359Z" transform="translate(-1687.652 -1363.989)" fill="#f7cc7f"/>
      <path id="Path_34802" data-name="Path 34802" d="M1959.241,1606.832a2.751,2.751,0,0,1,3.334-1.31c1.977,1,4.986,3.134,3.617,6.486-1.976,4.837-10.715,11.522-11.239,9.9s.391-11.969,2.155-12.794A5.5,5.5,0,0,0,1959.241,1606.832Z" transform="translate(-1831.032 -1473.854)" fill="#f48c7f"/>
      <path id="Path_34803" data-name="Path 34803" d="M2015.212,1379.153a35.4,35.4,0,0,0-5.488-6.444c-.847-.655-5.058-3.954-5.282-4.137-8.209-8.15-27.671-38.081-29.061-38.76-1.646-.8-36.475-1.724-36.475-1.724l.6,16.335,29.35-.2c1.332.992,26.585,28.4,26.585,28.4s1.584,1.2,3.4,2.627a.407.407,0,0,1-.04.134,13.682,13.682,0,0,0-1.264,5.2c-.161,2.2-.246,4.414,1.922,5.9a7.21,7.21,0,0,1,1.673,1.849,8.528,8.528,0,0,0,2.6,2.252,2.107,2.107,0,0,0,2.785-.566,7.223,7.223,0,0,1,1.451-1.635C2009.008,1387.773,2016.008,1380.985,2015.212,1379.153Z" transform="translate(-1821.674 -1310.689)" fill="#f7a491"/>
      <path id="Path_34804" data-name="Path 34804" d="M1924.862,1319.628s.811,5.388.915,9.049c.069,2.452.023,13.318.023,13.318s-17.726,4.053-24.686,4.319c-25.542.978-16.32-16.744-13.661-19.841C1893.4,1319.545,1924.862,1319.628,1924.862,1319.628Z" transform="translate(-1789.148 -1305.71)" fill="#89a6e5"/>
      <path id="Path_34805" data-name="Path 34805" d="M1739.685,1821.08l-28.5,33.36h9l25.317-29.632C1743.681,1819.116,1739.685,1821.08,1739.685,1821.08Z" transform="translate(-1687.652 -1600.643)" fill="#bc4d26"/>
      <path id="Rectangle_4310" data-name="Rectangle 4310" d="M2.28,0H14.93a2.28,2.28,0,0,1,2.28,2.28v0a2.28,2.28,0,0,1-2.28,2.28H2.28A2.28,2.28,0,0,1,0,2.28v0A2.28,2.28,0,0,1,2.28,0Z" transform="translate(19.627 251.683)" fill="#f7cc7f"/>
      <path id="Rectangle_4311" data-name="Rectangle 4311" d="M7.224,0H44.408a7.224,7.224,0,0,1,7.224,7.224v0a0,0,0,0,1,0,0H0a0,0,0,0,1,0,0v0A7.224,7.224,0,0,1,7.224,0Z" transform="translate(0 253.797)" fill="#fe875e"/>
      <g id="Group_22097" data-name="Group 22097" transform="translate(258.632 202.508)">
        <path id="Rectangle_4312" data-name="Rectangle 4312" d="M6.727,0h19.2a6.727,6.727,0,0,1,6.727,6.727v0a6.727,6.727,0,0,1-6.727,6.727H6.727A6.727,6.727,0,0,1,0,6.727v0A6.727,6.727,0,0,1,6.727,0Z" transform="translate(86.084 13.455) rotate(180)" fill="#f7cc7f"/>
        <path id="Path_34806" data-name="Path 34806" d="M2380.522,1797.118v38.243a7.893,7.893,0,0,1-7.894,7.893h-82.17a7.893,7.893,0,0,1-7.893-7.893v-.764a42.415,42.415,0,0,1,39.843-42.337l49.742-3.021A7.893,7.893,0,0,1,2380.522,1797.118Z" transform="translate(-2282.564 -1784.596)" fill="#96d9c9"/>
        <path id="Path_34807" data-name="Path 34807" d="M2380.521,1876.269v10.322a7.893,7.893,0,0,1-7.894,7.893h-82.17a7.893,7.893,0,0,1-7.894-7.893v-.764a42.49,42.49,0,0,1,1.086-9.558Z" transform="translate(-2282.564 -1835.825)" fill="#96d9c9" style="mix-blend-mode: multiply;isolation: isolate"/>
        <circle id="Ellipse_298" data-name="Ellipse 298" cx="21.858" cy="21.858" r="21.858" transform="matrix(0.973, -0.23, 0.23, 0.973, 52.502, 20.549)" fill="#001333"/>
        <circle id="Ellipse_299" data-name="Ellipse 299" cx="17.271" cy="17.271" r="17.271" transform="translate(61.527 19.53)" fill="#bae1f4"/>
      </g>
    </g>
    <g id="Group_22099" data-name="Group 22099" transform="translate(1399.798 1203.41)">
      <rect id="Rectangle_4313" data-name="Rectangle 4313" width="98.543" height="34.497" transform="translate(100.751 34.497) rotate(180)" fill="#f4f4f4"/>
      <rect id="Rectangle_4314" data-name="Rectangle 4314" width="98.543" height="0.581" transform="translate(100.751 6.896) rotate(180)" fill="#d3e5f4"/>
      <rect id="Rectangle_4315" data-name="Rectangle 4315" width="98.543" height="0.581" transform="translate(100.751 12.588) rotate(180)" fill="#d3e5f4"/>
      <rect id="Rectangle_4316" data-name="Rectangle 4316" width="98.543" height="0.581" transform="translate(100.751 18.279) rotate(180)" fill="#d3e5f4"/>
      <rect id="Rectangle_4317" data-name="Rectangle 4317" width="98.543" height="0.581" transform="translate(100.751 23.971) rotate(180)" fill="#d3e5f4"/>
      <path id="Path_34808" data-name="Path 34808" d="M1640.932,1488.063s-46.366,3.979-52.177,8.973c0,0,.291-5.924,2.208-9.554l14.526.552Z" transform="translate(-1588.755 -1475.475)" fill="#d3e5f4"/>
      <rect id="Rectangle_4318" data-name="Rectangle 4318" width="98.543" height="0.581" transform="translate(100.751 29.633) rotate(180)" fill="#d3e5f4"/>
      <path id="Path_34809" data-name="Path 34809" d="M1776.613,1458.3v34.5h23.455v-34.5Z" transform="translate(-1699.318 -1458.301)" fill="#d3e5f4" style="mix-blend-mode: multiply;isolation: isolate"/>
    </g>
  </g>
</svg>
